SplineFontDB: 3.2
FontName: Multivers-Italic
FullName: Multivers Italic
FamilyName: Multivers
Weight: Book
Copyright: 
Version: 1.000
ItalicAngle: -13
UnderlinePosition: -199
UnderlineWidth: 38
Ascent: 800
Descent: 200
InvalidEm: 0
sfntRevision: 0x00010000
LayerCount: 3
Layer: 0 0 "Back" 1
Layer: 1 0 "Fore" 0
Layer: 2 0 "Back 2" 1
XUID: [1021 123 1656631536 9005984]
StyleMap: 0x0001
FSType: 0
OS2Version: 4
OS2_WeightWidthSlopeOnly: 0
OS2_UseTypoMetrics: 0
CreationTime: 1659194366
ModificationTime: 1739637281
PfmFamily: 81
TTFWeight: 400
TTFWidth: 5
LineGap: 0
VLineGap: 0
Panose: 0 0 0 0 0 0 0 0 0 0
OS2TypoAscent: 970
OS2TypoAOffset: 0
OS2TypoDescent: -250
OS2TypoDOffset: 0
OS2TypoLinegap: 0
OS2WinAscent: 986
OS2WinAOffset: 0
OS2WinDescent: 350
OS2WinDOffset: 0
HheadAscent: 970
HheadAOffset: 0
HheadDescent: -250
HheadDOffset: 0
OS2SubXSize: 650
OS2SubYSize: 600
OS2SubXOff: -17
OS2SubYOff: 75
OS2SupXSize: 650
OS2SupYSize: 600
OS2SupXOff: 81
OS2SupYOff: 350
OS2StrikeYSize: 38
OS2StrikeYPos: 301
OS2CapHeight: 720
OS2XHeight: 510
OS2Vendor: 'NONE'
OS2CodePages: 00000093.00000000
OS2UnicodeRanges: a000006f.0000006a.00000000.00000000
Lookup: 1 0 0 "'aalt' Access All Alternates in Latin lookup 0" { "'aalt' Access All Alternates in Latin lookup 0 subtable"  } ['aalt' ('DFLT' <'dflt' > 'latn' <'AZE ' 'CAT ' 'CRT ' 'KAZ ' 'MOL ' 'ROM ' 'TAT ' 'TRK ' 'dflt' > ) ]
Lookup: 3 0 0 "'aalt' Access All Alternates in Latin lookup 1" { "'aalt' Access All Alternates in Latin lookup 1 subtable"  } ['aalt' ('DFLT' <'dflt' > 'latn' <'AZE ' 'CAT ' 'CRT ' 'KAZ ' 'MOL ' 'ROM ' 'TAT ' 'TRK ' 'dflt' > ) ]
Lookup: 6 0 0 "'ccmp' Glyph Composition/Decomposition in Latin lookup 2" { "'ccmp' Glyph Composition/Decomposition in Latin lookup 2 subtable"  } ['ccmp' ('DFLT' <'dflt' > 'latn' <'AZE ' 'CAT ' 'CRT ' 'KAZ ' 'MOL ' 'ROM ' 'TAT ' 'TRK ' 'dflt' > ) ]
Lookup: 1 0 0 "Single Substitution lookup 3" { "Single Substitution lookup 3 subtable"  } []

StartChar: .notdef
Encoding: 65536 -1 0
Width: 632
GlyphClass: 1
Flags: HW
LayerCount: 3
Fore
SplineSet
24 0 m 1
 189 720 l 1
 656 720 l 1
 491 0 l 1
 24 0 l 1
119 70 m 1
 428 70 l 1
 562 651 l 1
 253 651 l 1
 119 70 l 1
EndSplineSet
EndChar

StartChar: A
Encoding: 65 65 1
Width: 658
GlyphClass: 2
Flags: W
AnchorPoint: "Anchor-3" 566 0 basechar 0
AnchorPoint: "Anchor-2" 274 0 basechar 0
AnchorPoint: "Anchor-0" 429 720 basechar 0
LayerCount: 2
Fore
SplineSet
-26 0 m 1,0,-1
 386 720 l 1,1,-1
 469 720 l 1,2,-1
 65 0 l 1,3,-1
 -26 0 l 1,0,-1
479 0 m 5,4,-1
 404 720 l 5,5,-1
 483 720 l 1,6,-1
 566 0 l 1,7,-1
 479 0 l 5,4,-1
163 287 m 1,8,-1
 504 287 l 1,9,-1
 489 218 l 1,10,-1
 148 218 l 1,11,-1
 163 287 l 1,8,-1
EndSplineSet
Substitution2: "Single Substitution lookup 17 subtable" ordfeminine
Substitution2: "'aalt' Access All Alternates in Latin lookup 0 subtable" ordfeminine
EndChar

StartChar: AE
Encoding: 198 198 12
Width: 868
GlyphClass: 1
Flags: HW
LayerCount: 3
Fore
SplineSet
-26 0 m 1
 385 720 l 1
 460 720 l 1
 55 0 l 1
 -26 0 l 1
376 0 m 1
 540 720 l 1
 619 720 l 1
 455 0 l 1
 376 0 l 1
418 0 m 1
 434 70 l 1
 759 70 l 1
 744 0 l 1
 418 0 l 1
222 340 m 1
 238 410 l 1
 805 410 l 1
 789 340 l 1
 222 340 l 1
391 651 m 1
 406 720 l 1
 900 720 l 1
 884 651 l 1
 391 651 l 1
EndSplineSet
EndChar

StartChar: B
Encoding: 66 66 13
Width: 585
GlyphClass: 1
Flags: HW
LayerCount: 3
Fore
SplineSet
76 0 m 1
 91 66 l 1
 274 66 l 6
 308 66 337.5 72.5 362.5 85.5 c 132
 387.5 98.5 407 117.166992188 421 141.5 c 132
 435 165.833007812 442 193.666992188 442 225 c 4
 442 262.333007812 432 291.666992188 412 313 c 132
 392 334.333007812 364.666992188 345 330 345 c 6
 156 345 l 1
 170 409 l 1
 340 409 l 6
 372.666992188 409 401.333007812 415.166992188 426 427.5 c 132
 450.666992188 439.833007812 469.666992188 456.666992188 483 478 c 132
 496.333007812 499.333007812 503 524.333007812 503 553 c 4
 503 585 493.833007812 610 475.5 628 c 132
 457.166992188 646 431.666992188 655 399 655 c 6
 225 655 l 1
 240 720 l 1
 423 720 l 2
 474.333333333 720 515.5 705.333333333 546.5 676 c 128
 577.5 646.666666667 593 607.666666667 593 559 c 0
 593 529 587 501.5 575 476.5 c 128
 563 451.5 546.833333333 430.166666667 526.5 412.5 c 128
 506.166666667 394.833333333 483 381.666666667 457 373 c 128
 431 364.333333333 403.333333333 361.333333333 374 364 c 1
 383 385 l 1
 429.666666667 380.333333333 466.333333333 363 493 333 c 128
 519.666666667 303 533 264.666666667 533 218 c 0
 533 175.333333333 522.333333333 137.5 501 104.5 c 128
 479.666666667 71.5 449.833333333 45.8333333333 411.5 27.5 c 128
 373.166666667 9.16666666667 328.666666667 0 278 0 c 2
 76 0 l 1
24 0 m 1
 189 720 l 1
 278 720 l 1
 113 0 l 1
 24 0 l 1
EndSplineSet
EndChar

StartChar: C
Encoding: 67 67 14
Width: 671
GlyphClass: 2
Flags: HW
AnchorPoint: "Anchor-2" 304 0 basechar 0
AnchorPoint: "Anchor-0" 440 720 basechar 0
LayerCount: 3
Back
SplineSet
685.990234375 514.58984375 m 5
 576.33984375 514.58984375 l 5
 577.700195312 528.190429688 578.379882812 539.75 578.379882812 549.26953125 c 4
 578.379882812 581.91015625 567.330078125 608.08984375 545.23046875 627.809570312 c 4
 522.450195312 648.209960938 490.830078125 658.41015625 450.370117188 658.41015625 c 4
 369.450195312 658.41015625 300.259765625 613.530273438 242.799804688 523.76953125 c 4
 214.919921875 480.58984375 191.290039062 428.5703125 171.91015625 367.709960938 c 4
 153.209960938 310.58984375 143.860351562 259.25 143.860351562 213.690429688 c 4
 143.860351562 171.870117188 156.950195312 137.01953125 183.129882812 109.139648438 c 4
 211.690429688 79.2197265625 250.620117188 64.259765625 299.919921875 64.259765625 c 4
 349.900390625 64.259765625 393.25 79.5595703125 429.969726562 110.16015625 c 4
 451.73046875 128.1796875 471.110351562 155.040039062 488.110351562 190.740234375 c 5
 601.330078125 190.740234375 l 5
 581.950195312 148.240234375 563.9296875 116.959960938 547.26953125 96.900390625 c 4
 514.290039062 57.7998046875 471.959960938 28.5595703125 420.280273438 9.1796875 c 4
 380.83984375 -5.4404296875 339.870117188 -12.75 297.370117188 -12.75 c 4
 241.26953125 -12.75 191.120117188 -0.509765625 146.919921875 23.9697265625 c 4
 106.120117188 46.75 76.7099609375 79.5595703125 58.6904296875 122.400390625 c 4
 45.4296875 153.6796875 38.7998046875 187.169921875 38.7998046875 222.870117188 c 4
 38.7998046875 291.549804688 54.9501953125 364.650390625 87.25 442.169921875 c 4
 128.73046875 542.809570312 182.110351562 617.099609375 247.389648438 665.040039062 c 4
 310.969726562 711.959960938 382.200195312 735.419921875 461.080078125 735.419921875 c 4
 516.83984375 735.419921875 566.650390625 722.669921875 610.509765625 697.169921875 c 4
 637.030273438 681.530273438 657.259765625 659.940429688 671.200195312 632.400390625 c 4
 682.759765625 608.940429688 688.540039062 584.120117188 688.540039062 557.940429688 c 4
 688.540039062 546.040039062 687.690429688 531.58984375 685.990234375 514.58984375 c 5
EndSplineSet
Fore
SplineSet
323 -10 m 0
 271.666666667 -10 227 1.83333333333 189 25.5 c 128
 151 49.1666666667 121.666666667 82.1666666667 101 124.5 c 128
 80.3333333333 166.833333333 70 217 70 275 c 0
 70 314.333333333 74.3333333333 352.666666667 83 390 c 128
 91.6666666667 427.333333333 104.166666667 463 120.5 497 c 128
 136.833333333 531 156.5 562.166666667 179.5 590.5 c 128
 202.5 618.833333333 227.833333333 643.5 255.5 664.5 c 128
 283.166666667 685.5 313 701.666666667 345 713 c 128
 377 724.333333333 410.666666667 730 446 730 c 0
 578 730 682.71875 636.083984375 667 492 c 1
 578 492 l 5
 580.791015625 520.608398438 593 659 440 658 c 0
 407.334031048 657.786496935 386.333007812 651.166992188 357 637.5 c 128
 327.666992188 623.833007812 301 604.666992188 277 580 c 128
 253 555.333007812 232.333007812 527 215 495 c 128
 197.666992188 463 184.166992188 428.333007812 174.5 391 c 128
 164.833007812 353.666992188 160 315.666992188 160 277 c 0
 160 208.333007812 175.833007812 155.333007812 207.5 118 c 128
 239.166992188 80.6669921875 273.333333333 62 330 62 c 0
 394.571863638 62 465 90 511 222 c 5
 600 222 l 1
 562 81 469.971058325 -10 323 -10 c 0
EndSplineSet
Layer: 2
SplineSet
323 -10 m 4
 271.666666667 -10 227 1.83333333333 189 25.5 c 132
 151 49.1666666667 121.666666667 82.1666666667 101 124.5 c 132
 80.3333333333 166.833333333 70 217 70 275 c 4
 70 314.333333333 74.3333333333 352.666666667 83 390 c 132
 91.6666666667 427.333333333 104.166666667 463 120.5 497 c 132
 136.833333333 531 156.5 562.166666667 179.5 590.5 c 132
 202.5 618.833333333 227.833333333 643.5 255.5 664.5 c 132
 283.166666667 685.5 313 701.666666667 345 713 c 132
 377 724.333333333 410.666666667 730 446 730 c 4
 485.333333333 730 520.333333333 723 551 709 c 132
 581.666666667 695 607.166666667 675.5 627.5 650.5 c 132
 647.833333333 625.5 662.333333333 596.833333333 671 564.5 c 132
 679.666666667 532.166666667 682 497.666666667 678 461 c 5
 599 461 l 5
 601.666666667 488.333333333 600.333333333 514 595 538 c 132
 589.666666667 562 580.5 583 567.5 601 c 132
 554.5 619 537.333333333 633 516 643 c 132
 494.666666667 653 469.333333333 658 440 658 c 4
 407.333333333 658 376.333333333 651.166666667 347 637.5 c 132
 317.666666667 623.833333333 291 604.666666667 267 580 c 132
 243 555.333333333 222.333333333 527 205 495 c 132
 187.666666667 463 174.166666667 428.333333333 164.5 391 c 132
 154.833333333 353.666666667 150 315.666666667 150 277 c 4
 150 208.333333333 165.833333333 155.333333333 197.5 118 c 132
 229.166666667 80.6666666667 273.333333333 62 330 62 c 4
 384 62 430.166666667 79 468.5 113 c 132
 506.833333333 147 535 195.666666667 553 259 c 5
 632 259 l 5
 616.666666667 202.333333333 594 153.833333333 564 113.5 c 132
 534 73.1666666667 498.5 42.5 457.5 21.5 c 132
 416.5 0.5 371.666666667 -10 323 -10 c 4
EndSplineSet
EndChar

StartChar: D
Encoding: 68 68 19
Width: 688
GlyphClass: 2
Flags: HW
AnchorPoint: "Anchor-2" 291 0 basechar 0
AnchorPoint: "Anchor-0" 434 720 basechar 0
LayerCount: 3
Fore
SplineSet
73 0 m 1
 88 71 l 1
 274 71 l 6
 317.333007812 71 357.5 80.5 394.5 99.5 c 132
 431.5 118.5 463.666992188 144.333007812 491 177 c 132
 518.333007812 209.666992188 539.666992188 247 555 289 c 132
 570.333007812 331 578 375 578 421 c 4
 578 467.666992188 570.333007812 508.166992188 555 542.5 c 132
 539.666992188 576.833007812 517.5 603.5 488.5 622.5 c 132
 459.5 641.5 424.333007812 651 383 651 c 6
 219 651 l 1
 235 720 l 1
 403 720 l 2
 457 720 503.833333333 707.666666667 543.5 683 c 128
 583.166666667 658.333333333 614 624.333333333 636 581 c 128
 658 537.666666667 669 487 669 429 c 0
 669 372.333333333 659 318.166666667 639 266.5 c 128
 619 214.833333333 591.333333333 169.166666667 556 129.5 c 128
 520.666666667 89.8333333333 479.333333333 58.3333333333 432 35 c 128
 384.666666667 11.6666666667 334 0 280 0 c 2
 73 0 l 1
24 0 m 1
 189 720 l 1
 278 720 l 1
 113 0 l 1
 24 0 l 1
EndSplineSet
EndChar

StartChar: Eth
Encoding: 208 208 20
Width: 688
GlyphClass: 2
Flags: HW
AnchorPoint: "Anchor-2" 291 0 basechar 0
AnchorPoint: "Anchor-0" 434 720 basechar 0
LayerCount: 3
Fore
SplineSet
17 327 m 1
 32 393 l 1
 382 393 l 1
 366 327 l 1
 17 327 l 1
73 0 m 1
 88 71 l 1
 284 71 l 2
 327.333333333 71 367.5 80.5 404.5 99.5 c 128
 441.5 118.5 473.666666667 144.333333333 501 177 c 128
 528.333333333 209.666666667 549.666666667 247 565 289 c 128
 580.333333333 331 588 375 588 421 c 0
 588 467.666666667 580.333333333 508.166666667 565 542.5 c 128
 549.666666667 576.833333333 527.5 603.5 498.5 622.5 c 128
 469.5 641.5 434.333333333 651 393 651 c 2
 219 651 l 1
 235 720 l 1
 403 720 l 2
 457 720 503.833333333 707.666666667 543.5 683 c 128
 583.166666667 658.333333333 614 624.333333333 636 581 c 128
 658 537.666666667 669 487 669 429 c 0
 669 372.333333333 659 318.166666667 639 266.5 c 128
 619 214.833333333 591.333333333 169.166666667 556 129.5 c 128
 520.666666667 89.8333333333 479.333333333 58.3333333333 432 35 c 128
 384.666666667 11.6666666667 334 0 280 0 c 2
 73 0 l 1
24 0 m 1
 189 720 l 1
 268 720 l 1
 103 0 l 1
 24 0 l 1
EndSplineSet
EndChar

StartChar: E
Encoding: 69 69 23
Width: 582
GlyphClass: 2
Flags: HW
AnchorPoint: "Anchor-3" 426 0 basechar 0
AnchorPoint: "Anchor-2" 232 0 basechar 0
AnchorPoint: "Anchor-0" 408 720 basechar 0
LayerCount: 3
Fore
SplineSet
23 0 m 1
 189 720 l 1
 278 720 l 5
 112 0 l 5
 23 0 l 1
65 0 m 1
 81 70 l 1
 474 70 l 1
 458 0 l 1
 65 0 l 1
143 340 m 1
 159 410 l 1
 520 410 l 1
 504 340 l 1
 143 340 l 1
215 651 m 1
 231 720 l 1
 616 720 l 1
 600 651 l 1
 215 651 l 1
EndSplineSet
EndChar

StartChar: F
Encoding: 70 70 32
Width: 547
GlyphClass: 1
Flags: HW
LayerCount: 3
Fore
SplineSet
24 0 m 1
 189 720 l 1
 278 720 l 1
 113 0 l 1
 24 0 l 1
136 310 m 1
 153 380 l 1
 498 380 l 1
 481 310 l 1
 136 310 l 1
215 651 m 1
 231 720 l 1
 600 720 l 1
 584 651 l 1
 215 651 l 1
EndSplineSet
EndChar

StartChar: G
Encoding: 71 71 33
Width: 694
GlyphClass: 2
Flags: HW
AnchorPoint: "Anchor-2" 329 0 basechar 0
AnchorPoint: "Anchor-0" 461 720 basechar 0
LayerCount: 3
Fore
SplineSet
351 -10 m 0
 298.333333333 -10 248.166666667 1.83333333333 200.5 25.5 c 128
 152.833333333 49.1666666667 118.5 82.3333333333 97.5 125 c 128
 76.5 167.666666667 66 218 66 276 c 0
 66 322.666666667 72.3333333333 368.166666667 85 412.5 c 128
 97.6666666667 456.833333333 115.5 498.166666667 138.5 536.5 c 128
 161.5 574.833333333 188.666666667 608.5 220 637.5 c 128
 251.333333333 666.5 285.5 689.166666667 322.5 705.5 c 128
 359.5 721.833333333 398.666666667 730 440 730 c 0
 479.333333333 730 513.833333333 723.666666667 543.5 711 c 128
 573.166666667 698.333333333 598 680.833333333 618 658.5 c 128
 638 636.166666667 653 610.666666667 663 582 c 128
 673 553.333333333 677.666666667 523 677 491 c 1
 588 491 l 5
 585.662109375 572.833007812 551.299680363 658 436 658 c 0
 403.333333333 658 382.5 651.166992188 353.5 637.5 c 128
 324.5 623.833007812 297.833007812 604.666992188 273.5 580 c 128
 249.166992188 555.333007812 228.333007812 527 211 495 c 128
 193.666992188 463 180.333007812 428.333007812 171 391 c 128
 161.666992188 353.666992188 157 315.666992188 157 277 c 0
 157 208.333007812 177.333007812 155.333007812 218 118 c 128
 258.666992188 80.6669921875 298.333333333 62 357 62 c 0
 435 62 479.46484375 73.31640625 510.395507812 95.94921875 c 1
 550.907226562 309 l 1
 385 309 l 1
 403 379 l 1
 657 379 l 1
 593 52 l 1
 541 10.6666666667 460.333333333 -10 351 -10 c 0
EndSplineSet
Substitution2: "'ss07' Style Set 7 in Latin lookup 28 subtable" G.ss07
Substitution2: "'aalt' Access All Alternates in Latin lookup 0 subtable" G.ss07
EndChar

StartChar: H
Encoding: 72 72 37
Width: 677
GlyphClass: 2
Flags: HW
AnchorPoint: "Anchor-2" 284 0 basechar 0
AnchorPoint: "Anchor-0" 449 720 basechar 0
LayerCount: 3
Fore
SplineSet
24 0 m 1
 189 720 l 1
 278 720 l 1
 113 0 l 1
 24 0 l 1
447 0 m 5
 612 720 l 5
 701 720 l 1
 536 0 l 1
 447 0 l 5
160 410 m 1
 585 410 l 1
 570 340 l 1
 144 340 l 1
 160 410 l 1
EndSplineSet
EndChar

StartChar: Hbar
Encoding: 294 294 38
Width: 677
GlyphClass: 2
Flags: HW
AnchorPoint: "Anchor-2" 284 0 basechar 0
AnchorPoint: "Anchor-0" 449 720 basechar 0
LayerCount: 3
Fore
SplineSet
67 542 m 1
 82 608 l 1
 759 608 l 1
 743 542 l 1
 67 542 l 1
24 0 m 1
 189 720 l 1
 268 720 l 1
 103 0 l 1
 24 0 l 1
457 0 m 1
 622 720 l 1
 701 720 l 1
 536 0 l 1
 457 0 l 1
160 410 m 1
 585 410 l 1
 570 340 l 1
 144 340 l 1
 160 410 l 1
EndSplineSet
EndChar

StartChar: I
Encoding: 73 73 39
Width: 243
GlyphClass: 2
Flags: HW
AnchorPoint: "Anchor-3" 87 0 basechar 0
AnchorPoint: "Anchor-2" 63 0 basechar 0
AnchorPoint: "Anchor-0" 229 720 basechar 0
LayerCount: 3
Fore
SplineSet
18 0 m 1
 184 720 l 1
 273 720 l 5
 107 0 l 5
 18 0 l 1
EndSplineSet
EndChar

StartChar: J
Encoding: 74 74 48
Width: 418
GlyphClass: 1
Flags: HW
LayerCount: 3
Fore
SplineSet
77 -10 m 0
 50.3333333333 -10 26.5 -8.33333333333 5.5 -5 c 128
 -15.5 -1.66666666667 -30.3333333333 2.33333333333 -39 7 c 1
 -22 80 l 1
 -9.64764658191 74.7990090871 20.990234375 60 83 60 c 4
 194.756835938 60 225.205078125 134.762695312 239 194 c 6
 360 720 l 5
 449 720 l 1
 327 189 l 2
 311 119 282.333333333 68.3333333333 241 37 c 128
 199.666666667 5.66666666667 145 -10 77 -10 c 0
EndSplineSet
Substitution2: "'ss08' Style Set 8 in Latin lookup 29 subtable" J.ss08
Substitution2: "'aalt' Access All Alternates in Latin lookup 0 subtable" J.ss08
EndChar

StartChar: K
Encoding: 75 75 49
Width: 636
GlyphClass: 2
Flags: HW
AnchorPoint: "Anchor-2" 271 0 basechar 0
AnchorPoint: "Anchor-0" 425 720 basechar 0
LayerCount: 3
Fore
SplineSet
13 0 m 1
 179 720 l 1
 268 720 l 1
 102 0 l 1
 13 0 l 1
188 373 m 1
 584 720 l 1
 701 720 l 1
 289 374 l 5
 188 373 l 1
455 0 m 1
 188 373 l 1
 289 374 l 5
 555 0 l 1
 455 0 l 1
EndSplineSet
Substitution2: "'ss04' Style Set 4 in Latin lookup 25 subtable" K.ss04
Substitution2: "'aalt' Access All Alternates in Latin lookup 0 subtable" K.ss04
EndChar

StartChar: L
Encoding: 76 76 51
Width: 535
GlyphClass: 2
Flags: HW
AnchorPoint: "Anchor-2" 241 0 basechar 0
AnchorPoint: "Anchor-1" 467 720 basechar 0
AnchorPoint: "Anchor-0" 228 720 basechar 0
LayerCount: 3
Fore
SplineSet
23 0 m 1
 189 720 l 1
 278 720 l 5
 112 0 l 5
 23 0 l 1
65 0 m 1
 81 70 l 1
 444 70 l 1
 428 0 l 1
 65 0 l 1
EndSplineSet
EndChar

StartChar: Lslash
Encoding: 321 321 55
Width: 535
GlyphClass: 2
Flags: HW
AnchorPoint: "Anchor-2" 241 0 basechar 0
AnchorPoint: "Anchor-1" 467 720 basechar 0
AnchorPoint: "Anchor-0" 228 720 basechar 0
LayerCount: 3
Fore
SplineSet
147 345 m 1
 9 292 l 1
 24 355 l 1
 159 407 l 1
 147 345 l 1
160 411 m 1
 353 486 l 1
 338 423 l 1
 148 349 l 1
 160 411 l 1
23 0 m 1
 189 720 l 1
 268 720 l 1
 102 0 l 1
 23 0 l 1
65 0 m 1
 81 70 l 1
 444 70 l 1
 428 0 l 1
 65 0 l 1
EndSplineSet
EndChar

StartChar: M
Encoding: 77 77 56
Width: 847
GlyphClass: 1
Flags: HW
LayerCount: 3
Fore
SplineSet
23 0 m 1
 189 720 l 1
 306 720 l 1
 386 31 l 1
 349 31 l 1
 745 720 l 1
 872 720 l 1
 706 0 l 1
 618 0 l 5
 771 663 l 5
 790 663 l 1
 408 0 l 1
 315 0 l 1
 238 659 l 1
 257 659 l 1
 105 0 l 1
 23 0 l 1
EndSplineSet
Substitution2: "'ss06' Style Set 6 in Latin lookup 27 subtable" M.ss06
Substitution2: "'aalt' Access All Alternates in Latin lookup 0 subtable" M.ss06
EndChar

StartChar: N
Encoding: 78 78 57
Width: 678
GlyphClass: 2
Flags: HW
AnchorPoint: "Anchor-2" 280 0 basechar 0
AnchorPoint: "Anchor-0" 437 720 basechar 0
LayerCount: 3
Fore
SplineSet
23 0 m 1
 189 720 l 1
 270 720 l 1
 496 114 l 1
 478 112 l 5
 618 720 l 5
 703 720 l 1
 537 0 l 1
 456 0 l 1
 230 606 l 1
 248 608 l 1
 108 0 l 1
 23 0 l 1
EndSplineSet
EndChar

StartChar: Eng
Encoding: 330 330 62
Width: 678
GlyphClass: 1
Flags: HW
LayerCount: 3
Fore
SplineSet
23 0 m 1
 189 720 l 1
 270 720 l 1
 508 114 l 1
 488 112 l 1
 628 720 l 1
 703 720 l 1
 537 0 l 1
 468 0 l 1
 230 606 l 1
 238 608 l 1
 98 0 l 1
 23 0 l 1
352 -215 m 0
 330.666666667 -215 314.5 -214 303.5 -212 c 128
 292.5 -210 284 -208 278 -206 c 1
 295 -137 l 1
 301 -139 309.333333333 -140.833333333 320 -142.5 c 128
 330.666666667 -144.166666667 344.333333333 -145 361 -145 c 0
 385 -145 403.333333333 -139 416 -127 c 128
 428.666666667 -115 438.333333333 -94.3333333333 445 -65 c 2
 467 30 l 1
 537 0 l 1
 521 -71 l 2
 511 -116.333333333 493.333333333 -151.666666667 468 -177 c 128
 442.666666667 -202.333333333 404 -215 352 -215 c 0
EndSplineSet
EndChar

StartChar: O
Encoding: 79 79 63
Width: 715
GlyphClass: 2
Flags: HW
AnchorPoint: "Anchor-3" 434 20 basechar 0
AnchorPoint: "Anchor-2" 300 0 basechar 0
AnchorPoint: "Anchor-1" 802 720 basechar 0
AnchorPoint: "Anchor-0" 465 720 basechar 0
LayerCount: 3
Fore
SplineSet
324 -10 m 4
 273.333333333 -10 228.833333333 2.33333333333 190.5 27 c 132
 152.166666667 51.6666666667 122.166666667 86 100.5 130 c 132
 78.8333333333 174 68 225 68 283 c 4
 68 343 77.8333333333 399.833333333 97.5 453.5 c 132
 117.166666667 507.166666667 144.166666667 554.833333333 178.5 596.5 c 132
 212.833333333 638.166666667 252.166666667 670.833333333 296.5 694.5 c 132
 340.833333333 718.166666667 388.333333333 730 439 730 c 4
 491 730 536.166666667 717.833333333 574.5 693.5 c 132
 612.833333333 669.166666667 642.666666667 635 664 591 c 132
 685.333333333 547 696 495.666666667 696 437 c 4
 696 377.666666667 686 321.166666667 666 267.5 c 132
 646 213.833333333 618.833333333 166.166666667 584.5 124.5 c 132
 550.166666667 82.8333333333 510.666666667 50 466 26 c 132
 421.333333333 2 374 -10 324 -10 c 4
331 62 m 4
 446.866947523 62 537.634765625 165.833984375 582 297 c 132
 597.333007812 342.333007812 605 390 605 440 c 4
 605 569.821289062 543.840873387 659 429 659 c 4
 319.025768028 659 227.728515625 561.69140625 182.5 425 c 132
 167.5 379.666992188 160 332 160 282 c 4
 160 156.546875 214.438077137 62 331 62 c 4
EndSplineSet
Substitution2: "Single Substitution lookup 17 subtable" ordmasculine
Substitution2: "'aalt' Access All Alternates in Latin lookup 0 subtable" ordmasculine
EndChar

StartChar: Oslash
Encoding: 216 216 70
Width: 715
GlyphClass: 2
Flags: HW
AnchorPoint: "Anchor-3" 434 20 basechar 0
AnchorPoint: "Anchor-2" 300 0 basechar 0
AnchorPoint: "Anchor-1" 802 720 basechar 0
AnchorPoint: "Anchor-0" 465 720 basechar 0
LayerCount: 3
Fore
SplineSet
101 -10 m 1
 53 27 l 1
 614 730 l 1
 662 693 l 1
 101 -10 l 1
324 -10 m 0
 273.333333333 -10 228.833333333 2.33333333333 190.5 27 c 128
 152.166666667 51.6666666667 122.166666667 86 100.5 130 c 128
 78.8333333333 174 68 225 68 283 c 0
 68 343 77.8333333333 399.833333333 97.5 453.5 c 128
 117.166666667 507.166666667 144.166666667 554.833333333 178.5 596.5 c 128
 212.833333333 638.166666667 252.166666667 670.833333333 296.5 694.5 c 128
 340.833333333 718.166666667 388.333333333 730 439 730 c 0
 491 730 536.166666667 717.833333333 574.5 693.5 c 128
 612.833333333 669.166666667 642.666666667 635 664 591 c 128
 685.333333333 547 696 495.666666667 696 437 c 0
 696 377.666666667 686 321.166666667 666 267.5 c 128
 646 213.833333333 618.833333333 166.166666667 584.5 124.5 c 128
 550.166666667 82.8333333333 510.666666667 50 466 26 c 128
 421.333333333 2 374 -10 324 -10 c 0
331 62 m 0
 368.333333333 62 404 72.1666666667 438 92.5 c 128
 472 112.833333333 502.333333333 140.666666667 529 176 c 128
 555.666666667 211.333333333 576.666666667 251.666666667 592 297 c 128
 607.333333333 342.333333333 615 390 615 440 c 0
 615 484 607.333333333 522.333333333 592 555 c 128
 576.666666667 587.666666667 555.166666667 613.166666667 527.5 631.5 c 128
 499.833333333 649.833333333 467 659 429 659 c 0
 392.333333333 659 357.166666667 648.833333333 323.5 628.5 c 128
 289.833333333 608.166666667 260 580.5 234 545.5 c 128
 208 510.5 187.5 470.333333333 172.5 425 c 128
 157.5 379.666666667 150 332 150 282 c 0
 150 238 157.5 199.333333333 172.5 166 c 128
 187.5 132.666666667 208.5 107 235.5 89 c 128
 262.5 71 294.333333333 62 331 62 c 0
EndSplineSet
EndChar

StartChar: OE
Encoding: 338 338 72
Width: 965
GlyphClass: 1
Flags: HW
LayerCount: 3
Fore
SplineSet
335 -10 m 0
 278.333333333 -10 230 2.5 190 27.5 c 128
 150 52.5 119.666666667 87.1666666667 99 131.5 c 128
 78.3333333333 175.833333333 68 227.333333333 68 286 c 0
 68 332.666666667 74.3333333333 378 87 422 c 128
 99.6666666667 466 118.166666667 506.5 142.5 543.5 c 128
 166.833333333 580.5 196.333333333 613.166666667 231 641.5 c 128
 265.666666667 669.833333333 305.333333333 691.666666667 350 707 c 128
 394.666666667 722.333333333 443.666666667 730 497 730 c 0
 519.666666667 730 542.333333333 728.666666667 565 726 c 128
 587.666666667 723.333333333 606 719 620 713 c 1
 602 632 l 1
 592.666666667 640 576.333333333 646.5 553 651.5 c 128
 529.666666667 656.5 505.333333333 659 480 659 c 0
 439.333333333 659 401.666666667 652.333333333 367 639 c 128
 332.333333333 625.666666667 301.666666667 607.333333333 275 584 c 128
 248.333333333 560.666666667 225.5 533.5 206.5 502.5 c 128
 187.5 471.5 173.166666667 437.833333333 163.5 401.5 c 128
 153.833333333 365.166666667 149 327.666666667 149 289 c 0
 149 220.333333333 165.5 165.333333333 198.5 124 c 128
 231.5 82.6666666667 281.333333333 62 348 62 c 0
 364 62 380.333333333 63.1666666667 397 65.5 c 128
 413.666666667 67.8333333333 429.166666667 70.8333333333 443.5 74.5 c 128
 457.833333333 78.1666666667 469 82.6666666667 477 88 c 1
 458 8 l 1
 439.333333333 1.33333333333 418.666666667 -3.33333333333 396 -6 c 128
 373.333333333 -8.66666666667 353 -10 335 -10 c 0
423 0 m 1
 589 720 l 1
 999 720 l 1
 983 651 l 1
 652 651 l 1
 596 410 l 1
 902 410 l 1
 887 340 l 1
 581 340 l 1
 518 70 l 1
 857 70 l 1
 841 0 l 1
 423 0 l 1
EndSplineSet
EndChar

StartChar: P
Encoding: 80 80 73
Width: 601
GlyphClass: 1
Flags: HW
LayerCount: 3
Fore
SplineSet
23 0 m 1
 189 720 l 1
 435 720 l 2
 472.333333333 720 504.833333333 712.333333333 532.5 697 c 128
 560.166666667 681.666666667 581.833333333 660.333333333 597.5 633 c 128
 613.166666667 605.666666667 621 573.666666667 621 537 c 0
 621 504.333333333 614.666666667 473.333333333 602 444 c 128
 589.333333333 414.666666667 561.833007812 389 539.5 367 c 132
 517.166992188 345 500.5 327.833333333 469.5 315.5 c 128
 438.5 303.166666667 404 297 366 297 c 2
 148 297 l 1
 164 367 l 1
 362 367 l 6
 388.666992188 367 412.333007812 371.5 433 380.5 c 132
 453.666992188 389.5 471.5 401.833007812 486.5 417.5 c 132
 501.5 433.166992188 512.666992188 451 520 471 c 132
 527.333007812 491 531 511.666992188 531 533 c 4
 531 567.666992188 521 596 501 618 c 132
 481 640 449 651 405 651 c 6
 262 651 l 1
 112 0 l 1
 23 0 l 1
EndSplineSet
EndChar

StartChar: Thorn
Encoding: 222 222 74
Width: 601
GlyphClass: 1
Flags: HW
LayerCount: 3
Fore
SplineSet
117 163 m 1
 133 232 l 1
 335 232 l 2
 371 232 402.166666667 239.166666667 428.5 253.5 c 128
 454.833333333 267.833333333 475 287.5 489 312.5 c 128
 503 337.5 510 365 510 395 c 0
 510 427 499.833333333 453.833333333 479.5 475.5 c 128
 459.166666667 497.166666667 427.333333333 508 384 508 c 2
 197 508 l 1
 212 578 l 1
 401 578 l 2
 439.666666667 578 472.833333333 570.333333333 500.5 555 c 128
 528.166666667 539.666666667 549.833333333 518.333333333 565.5 491 c 128
 581.166666667 463.666666667 589 432.333333333 589 397 c 0
 589 353.666666667 577.833333333 314.166666667 555.5 278.5 c 128
 533.166666667 242.833333333 502.666666667 214.666666667 464 194 c 128
 425.333333333 173.333333333 380.333333333 163 329 163 c 2
 117 163 l 1
23 0 m 1
 189 720 l 1
 268 720 l 1
 102 0 l 1
 23 0 l 1
EndSplineSet
EndChar

StartChar: Q
Encoding: 81 81 75
Width: 715
GlyphClass: 1
Flags: HW
LayerCount: 3
Fore
SplineSet
324 -10 m 4
 273.333333333 -10 228.833333333 2.33333333333 190.5 27 c 132
 152.166666667 51.6666666667 122.166666667 86 100.5 130 c 132
 78.8333333333 174 68 225 68 283 c 4
 68 343 77.8333333333 399.833333333 97.5 453.5 c 132
 117.166666667 507.166666667 144.166666667 554.833333333 178.5 596.5 c 132
 212.833333333 638.166666667 252.166666667 670.833333333 296.5 694.5 c 132
 340.833333333 718.166666667 388.333333333 730 439 730 c 4
 491 730 536.166666667 717.833333333 574.5 693.5 c 132
 612.833333333 669.166666667 642.666666667 635 664 591 c 132
 685.333333333 547 696 495.666666667 696 437 c 4
 696 377.666666667 686 321.166666667 666 267.5 c 132
 646 213.833333333 618.833333333 166.166666667 584.5 124.5 c 132
 550.166666667 82.8333333333 510.666666667 50 466 26 c 132
 421.333333333 2 374 -10 324 -10 c 4
331 62 m 4
 446.866947523 62 537.634765625 165.833984375 582 297 c 132
 597.333007812 342.333007812 605 390 605 440 c 4
 605 569.821289062 543.840873387 659 429 659 c 4
 319.025768028 659 227.728515625 561.69140625 182.5 425 c 132
 167.5 379.666992188 160 332 160 282 c 4
 160 156.546875 214.438077137 62 331 62 c 4
325 -10 m 1
 321 44 l 1
 688 84 l 1
 668 0 l 1
 631.333333333 0 594.5 -0.5 557.5 -1.5 c 128
 520.5 -2.5 491.333333333 -3.66666666667 470 -5 c 128
 448.666666667 -6.33333333333 426.833333333 -7.5 404.5 -8.5 c 128
 382.166666667 -9.5 355.666666667 -10 325 -10 c 1
EndSplineSet
Substitution2: "'ss09' Style Set 9 in Latin lookup 30 subtable" Q.ss09
Substitution2: "'aalt' Access All Alternates in Latin lookup 0 subtable" Q.ss09
EndChar

StartChar: R
Encoding: 65537 -1 76
Width: 601
GlyphClass: 2
Flags: HW
AnchorPoint: "Anchor-2" 241 0 basechar 0
AnchorPoint: "Anchor-0" 407 720 basechar 0
LayerCount: 3
Fore
SplineSet
23 0 m 1
 189 720 l 1
 424 720 l 2
 465.333333333 720 500 712.166666667 528 696.5 c 128
 556 680.833333333 577 659.333333333 591 632 c 128
 605 604.666666667 611.666666667 573.666666667 611 539 c 0
 610.333333333 497 599.333333333 459.166666667 578 425.5 c 128
 556.666666667 391.833333333 526.666666667 365.333333333 488 346 c 128
 449.333333333 326.666666667 403.333333333 317 350 317 c 2
 153 317 l 1
 170 387 l 1
 364 387 l 2
 398.666666667 387 428.5 393.333333333 453.5 406 c 128
 478.5 418.666666667 497.666666667 436.333333333 511 459 c 128
 524.333333333 481.666666667 531.333333333 507 532 535 c 0
 532.666666667 569 522.833333333 596.833333333 502.5 618.5 c 128
 482.166666667 640.166666667 450.333333333 651 407 651 c 2
 252 651 l 1
 102 0 l 1
 23 0 l 1
418 0 m 1
 155 361 l 1
 247 361 l 1
 521 0 l 1
 418 0 l 1
EndSplineSet
Substitution2: "'calt' Contextual Alternates in Latin lookup 26 subtable" R.ss05
Substitution2: "'aalt' Access All Alternates in Latin lookup 0 subtable" R.ss05
EndChar

StartChar: S
Encoding: 83 83 80
Width: 560
GlyphClass: 2
Flags: HW
AnchorPoint: "Anchor-2" 246 0 basechar 0
AnchorPoint: "Anchor-0" 372 720 basechar 0
LayerCount: 3
Fore
SplineSet
271 -9 m 0
 231.666666667 -9 196.833333333 -3 166.5 9 c 128
 136.166666667 21 111 38 91 60 c 128
 71 82 56.1666666667 107.5 46.5 136.5 c 128
 36.8333333333 165.5 32.6666666667 197.333333333 34 232 c 1
 121 232 l 1
 119.666992188 207.333007812 122.166992188 184.666992188 128.5 164 c 128
 134.833007812 143.333007812 144.833007812 125.166992188 158.5 109.5 c 128
 172.166992188 93.8330078125 189.666992188 81.6669921875 211 73 c 128
 232.333007812 64.3330078125 247.333333333 60 276 60 c 0
 322.666666667 60 358.833333333 71.3333333333 384.5 94 c 128
 410.166666667 116.666666667 423 148 423 188 c 0
 423 212.666666667 417.166666667 234 405.5 252 c 128
 393.833333333 270 375 286.666666667 349 302 c 2
 250 365 l 2
 209.333333333 389 179.333333333 414.166666667 160 440.5 c 128
 140.666666667 466.833333333 121 498 121 534 c 4
 121 573.333007812 130.833007812 607.833007812 150.5 637.5 c 132
 170.166992188 667.166992188 197.166992188 690.5 231.5 707.5 c 132
 265.833007812 724.5 315 733 359 733 c 0
 394.333333333 733 425 727.833333333 451 717.5 c 128
 477 707.166666667 498.5 692.166666667 515.5 672.5 c 128
 532.5 652.833333333 545.166666667 629.666666667 553.5 603 c 128
 561.833333333 576.333333333 565.333333333 546.666666667 564 514 c 1
 478 514 l 1
 479.333007812 544.666992188 475.333007812 571.166992188 466 593.5 c 128
 456.666992188 615.833007812 441.666992188 633.166992188 421 645.5 c 128
 400.333007812 657.833007812 383.666666667 664 351 664 c 0
 321.666666667 664 296.5 659 275.5 649 c 128
 254.5 639 238.333333333 625.166666667 227 607.5 c 128
 215.666666667 589.833333333 210 568.666666667 210 544 c 0
 210 522 216 502.333333333 228 485 c 128
 240 467.666666667 259.666666667 451 287 435 c 2
 391 371 l 2
 428.333333333 349 466 324 484 296 c 128
 502 268 511 235 511 197 c 0
 511 155 501.5 118.666992188 482.5 88 c 128
 463.5 57.3330078125 436.833007812 33.5 402.5 16.5 c 128
 368.166992188 -0.5 317.666666667 -9 271 -9 c 0
EndSplineSet
EndChar

StartChar: uni1E9E
Encoding: 7838 7838 85
Width: 655
GlyphClass: 1
Flags: HW
LayerCount: 3
Fore
SplineSet
367 -13 m 0
 347.666666667 -13 327.666666667 -11.5 307 -8.5 c 128
 286.333333333 -5.5 267 -1.5 249 3.5 c 128
 231 8.5 216 14 204 20 c 1
 221 93 l 1
 239 83 262 74.5 290 67.5 c 128
 318 60.5 344.333333333 57 369 57 c 0
 399.666666667 57 426 63 448 75 c 128
 470 87 487 103.666666667 499 125 c 128
 511 146.333333333 517 171.333333333 517 200 c 0
 517 233.333333333 506.5 262.666666667 485.5 288 c 128
 464.5 313.333333333 428.666666667 339 378 365 c 2
 355 378 l 1
 617 625 l 1
 605 567 l 1
 588.333333333 597 563.833333333 620.333333333 531.5 637 c 128
 499.166666667 653.666666667 462 662 420 662 c 0
 310 662 240.666666667 599.333333333 212 474 c 2
 103 0 l 1
 24 0 l 1
 134 481 l 2
 153.333333333 564.333333333 187.5 626.833333333 236.5 668.5 c 128
 285.5 710.166666667 350 731 430 731 c 0
 486.666666667 731 536.666666667 720 580 698 c 128
 623.333333333 676 660 642.333333333 690 597 c 1
 443 364 l 1
 429 424 l 1
 486.333333333 395.333333333 528.666666667 362.5 556 325.5 c 128
 583.333333333 288.5 597 247.333333333 597 202 c 0
 597 159.333333333 587.333333333 122 568 90 c 128
 548.666666667 58 521.833333333 32.8333333333 487.5 14.5 c 128
 453.166666667 -3.83333333333 413 -13 367 -13 c 0
EndSplineSet
EndChar

StartChar: T
Encoding: 84 84 86
Width: 590
GlyphClass: 2
Flags: HW
AnchorPoint: "Anchor-2" 236 0 basechar 0
AnchorPoint: "Anchor-0" 402 720 basechar 0
LayerCount: 3
Fore
SplineSet
191 0 m 1
 341 651 l 1
 123 651 l 1
 139 720 l 1
 666 720 l 1
 649 651 l 1
 430 651 l 5
 280 0 l 5
 191 0 l 1
EndSplineSet
EndChar

StartChar: U
Encoding: 85 85 89
Width: 653
GlyphClass: 2
Flags: HW
AnchorPoint: "Anchor-3" 400 20 basechar 0
AnchorPoint: "Anchor-2" 268 0 basechar 0
AnchorPoint: "Anchor-1" 740 720 basechar 0
AnchorPoint: "Anchor-0" 434 720 basechar 0
LayerCount: 3
Fore
SplineSet
296 -10 m 0
 239.333333333 -10 192.833333333 2.5 156.5 27.5 c 128
 120.166666667 52.5 95.6666666667 87.8333333333 83 133.5 c 128
 70.3333333333 179.166666667 71 232.333333333 85 293 c 2
 183 720 l 1
 272 720 l 1
 171 281 l 2
 155.865234375 217.43359375 126.772786925 62 302 62 c 0
 369.250574686 62 449.686523438 95.08984375 485 244 c 5
 595 720 l 5
 684 720 l 1
 574 240 l 2
 554.666666667 158.666666667 521.666666667 96.6666666667 475 54 c 128
 428.333333333 11.3333333333 368.666666667 -10 296 -10 c 0
EndSplineSet
EndChar

StartChar: V
Encoding: 86 86 99
Width: 658
GlyphClass: 1
Flags: HW
LayerCount: 3
Fore
SplineSet
221 0 m 1
 140 720 l 1
 230 720 l 1
 302 40 l 1
 254 40 l 5
 637 720 l 5
 732 720 l 1
 319 0 l 1
 221 0 l 1
EndSplineSet
EndChar

StartChar: W
Encoding: 87 87 100
Width: 957
GlyphClass: 2
Flags: HW
AnchorPoint: "Anchor-2" 420 0 basechar 0
AnchorPoint: "Anchor-0" 586 720 basechar 0
LayerCount: 3
Fore
SplineSet
165 0 m 1
 146 720 l 1
 234 720 l 1
 247 62 l 1
 221 62 l 1
 534 720 l 1
 635 720 l 1
 646 62 l 1
 620 62 l 5
 936 720 l 5
 1026 720 l 1
 675 0 l 1
 577 0 l 1
 561 638 l 1
 572 638 l 1
 262 0 l 1
 165 0 l 1
EndSplineSet
EndChar

StartChar: X
Encoding: 88 88 105
Width: 627
GlyphClass: 1
Flags: HW
LayerCount: 3
Fore
SplineSet
447 0 m 1
 313 339 l 1
 157 720 l 1
 253 720 l 1
 378 405 l 1
 543 0 l 1
 447 0 l 1
332 405 m 1
 604 720 l 1
 706 720 l 5
 374 335 l 5
 332 405 l 1
360 332 m 5
 78 0 l 5
 -25 0 l 1
 319 402 l 1
 360 332 l 5
EndSplineSet
EndChar

StartChar: Y
Encoding: 89 89 106
Width: 620
GlyphClass: 2
Flags: HW
AnchorPoint: "Anchor-2" 251 0 basechar 0
AnchorPoint: "Anchor-0" 417 720 basechar 0
LayerCount: 3
Fore
SplineSet
212 0 m 1
 287 329 l 1
 128 720 l 1
 225 720 l 5
 362 377 l 5
 316 377 l 1
 611 720 l 1
 716 720 l 5
 376 329 l 5
 301 0 l 5
 212 0 l 1
EndSplineSet
EndChar

StartChar: Z
Encoding: 90 90 111
Width: 580
GlyphClass: 2
Flags: HWO
AnchorPoint: "Anchor-2" 232 0 basechar 0
AnchorPoint: "Anchor-0" 398 720 basechar 0
LayerCount: 3
Fore
SplineSet
2 0 m 1
 15 60 l 1
 534 689 l 1
 561 651 l 1
 161 651 l 1
 178 720 l 1
 634 720 l 5
 619 661 l 5
 101 31 l 5
 64 70 l 1
 493 70 l 5
 476 0 l 5
 2 0 l 1
EndSplineSet
EndChar

StartChar: K.ss04
Encoding: 65559 -1 133
Width: 636
GlyphClass: 2
Flags: HW
AnchorPoint: "Anchor-2" 271 0 basechar 0
AnchorPoint: "Anchor-0" 425 720 basechar 0
LayerCount: 3
Fore
SplineSet
23 0 m 1
 189 720 l 1
 268 720 l 1
 102 0 l 1
 23 0 l 1
91 257 m 1
 589 720 l 1
 701 720 l 1
 344 395 l 1
 326 386 l 1
 114 192 l 1
 91 257 l 1
464 0 m 1
 282 412 l 1
 363 416 l 1
 555 0 l 1
 464 0 l 1
EndSplineSet
EndChar

StartChar: R.ss05
Encoding: 82 82 135
Width: 594
GlyphClass: 2
Flags: HW
AnchorPoint: "Anchor-2" 248 0 basechar 0
AnchorPoint: "Anchor-0" 407 720 basechar 0
LayerCount: 3
Fore
SplineSet
23 0 m 1
 189 720 l 1
 422 720 l 2
 461.333333333 720 495 713.333333333 523 700 c 128
 551 686.666666667 572.166666667 667.666666667 586.5 643 c 128
 600.833333333 618.333333333 608 588.666666667 608 554 c 0
 608 516.666666667 599.166666667 482.333333333 581.5 451 c 128
 563.833333333 419.666666667 539 393.666666667 507 373 c 128
 475 352.333333333 437 339 393 333 c 1
 396 358 l 1
 437.333333333 354.666666667 466.666666667 344.666666667 484 328 c 0
 503.311651091 310.020186916 514.311651091 264.353520249 517 191 c 2
 524 0 l 1
 425 0 l 5
 426 183 l 6
 426.666992188 245.666992188 417.5 284.833007812 398.5 300.5 c 4
 382.166992188 314.166992188 358 321 326 321 c 6
 154 321 l 1
 170 387 l 1
 361 387 l 6
 391.666992188 387 418.833007812 393.833007812 442.5 407.5 c 132
 466.166992188 421.166992188 484.666992188 439.666992188 498 463 c 132
 511.333007812 486.333007812 518 512 518 540 c 4
 518 573.333007812 516.833333333 600.166666667 494.5 620.5 c 128
 472.166666667 640.833333333 431.666992188 651 393 651 c 6
 262 651 l 1
 112 0 l 1
 23 0 l 1
EndSplineSet
EndChar

StartChar: M.ss06
Encoding: 65561 -1 139
Width: 826
GlyphClass: 1
Flags: HW
LayerCount: 3
Fore
SplineSet
3 0 m 1
 230 720 l 1
 340 720 l 1
 372 31 l 1
 344 31 l 1
 693 720 l 1
 809 720 l 1
 705 0 l 1
 626 0 l 1
 720 663 l 1
 741 663 l 1
 407 0 l 1
 297 0 l 1
 268 659 l 1
 289 659 l 1
 78 0 l 1
 3 0 l 1
EndSplineSet
EndChar

StartChar: G.ss07
Encoding: 65562 -1 140
Width: 692
GlyphClass: 2
Flags: HW
AnchorPoint: "Anchor-2" 329 0 basechar 0
AnchorPoint: "Anchor-0" 434 720 basechar 0
LayerCount: 3
Fore
SplineSet
334 -10 m 0
 278.666666667 -10 231 1.66666666667 191 25 c 128
 151 48.3333333333 120.166666667 81.3333333333 98.5 124 c 128
 76.8333333333 166.666666667 66 216.666666667 66 274 c 0
 66 310 70 346.166666667 78 382.5 c 128
 86 418.833333333 97.8333333333 454 113.5 488 c 128
 129.166666667 522 148 553.5 170 582.5 c 128
 192 611.5 216.833333333 636.833333333 244.5 658.5 c 128
 272.166666667 680.166666667 302.333333333 697.166666667 335 709.5 c 128
 367.666666667 721.833333333 402 728 438 728 c 0
 476 728 510.666666667 721.666666667 542 709 c 128
 573.333333333 696.333333333 600 678.833333333 622 656.5 c 128
 644 634.166666667 660.5 608.666666667 671.5 580 c 128
 682.5 551.333333333 687 521.666666667 685 491 c 1
 607 491 l 1
 608.333333333 512.333333333 605.166666667 532.833333333 597.5 552.5 c 128
 589.833333333 572.166666667 578.166666667 589.833333333 562.5 605.5 c 128
 546.833333333 621.166666667 528 633.666666667 506 643 c 128
 484 652.333333333 459.333333333 657 432 657 c 256
 404.666666667 657 378.5 651.666666667 353.5 641 c 128
 328.5 630.333333333 305.333333333 615.833333333 284 597.5 c 128
 262.666666667 579.166666667 243.5 557.666666667 226.5 533 c 128
 209.5 508.333333333 195 481.833333333 183 453.5 c 128
 171 425.166666667 161.833333333 396 155.5 366 c 128
 149.166666667 336 146 306.333333333 146 277 c 0
 146 209 163.166666667 156.166666667 197.5 118.5 c 128
 231.833333333 80.8333333333 279.333333333 62 340 62 c 0
 382.666666667 62 420 71.6666666667 452 91 c 128
 484 110.333333333 511.166666667 140.833333333 533.5 182.5 c 128
 555.833333333 224.166666667 573.666666667 277.333333333 587 342 c 1
 662 333 l 1
 645.333333333 256.333333333 621.833333333 192.5 591.5 141.5 c 128
 561.166666667 90.5 524.666666667 52.5 482 27.5 c 128
 439.333333333 2.5 390 -10 334 -10 c 0
599 302 m 1
 390 302 l 1
 406 371 l 1
 670 371 l 1
 662 333 l 1
 599 302 l 1
EndSplineSet
EndChar

StartChar: J.ss08
Encoding: 65566 -1 144
Width: 574
GlyphClass: 1
Flags: HW
LayerCount: 3
Fore
SplineSet
240 -10 m 0
 205.333333333 -10 174.666666667 -4.33333333333 148 7 c 128
 121.333333333 18.3333333333 99.5 34.5 82.5 55.5 c 128
 65.5 76.5 54 100.833333333 48 128.5 c 128
 42 156.166666667 42 186.333333333 48 219 c 1
 125 219 l 1
 118.333333333 189 119.166666667 162 127.5 138 c 128
 135.833333333 114 150 95.3333333333 170 82 c 128
 190 68.6666666667 215 62 245 62 c 0
 287.666666667 62 323 75.5 351 102.5 c 128
 379 129.5 399.333333333 170.333333333 412 225 c 2
 526 720 l 1
 605 720 l 1
 487 210 l 2
 469.666666667 137.333333333 440.166666667 82.5 398.5 45.5 c 128
 356.833333333 8.5 304 -10 240 -10 c 0
EndSplineSet
EndChar

StartChar: Q.ss09
Encoding: 65567 -1 145
Width: 715
GlyphClass: 1
Flags: HW
LayerCount: 3
Fore
SplineSet
325 -10 m 0
 274.333333333 -10 229.666666667 2.33333333333 191 27 c 128
 152.333333333 51.6666666667 122.166666667 86 100.5 130 c 128
 78.8333333333 174 68 225 68 283 c 0
 68 343 77.8333333333 399.833333333 97.5 453.5 c 128
 117.166666667 507.166666667 144.166666667 554.833333333 178.5 596.5 c 128
 212.833333333 638.166666667 252.333333333 670.833333333 297 694.5 c 128
 341.666666667 718.166666667 389.333333333 730 440 730 c 256
 490.666666667 730 535.166666667 717.833333333 573.5 693.5 c 128
 611.833333333 669.166666667 641.833333333 635 663.5 591 c 128
 685.166666667 547 696 495.666666667 696 437 c 0
 696 377.666666667 686 321.166666667 666 267.5 c 128
 646 213.833333333 618.833333333 166.166666667 584.5 124.5 c 128
 550.166666667 82.8333333333 510.666666667 50 466 26 c 128
 421.333333333 2 374.333333333 -10 325 -10 c 0
332 62 m 0
 369.333333333 62 404.833333333 72.1666666667 438.5 92.5 c 128
 472.166666667 112.833333333 502.333333333 140.666666667 529 176 c 128
 555.666666667 211.333333333 576.666666667 251.666666667 592 297 c 128
 607.333333333 342.333333333 615 390 615 440 c 0
 615 484 607.333333333 522.333333333 592 555 c 128
 576.666666667 587.666666667 555.166666667 613.166666667 527.5 631.5 c 128
 499.833333333 649.833333333 467.333333333 659 430 659 c 256
 392.666666667 659 357.166666667 648.833333333 323.5 628.5 c 128
 289.833333333 608.166666667 260 580.5 234 545.5 c 128
 208 510.5 187.5 470.333333333 172.5 425 c 128
 157.5 379.666666667 150 332 150 282 c 0
 150 238 157.5 199.333333333 172.5 166 c 128
 187.5 132.666666667 208.666666667 107 236 89 c 128
 263.333333333 71 295.333333333 62 332 62 c 0
353 225 m 1
 420 249 l 1
 534 -81 l 1
 467 -105 l 1
 353 225 l 1
EndSplineSet
EndChar

StartChar: a
Encoding: 65572 -1 150
Width: 497
GlyphClass: 2
Flags: HW
AnchorPoint: "Anchor-3" 382 0 basechar 0
AnchorPoint: "Anchor-2" 194 0 basechar 0
AnchorPoint: "Anchor-0" 302 510 basechar 0
LayerCount: 3
Fore
SplineSet
305 0 m 1
 304.333333333 8 305.166666667 19.1666666667 307.5 33.5 c 128
 309.833333333 47.8333333333 313 64 317 82 c 1
 311 83 l 1
 370 337 l 2
 374.666666667 357 375.5 376 372.5 394 c 128
 369.5 412 361 426.5 347 437.5 c 128
 333 448.5 311 454 281 454 c 0
 247 454 219.833333333 446.166666667 199.5 430.5 c 128
 179.166666667 414.833333333 164.666666667 392 156 362 c 1
 84 362 l 1
 96.6666666667 413.333333333 120.833333333 452.5 156.5 479.5 c 128
 192.166666667 506.5 237.666666667 520 293 520 c 0
 340.333333333 520 376.166666667 510.833333333 400.5 492.5 c 128
 424.833333333 474.166666667 440 450.5 446 421.5 c 128
 452 392.5 451.333333333 361.666666667 444 329 c 2
 387 83 l 2
 384.333333333 69.6666666667 382 55.5 380 40.5 c 128
 378 25.5 377.333333333 12 378 0 c 1
 305 0 l 1
158 -10 m 0
 115.333333333 -10 81.3333333333 1.66666666667 56 25 c 128
 30.6666666667 48.3333333333 18 79.3333333333 18 118 c 0
 18 148.666666667 25.5 175.333333333 40.5 198 c 128
 55.5 220.666666667 77.5 239.666666667 106.5 255 c 128
 135.5 270.333333333 171.666666667 281.333333333 215 288 c 2
 382 315 l 1
 368 251 l 1
 217 228 l 2
 175 221.333333333 144 209.333333333 124 192 c 128
 104 174.666666667 94 152 94 124 c 0
 94 101.333333333 101.333333333 84.3333333333 116 73 c 128
 130.666666667 61.6666666667 152 56 180 56 c 0
 217.333333333 56 249.666666667 65.5 277 84.5 c 128
 304.333333333 103.5 322 129.666666667 330 163 c 1
 326 88 l 1
 308 56.6666666667 284.5 32.5 255.5 15.5 c 128
 226.5 -1.5 194 -10 158 -10 c 0
EndSplineSet
Substitution2: "'calt' Contextual Alternates in Latin lookup 23 subtable" a.ss02
Substitution2: "Single Substitution lookup 17 subtable" ordfeminine
AlternateSubs2: "'aalt' Access All Alternates in Latin lookup 1 subtable" a.ss02 ordfeminine
EndChar

StartChar: ae
Encoding: 230 230 161
Width: 803
GlyphClass: 1
Flags: HW
LayerCount: 3
Fore
SplineSet
321 125 m 1
 370 337 l 2
 374.666666667 357 375.5 376 372.5 394 c 128
 369.5 412 361 426.5 347 437.5 c 128
 333 448.5 311 454 281 454 c 0
 247 454 219.833333333 446.166666667 199.5 430.5 c 128
 179.166666667 414.833333333 164.666666667 392 156 362 c 1
 84 362 l 1
 96.6666666667 413.333333333 120.833333333 452.5 156.5 479.5 c 128
 192.166666667 506.5 237.666666667 520 293 520 c 0
 340.333333333 520 376.166666667 510.833333333 400.5 492.5 c 128
 424.833333333 474.166666667 440 450.5 446 421.5 c 128
 452 392.5 451.333333333 361.666666667 444 329 c 2
 396 124 l 1
 321 125 l 1
161 -10 m 0
 117.666666667 -10 83 1.66666666667 57 25 c 128
 31 48.3333333333 18 79.3333333333 18 118 c 0
 18 148.666666667 25.5 175.333333333 40.5 198 c 128
 55.5 220.666666667 77.5 239.666666667 106.5 255 c 128
 135.5 270.333333333 171.666666667 281.333333333 215 288 c 2
 382 315 l 1
 368 251 l 1
 217 228 l 2
 175 221.333333333 144 209.333333333 124 192 c 128
 104 174.666666667 94 152 94 124 c 0
 94 101.333333333 101.333333333 84.3333333333 116 73 c 128
 130.666666667 61.6666666667 152 56 180 56 c 0
 217.333333333 56 249.666666667 65.5 277 84.5 c 128
 304.333333333 103.5 322 129.333333333 330 162 c 1
 379 129 l 1
 351.666666667 80.3333333333 319.5 45 282.5 23 c 128
 245.5 1 205 -10 161 -10 c 0
528 -10 m 0
 491.333333333 -10 459.5 -1.33333333333 432.5 16 c 128
 405.5 33.3333333333 384.666666667 57.8333333333 370 89.5 c 128
 355.333333333 121.166666667 348 158.333333333 348 201 c 0
 348 232.333333333 351.833333333 263.333333333 359.5 294 c 128
 367.166666667 324.666666667 378.666666667 353.5 394 380.5 c 128
 409.333333333 407.5 427.5 431.5 448.5 452.5 c 128
 469.5 473.5 493.166666667 490 519.5 502 c 128
 545.833333333 514 574.333333333 520 605 520 c 0
 640.333333333 520 670.5 512.333333333 695.5 497 c 128
 720.5 481.666666667 739.833333333 460 753.5 432 c 128
 767.166666667 404 774 371 774 333 c 0
 774 315.666666667 772.333333333 298.166666667 769 280.5 c 128
 765.666666667 262.833333333 761 247 755 233 c 1
 408 233 l 1
 422 298 l 1
 723 298 l 1
 688 245 l 1
 694 268.333333333 697.666666667 292.166666667 699 316.5 c 128
 700.333333333 340.833333333 698.333333333 363.333333333 693 384 c 128
 687.666666667 404.666666667 677.666666667 421.5 663 434.5 c 128
 648.333333333 447.5 627.666666667 454 601 454 c 0
 579.666666667 454 560.166666667 449 542.5 439 c 128
 524.833333333 429 508.833333333 415.666666667 494.5 399 c 128
 480.166666667 382.333333333 468 363.166666667 458 341.5 c 128
 448 319.833333333 440.333333333 297 435 273 c 128
 429.666666667 249 427 225.333333333 427 202 c 0
 427 156 436.666666667 120.166666667 456 94.5 c 128
 475.333333333 68.8333333333 502.666666667 56 538 56 c 0
 563.333333333 56 586.166666667 63.5 606.5 78.5 c 128
 626.833333333 93.5 642.333333333 116 653 146 c 1
 726 146 l 1
 706.666666667 94 679.666666667 55 645 29 c 128
 610.333333333 3 571.333333333 -10 528 -10 c 0
EndSplineSet
EndChar

StartChar: b
Encoding: 98 98 162
Width: 567
GlyphClass: 1
Flags: HW
LayerCount: 3
Fore
SplineSet
267 -9 m 0
 235.666666667 -9 208.333333333 -2.83333333333 185 9.5 c 128
 161.666666667 21.8333333333 143.666666667 39.1666666667 131 61.5 c 128
 118.333333333 83.8333333333 112 109.333333333 112 138 c 1
 122 141 l 1
 88 0 l 1
 17 0 l 1
 183 720 l 1
 260 720 l 1
 188 411 l 1
 180 416 l 1
 198 449.333333333 222.666666667 475 254 493 c 128
 285.333333333 511 319.666666667 520 357 520 c 0
 411 520 453.333333333 502 484 466 c 128
 514.666666667 430 530 381 530 319 c 0
 530 274.333333333 523.166666667 232.166666667 509.5 192.5 c 128
 495.833333333 152.833333333 476.833333333 118 452.5 88 c 128
 428.166666667 58 400.166666667 34.3333333333 368.5 17 c 128
 336.833333333 -0.333333333333 303 -9 267 -9 c 0
263 59 m 0
 289.666666667 59 314.333333333 65.5 337 78.5 c 128
 359.666666667 91.5 379.5 109.5 396.5 132.5 c 128
 413.5 155.5 426.833333333 182.166666667 436.5 212.5 c 128
 446.166666667 242.833333333 451 274.666666667 451 308 c 0
 451 353.333333333 440.666666667 388.666666667 420 414 c 128
 399.333333333 439.333333333 370.333333333 452 333 452 c 0
 310.333333333 452 289.333333333 447.166666667 270 437.5 c 128
 250.666666667 427.833333333 233.166666667 414.666666667 217.5 398 c 128
 201.833333333 381.333333333 188.333333333 362.166666667 177 340.5 c 128
 165.666666667 318.833333333 157 296.166666667 151 272.5 c 128
 145 248.833333333 142 225.666666667 142 203 c 0
 142 157.666666667 153.166666667 122.333333333 175.5 97 c 128
 197.833333333 71.6666666667 227 59 263 59 c 0
EndSplineSet
EndChar

StartChar: c
Encoding: 99 99 163
Width: 496
GlyphClass: 2
Flags: HW
AnchorPoint: "Anchor-2" 201 0 basechar 0
AnchorPoint: "Anchor-0" 322 510 basechar 0
LayerCount: 3
Fore
SplineSet
218 -11 m 0
 180.666666667 -11 148.5 -2.5 121.5 14.5 c 128
 94.5 31.5 73.5 55.8333333333 58.5 87.5 c 128
 43.5 119.166666667 36 156.333333333 36 199 c 0
 36 234.333333333 40.5 267.666666667 49.5 299 c 128
 58.5 330.333333333 71.3333333333 359.5 88 386.5 c 128
 104.666666667 413.5 124.333333333 436.833333333 147 456.5 c 128
 169.666666667 476.166666667 194.666666667 491.5 222 502.5 c 128
 249.333333333 513.5 278.333333333 519 309 519 c 0
 336.333333333 519 360.5 514.166666667 381.5 504.5 c 128
 402.5 494.833333333 420.333333333 481.5 435 464.5 c 128
 449.666666667 447.5 460.666666667 428 468 406 c 128
 475.333333333 384 478.333333333 361 477 337 c 1
 397.60546875 337.16796875 l 5
 398.53515625 358.389322917 395.18359375 377.770833333 387.55078125 395.3125 c 4
 380.516927083 412.4375 369.665364583 426.47265625 354.99609375 437.41796875 c 4
 340.33203125 447.805989583 321.980143229 453.15234375 299.940429688 453.45703125 c 4
 279.313476563 453.15234375 260.00390625 448.808268229 242.01171875 440.424804688 c 4
 224.00390625 431.474934896 207.407226563 419.110677083 192.221679688 403.33203125 c 4
 177.407226563 387.110677083 164.480794271 368.397460937 153.442382812 347.192382812 c 4
 142.480794271 325.730794271 134.182617187 302.172200521 128.547851562 276.516601562 c 132
 122.849283854 250.838867187 119.9765625 224.272460937 119.9296875 196.817382812 c 4
 119.9765625 151.605794271 129.072916667 116.518229167 147.21875 91.5546875 c 4
 165.739583333 66.5182291667 191.751627604 54.154296875 225.254882812 54.462890625 c 4
 257.084960937 54.154296875 285.331380208 64.6803385417 309.994140625 86.041015625 c 132
 334.664713542 107.347005208 352.697591146 136.252604167 364.092773438 172.7578125 c 5
 442 173 l 1
 424.666666667 117 396.166666667 72.3333333333 356.5 39 c 128
 316.833333333 5.66666666667 270.666666667 -11 218 -11 c 0
EndSplineSet
EndChar

StartChar: d
Encoding: 100 100 168
Width: 567
GlyphClass: 2
Flags: HW
AnchorPoint: "Anchor-2" 224 0 basechar 0
AnchorPoint: "Anchor-1" 663 720 basechar 0
AnchorPoint: "Anchor-0" 393 735 basechar 0
LayerCount: 3
Fore
SplineSet
360 0 m 1
 383 100 l 1
 387 95 l 1
 369 61 344.5 35 313.5 17 c 128
 282.5 -1 248 -10 210 -10 c 0
 156 -10 113.666666667 8.16666666667 83 44.5 c 128
 52.3333333333 80.8333333333 37 129.666666667 37 191 c 0
 37 235.666666667 43.8333333333 277.833333333 57.5 317.5 c 128
 71.1666666667 357.166666667 90.1666666667 392 114.5 422 c 128
 138.833333333 452 166.666666667 475.666666667 198 493 c 128
 229.333333333 510.333333333 263 519 299 519 c 0
 330.333333333 519 357.666666667 512.833333333 381 500.5 c 128
 404.333333333 488.166666667 422.666666667 471 436 449 c 128
 449.333333333 427 455.666666667 401.333333333 455 372 c 1
 439 370 l 1
 521 720 l 1
 598 720 l 1
 432 0 l 1
 360 0 l 1
234 58 m 0
 256 58 276.833333333 62.8333333333 296.5 72.5 c 128
 316.166666667 82.1666666667 333.666666667 95.3333333333 349 112 c 128
 364.333333333 128.666666667 377.833333333 147.833333333 389.5 169.5 c 128
 401.166666667 191.166666667 409.833333333 213.833333333 415.5 237.5 c 128
 421.166666667 261.166666667 424 284.333333333 424 307 c 0
 424 352.333333333 413.166666667 387.666666667 391.5 413 c 128
 369.833333333 438.333333333 340.333333333 451 303 451 c 0
 267.666666667 451 235.833333333 439.833333333 207.5 417.5 c 128
 179.166666667 395.166666667 156.833333333 365.333333333 140.5 328 c 128
 124.166666667 290.666666667 116 249.333333333 116 204 c 0
 116 159.333333333 126.333333333 123.833333333 147 97.5 c 128
 167.666666667 71.1666666667 196.666666667 58 234 58 c 0
EndSplineSet
EndChar

StartChar: eth
Encoding: 240 240 169
Width: 552
GlyphClass: 1
Flags: HW
LayerCount: 3
Fore
SplineSet
231 -9 m 0
 195 -9 161.833333333 -1.5 131.5 13.5 c 128
 101.166666667 28.5 77 51 59 81 c 128
 41 111 32 148.666666667 32 194 c 0
 32 222.666666667 36 251.5 44 280.5 c 128
 52 309.5 63.6666666667 337.166666667 79 363.5 c 128
 94.3333333333 389.833333333 112.666666667 413.166666667 134 433.5 c 128
 155.333333333 453.833333333 179.333333333 469.833333333 206 481.5 c 128
 232.666666667 493.166666667 261.333333333 499 292 499 c 0
 327.333333333 499 358.333333333 491.833333333 385 477.5 c 128
 411.666666667 463.166666667 432.333333333 443.166666667 447 417.5 c 128
 461.666666667 391.833333333 468.333333333 362.666666667 467 330 c 1
 439 292 l 1
 450 343 l 2
 460.666666667 387.666666667 463.833333333 429.166666667 459.5 467.5 c 128
 455.166666667 505.833333333 442.5 539.833333333 421.5 569.5 c 128
 400.5 599.166666667 371 622.5 333 639.5 c 128
 295 656.5 248 666 192 668 c 1
 217 730 l 1
 287 727.333333333 345.5 713.5 392.5 688.5 c 128
 439.5 663.5 475.166666667 628.833333333 499.5 584.5 c 128
 523.833333333 540.166666667 536 487.666666667 536 427 c 0
 536 394.333333333 532.333333333 358.5 525 319.5 c 128
 517.666666667 280.5 506.166666667 241.666666667 490.5 203 c 128
 474.833333333 164.333333333 455.166666667 129 431.5 97 c 128
 407.833333333 65 379.333333333 39.3333333333 346 20 c 128
 312.666666667 0.666666666667 274.333333333 -9 231 -9 c 0
236 61 m 0
 259.333333333 61 280.833333333 65.8333333333 300.5 75.5 c 128
 320.166666667 85.1666666667 337.666666667 98.1666666667 353 114.5 c 128
 368.333333333 130.833333333 381 149 391 169 c 128
 401 189 408.666666667 209.666666667 414 231 c 128
 419.333333333 252.333333333 422 273 422 293 c 0
 422 322.333333333 416.166666667 347.333333333 404.5 368 c 128
 392.833333333 388.666666667 377.166666667 404.333333333 357.5 415 c 128
 337.833333333 425.666666667 315.333333333 431 290 431 c 0
 264 431 241.166666667 425.666666667 221.5 415 c 128
 201.833333333 404.333333333 185 390.333333333 171 373 c 128
 157 355.666666667 145.5 336.5 136.5 315.5 c 128
 127.5 294.5 121 273.5 117 252.5 c 128
 113 231.5 111 212.333333333 111 195 c 0
 111 150.333333333 123 116.833333333 147 94.5 c 128
 171 72.1666666667 200.666666667 61 236 61 c 0
243 541 m 1
 223 591 l 1
 523 738 l 1
 542 689 l 1
 243 541 l 1
EndSplineSet
EndChar

StartChar: dcroat
Encoding: 273 273 171
Width: 567
GlyphClass: 2
Flags: HW
AnchorPoint: "Anchor-2" 224 0 basechar 0
AnchorPoint: "Anchor-1" 663 720 basechar 0
AnchorPoint: "Anchor-0" 393 735 basechar 0
LayerCount: 3
Fore
SplineSet
327 595 m 1
 340 651 l 1
 658 651 l 1
 645 595 l 1
 327 595 l 1
360 0 m 1
 383 100 l 1
 387 95 l 1
 369 61 344.5 35 313.5 17 c 128
 282.5 -1 248 -10 210 -10 c 0
 156 -10 113.666666667 8.16666666667 83 44.5 c 128
 52.3333333333 80.8333333333 37 129.666666667 37 191 c 0
 37 235.666666667 43.8333333333 277.833333333 57.5 317.5 c 128
 71.1666666667 357.166666667 90.1666666667 392 114.5 422 c 128
 138.833333333 452 166.666666667 475.666666667 198 493 c 128
 229.333333333 510.333333333 263 519 299 519 c 0
 330.333333333 519 357.666666667 512.833333333 381 500.5 c 128
 404.333333333 488.166666667 422.666666667 471 436 449 c 128
 449.333333333 427 455.666666667 401.333333333 455 372 c 1
 439 370 l 1
 521 720 l 1
 598 720 l 1
 432 0 l 1
 360 0 l 1
234 58 m 0
 256 58 276.833333333 62.8333333333 296.5 72.5 c 128
 316.166666667 82.1666666667 333.666666667 95.3333333333 349 112 c 128
 364.333333333 128.666666667 377.833333333 147.833333333 389.5 169.5 c 128
 401.166666667 191.166666667 409.833333333 213.833333333 415.5 237.5 c 128
 421.166666667 261.166666667 424 284.333333333 424 307 c 0
 424 352.333333333 413.166666667 387.666666667 391.5 413 c 128
 369.833333333 438.333333333 340.333333333 451 303 451 c 0
 267.666666667 451 235.833333333 439.833333333 207.5 417.5 c 128
 179.166666667 395.166666667 156.833333333 365.333333333 140.5 328 c 128
 124.166666667 290.666666667 116 249.333333333 116 204 c 0
 116 159.333333333 126.333333333 123.833333333 147 97.5 c 128
 167.666666667 71.1666666667 196.666666667 58 234 58 c 0
EndSplineSet
EndChar

StartChar: e
Encoding: 101 101 172
Width: 523
GlyphClass: 2
Flags: HW
AnchorPoint: "Anchor-3" 326 20 basechar 0
AnchorPoint: "Anchor-2" 202 0 basechar 0
AnchorPoint: "Anchor-0" 318 510 basechar 0
LayerCount: 3
Fore
SplineSet
232 -10 m 0
 192.666666667 -10 158.166666667 -1.33333333333 128.5 16 c 128
 98.8333333333 33.3333333333 76 57.8333333333 60 89.5 c 128
 44 121.166666667 36 158.333333333 36 201 c 0
 36 232.333333333 40.3333333333 263.333333333 49 294 c 128
 57.6666666667 324.666666667 69.8333333333 353.5 85.5 380.5 c 128
 101.166666667 407.5 120.333333333 431.5 143 452.5 c 128
 165.666666667 473.5 191 490 219 502 c 128
 247 514 277.333333333 520 310 520 c 0
 347.333333333 520 379.833333333 512.333333333 407.5 497 c 128
 435.166666667 481.666666667 456.5 460 471.5 432 c 128
 486.5 404 494 371 494 333 c 0
 494 299.888888889 489.666666667 273.222222222 481 253 c 5
 96 233 l 1
 110 298 l 1
 443 318 l 1
 408 285 l 1
 410 295.666666667 411.0234375 306.020507813 411.0703125 316.061523438 c 0
 411.690104167 340.020507813 408.665690104 362.3515625 401.997070312 383.0546875 c 128
 395.332356771 403.684895833 384.190755208 420.391927083 368.572265625 433.17578125 c 0
 353.524088542 445.725260417 331.718424479 452.176757813 303.155273438 452.530273438 c 0
 282.385091146 452.843424479 262.6484375 447.880859375 243.9453125 437.642578125 c 0
 225.315104167 427.880859375 208.602539063 414.647460937 193.807617188 397.942382812 c 0
 178.602539063 381.314127604 165.709960937 362.291341146 155.129882812 340.874023438 c 0
 144.376627604 319.624674479 136.099934896 296.962565104 130.299804688 272.887695312 c 0
 124.766601563 248.962565104 121.901692708 225.473307292 121.705078125 202.419921875 c 0
 121.901692708 156.806640625 132.724934896 121.2421875 154.174804688 95.7265625 c 0
 176.724934896 69.9088541667 206.6484375 57.1715494792 243.9453125 57.5146484375 c 0
 271.315104167 57.8382161458 295.349283854 65.2822265625 316.047851562 79.8466796875 c 0
 336.682617187 94.6155598958 354.031575521 116.946614583 368.094726562 146.83984375 c 1
 446 146 l 1
 423.333333333 94 393.833333333 55 357.5 29 c 128
 321.166666667 3 279.333333333 -10 232 -10 c 0
EndSplineSet
EndChar

StartChar: f
Encoding: 102 102 181
Width: 329
GlyphClass: 1
Flags: HW
LayerCount: 3
Fore
SplineSet
53 0 m 1
 192 605 l 2
 200.666666667 643.666666667 218.333333333 674.166666667 245 696.5 c 128
 271.666666667 718.833333333 308.333333333 730 355 730 c 0
 366.333333333 730 377.833333333 729.166666667 389.5 727.5 c 128
 401.166666667 725.833333333 411.333333333 723.333333333 420 720 c 1
 405 659 l 1
 400.333333333 661.666666667 393.666666667 663.666666667 385 665 c 128
 376.333333333 666.333333333 367.333333333 667 358 667 c 0
 330.666666667 667 309.833333333 660.166666667 295.5 646.5 c 128
 281.166666667 632.833333333 271.333333333 614.666666667 266 592 c 2
 130 0 l 1
 53 0 l 1
60 445 m 1
 75 510 l 1
 361 510 l 1
 347 445 l 1
 60 445 l 1
EndSplineSet
EndChar

StartChar: g
Encoding: 103 103 182
Width: 567
GlyphClass: 2
Flags: HW
AnchorPoint: "Anchor-2" 185 -158 basechar 0
AnchorPoint: "Anchor-0" 323 510 basechar 0
LayerCount: 3
Fore
SplineSet
192 -168 m 0
 150 -168 114.166666667 -161.333333333 84.5 -148 c 128
 54.8333333333 -134.666666667 31.3333333333 -116.5 14 -93.5 c 128
 -3.33333333333 -70.5 -13 -44.6666666667 -15 -16 c 1
 56 -16 l 1
 60.6666666667 -46 75.6666666667 -67.8333333333 101 -81.5 c 128
 126.333333333 -95.1666666667 157.333333333 -102 194 -102 c 0
 234 -102 268.166666667 -90.3333333333 296.5 -67 c 0
 322.590895806 -45.8630717521 341.757562473 -16.1964050855 354 22 c 2
 379 100 l 1
 394 108 l 1
 375.333333333 76 351 51.6666666667 321 35 c 128
 291 18.3333333333 257.666666667 10 221 10 c 0
 167 10 124.5 28.3333333333 93.5 65 c 0
 61.1666666667 104.333333333 45 147 45 193 c 0
 45 237.666666667 50.5 279.666666667 61.5 319 c 128
 72.5 358.333333333 90 393 114 423 c 128
 138 453 165.833333333 476.5 197.5 493.5 c 128
 229.166666667 510.5 262.666666667 519 298 519 c 0
 328.666666667 519 355.5 513.333333333 378.5 502 c 128
 401.5 490.666666667 419.666666667 474.5 433 453.5 c 128
 446.333333333 432.5 453.333333333 408.333333333 454 381 c 1
 445 372 l 1
 477 510 l 1
 548 510 l 1
 430 17 l 2
 416 -42.3333333333 387.833333333 -86.6666666667 345.5 -116 c 0
 295.833333333 -150.666666667 244.666666667 -168 192 -168 c 0
245 78 m 0
 267 78 287.666666667 82.8333333333 307 92.5 c 0
 328.609341826 103.304670913 346.109341826 116.471337579 359.5 132 c 4
 397.833333333 178 419.333333333 236 424 306 c 0
 426.366698267 349.274711087 415.366698267 384.941377753 391 413 c 0
 369 438.333333333 339.333333333 451 302 451 c 0
 267.333333333 451 236.5 439.833333333 209.5 417.5 c 128
 182.5 395.166666667 162.5 368.666666667 149.5 338 c 4
 133.833333333 302 126 264 126 224 c 0
 126 179.333333333 136.5 143.833333333 157.5 117.5 c 128
 178.5 91.1666666667 207.666666667 78 245 78 c 0
EndSplineSet
EndChar

StartChar: h
Encoding: 104 104 186
Width: 560
GlyphClass: 2
Flags: HW
AnchorPoint: "Anchor-2" 236 0 basechar 0
AnchorPoint: "Anchor-0" 353 510 basechar 0
LayerCount: 3
Fore
SplineSet
17 0 m 1
 183 720 l 1
 260 720 l 1
 94 0 l 1
 17 0 l 1
353 0 m 1
 429 329 l 2
 438.333333333 369.666666667 435.333333333 400.666666667 420 422 c 128
 404.666666667 443.333333333 379 454 343 454 c 0
 299.666666667 454 261.666666667 439.666666667 229 411 c 128
 196.333333333 382.333333333 174 343.333333333 162 294 c 1
 176 408 l 1
 199.333333333 444 227.5 471.666666667 260.5 491 c 128
 293.5 510.333333333 329 520 367 520 c 0
 421.666666667 520 461.833333333 503 487.5 469 c 128
 513.166666667 435 519.666666667 389.333333333 507 332 c 2
 430 0 l 1
 353 0 l 1
EndSplineSet
EndChar

StartChar: hbar
Encoding: 295 295 187
Width: 560
GlyphClass: 2
Flags: HW
AnchorPoint: "Anchor-2" 236 0 basechar 0
AnchorPoint: "Anchor-0" 353 510 basechar 0
LayerCount: 3
Fore
SplineSet
78 595 m 1
 92 651 l 1
 410 651 l 1
 396 595 l 1
 78 595 l 1
17 0 m 1
 183 720 l 1
 260 720 l 1
 94 0 l 1
 17 0 l 1
353 0 m 1
 429 329 l 2
 438.333333333 369.666666667 435.333333333 400.666666667 420 422 c 128
 404.666666667 443.333333333 379 454 343 454 c 0
 299.666666667 454 261.666666667 439.666666667 229 411 c 128
 196.333333333 382.333333333 174 343.333333333 162 294 c 1
 176 408 l 1
 199.333333333 444 227.5 471.666666667 260.5 491 c 128
 293.5 510.333333333 329 520 367 520 c 0
 421.666666667 520 461.833333333 503 487.5 469 c 128
 513.166666667 435 519.666666667 389.333333333 507 332 c 2
 430 0 l 1
 353 0 l 1
EndSplineSet
EndChar

StartChar: dotlessi
Encoding: 305 305 189
Width: 230
GlyphClass: 2
Flags: HW
AnchorPoint: "Anchor-3" 95 0 basechar 0
AnchorPoint: "Anchor-2" 57 0 basechar 0
AnchorPoint: "Anchor-0" 174 510 basechar 0
LayerCount: 3
Fore
SplineSet
18 0 m 1
 135 510 l 1
 212 510 l 1
 95 0 l 1
 18 0 l 1
EndSplineSet
EndChar

StartChar: uni0237
Encoding: 567 567 199
Width: 229
GlyphClass: 2
Flags: HW
AnchorPoint: "Anchor-2" 9 -159 basechar 0
AnchorPoint: "Anchor-0" 174 510 basechar 0
LayerCount: 3
Fore
SplineSet
-64 -169 m 4
 -72 -169 -83.5 -168 -98.5 -166 c 132
 -113.5 -164 -126 -160.333333333 -136 -155 c 5
 -122 -95 l 5
 -117.333333333 -97.6666666667 -110 -100.166666667 -100 -102.5 c 132
 -90 -104.833333333 -79.6666666667 -106 -69 -106 c 4
 -50.3333333333 -106 -36 -101.166666667 -26 -91.5 c 4
 -15.5173379335 -80.6897547439 -8.18400460013 -66.8564214105 -4 -50 c 6
 135 510 l 1
 212 510 l 1
 70 -61 l 6
 61.3333333333 -95.6666666667 46.5 -122.166666667 25.5 -140.5 c 4
 3.83333333333 -159.5 -26 -169 -64 -169 c 4
EndSplineSet
EndChar

StartChar: k
Encoding: 107 107 200
Width: 501
GlyphClass: 2
Flags: HW
AnchorPoint: "Anchor-2" 212 0 basechar 0
AnchorPoint: "Anchor-0" 363 740 basechar 0
LayerCount: 3
Fore
SplineSet
17 0 m 1
 187 735 l 1
 264 735 l 1
 94 0 l 1
 17 0 l 1
338 0 m 1
 155 265 l 5
 427 510 l 1
 538 510 l 1
 233 243 l 5
 228 289 l 5
 430 0 l 1
 338 0 l 1
EndSplineSet
Substitution2: "'ss04' Style Set 4 in Latin lookup 25 subtable" k.ss04
Substitution2: "'aalt' Access All Alternates in Latin lookup 0 subtable" k.ss04
EndChar

StartChar: l
Encoding: 108 108 202
Width: 229
GlyphClass: 2
Flags: HW
AnchorPoint: "Anchor-2" 56 0 basechar 0
AnchorPoint: "Anchor-1" 325 720 basechar 0
AnchorPoint: "Anchor-0" 222 720 basechar 0
LayerCount: 3
Fore
SplineSet
17 0 m 1
 183 720 l 1
 260 720 l 1
 94 0 l 1
 17 0 l 1
EndSplineSet
EndChar

StartChar: lslash
Encoding: 322 322 206
Width: 244
GlyphClass: 2
Flags: HW
AnchorPoint: "Anchor-2" 63 0 basechar 0
AnchorPoint: "Anchor-1" 333 720 basechar 0
AnchorPoint: "Anchor-0" 229 720 basechar 0
LayerCount: 3
Fore
SplineSet
147 348 m 1
 9 295 l 1
 24 356 l 1
 159 408 l 1
 147 348 l 1
160 412 m 1
 292 464 l 1
 278 403 l 1
 148 352 l 1
 160 412 l 1
25 0 m 1
 191 720 l 1
 268 720 l 1
 102 0 l 1
 25 0 l 1
EndSplineSet
EndChar

StartChar: m
Encoding: 109 109 207
Width: 861
GlyphClass: 1
Flags: HW
LayerCount: 3
Fore
SplineSet
18 0 m 1
 135 510 l 1
 207 510 l 1
 181 396 l 1
 186 396 l 1
 95 0 l 1
 18 0 l 1
336 0 m 1
 411 329 l 2
 420.333333333 369.666666667 417.833333333 400.666666667 403.5 422 c 128
 389.166666667 443.333333333 366 454 334 454 c 0
 294.666666667 454 259.166666667 439.666666667 227.5 411 c 128
 195.833333333 382.333333333 174.333333333 343.333333333 163 294 c 1
 177 408 l 1
 199.666666667 444 227.5 471.666666667 260.5 491 c 128
 293.5 510.333333333 328.666666667 520 366 520 c 0
 414.666666667 520 451 504.666666667 475 474 c 128
 499 443.333333333 503.666666667 396 489 332 c 2
 413 0 l 1
 336 0 l 1
654 0 m 1
 730 329 l 2
 739.333333333 369.666666667 736.833333333 400.666666667 722.5 422 c 128
 708.166666667 443.333333333 685 454 653 454 c 0
 613.666666667 454 578 439.666666667 546 411 c 128
 514 382.333333333 491.666666667 343 479 293 c 1
 480 397 l 1
 504.666666667 438.333333333 534.833333333 469.166666667 570.5 489.5 c 128
 606.166666667 509.833333333 641.666666667 520 677 520 c 0
 710.333333333 520 738.5 512.166666667 761.5 496.5 c 128
 784.5 480.833333333 800.166666667 459 808.5 431 c 128
 816.833333333 403 816.666666667 370 808 332 c 2
 731 0 l 1
 654 0 l 1
EndSplineSet
EndChar

StartChar: n
Encoding: 110 110 208
Width: 560
GlyphClass: 2
Flags: HW
AnchorPoint: "Anchor-2" 234 0 basechar 0
AnchorPoint: "Anchor-0" 365 510 basechar 0
LayerCount: 3
Fore
SplineSet
18 0 m 1
 135 510 l 1
 207 510 l 1
 181 396 l 1
 186 396 l 1
 95 0 l 1
 18 0 l 1
354 0 m 1
 429 329 l 2
 438.333333333 369.666666667 435.333333333 400.666666667 420 422 c 128
 404.666666667 443.333333333 379 454 343 454 c 0
 299.666666667 454 261.666666667 439.666666667 229 411 c 128
 196.333333333 382.333333333 174.333333333 343.333333333 163 294 c 1
 177 408 l 1
 199.666666667 444 227.5 471.666666667 260.5 491 c 128
 293.5 510.333333333 329 520 367 520 c 0
 421.666666667 520 461.833333333 503 487.5 469 c 128
 513.166666667 435 519.666666667 389.333333333 507 332 c 2
 431 0 l 1
 354 0 l 1
EndSplineSet
EndChar

StartChar: eng
Encoding: 331 331 213
Width: 560
GlyphClass: 1
Flags: HW
LayerCount: 3
Fore
SplineSet
272 -215 m 0
 263.333333333 -215 251.666666667 -214 237 -212 c 128
 222.333333333 -210 209.666666667 -206.333333333 199 -201 c 1
 213 -141 l 1
 217.666666667 -143.666666667 225.166666667 -146.166666667 235.5 -148.5 c 128
 245.833333333 -150.833333333 256 -152 266 -152 c 0
 284.666666667 -152 299.166666667 -147.166666667 309.5 -137.5 c 128
 319.833333333 -127.833333333 327 -114 331 -96 c 2
 429 329 l 2
 438.333333333 369.666666667 435.333333333 400.666666667 420 422 c 128
 404.666666667 443.333333333 379 454 343 454 c 0
 299.666666667 454 261.666666667 439.666666667 229 411 c 128
 196.333333333 382.333333333 174.333333333 343.333333333 163 294 c 1
 177 408 l 1
 199.666666667 444 227.5 471.666666667 260.5 491 c 128
 293.5 510.333333333 329 520 367 520 c 0
 421.666666667 520 462 503 488 469 c 128
 514 435 520.333333333 389.333333333 507 332 c 2
 405 -107 l 2
 397 -141 382.166666667 -167.5 360.5 -186.5 c 128
 338.833333333 -205.5 309.333333333 -215 272 -215 c 0
18 0 m 1
 135 510 l 1
 207 510 l 1
 181 396 l 1
 186 396 l 1
 95 0 l 1
 18 0 l 1
EndSplineSet
EndChar

StartChar: o
Encoding: 111 111 214
Width: 546
GlyphClass: 2
Flags: HW
AnchorPoint: "Anchor-3" 333 20 basechar 0
AnchorPoint: "Anchor-2" 213 0 basechar 0
AnchorPoint: "Anchor-1" 583 510 basechar 0
AnchorPoint: "Anchor-0" 330 510 basechar 0
LayerCount: 3
Fore
SplineSet
235 -10 m 0
 195.666666667 -10 161.166666667 -1 131.5 17 c 128
 101.833333333 35 78.6666666667 60.1666666667 62 92.5 c 128
 45.3333333333 124.833333333 37 162.666666667 37 206 c 0
 37 248.666666667 44.1666666667 289 58.5 327 c 128
 72.8333333333 365 92.5 398.5 117.5 427.5 c 128
 142.5 456.5 171.5 479.166666667 204.5 495.5 c 128
 237.5 511.833333333 273 520 311 520 c 0
 351 520 386 511.166666667 416 493.5 c 128
 446 475.833333333 469.166666667 451 485.5 419 c 128
 501.833333333 387 510 349.666666667 510 307 c 0
 510 263.666666667 502.666666667 223 488 185 c 128
 473.333333333 147 453.166666667 113.333333333 427.5 84 c 128
 401.833333333 54.6666666667 372.666666667 31.6666666667 340 15 c 128
 307.333333333 -1.66666666667 272.333333333 -10 235 -10 c 0
240 56 m 0
 264 56 287.108072917 62.8108723958 309.32421875 76.4326171875 c 4
 331.108072917 89.4775390625 350.373697917 107.764973958 367.12109375 131.294921875 c 4
 383.70703125 154.431640625 396.972167969 181.031575521 406.916503906 211.094726562 c 128
 416.972167969 241.031575521 421.867513021 272.951822917 421.602539062 306.85546875 c 4
 421.867513021 352.28515625 411.287109375 388.028645833 389.861328125 414.0859375 c 4
 368.620442708 440.028645833 339.721679687 453.162434896 303.165039062 453.487304688 c 4
 278.388346354 453.162434896 255.174479167 446.678710937 233.5234375 434.036132812 c 132
 211.841145833 421.345377604 192.733398437 403.556640625 176.200195312 380.669921875 c 4
 160.066731771 358.223307292 147.117513021 331.955729167 137.352539062 301.8671875 c 4
 127.784179687 271.955729167 123.046549479 240.035807292 123.139648438 206.107421875 c 4
 123.046549479 160.035807292 133.626953125 123.626953125 154.880859375 96.880859375 c 4
 176.293619792 69.626953125 204.666666667 56 240 56 c 0
EndSplineSet
Substitution2: "Single Substitution lookup 17 subtable" ordmasculine
Substitution2: "'aalt' Access All Alternates in Latin lookup 0 subtable" ordmasculine
EndChar

StartChar: oslash
Encoding: 248 248 221
Width: 546
GlyphClass: 1
Flags: HW
LayerCount: 3
Fore
SplineSet
235 -10 m 0
 195.666666667 -10 161.166666667 -1 131.5 17 c 128
 101.833333333 35 78.6666666667 60.1666666667 62 92.5 c 128
 45.3333333333 124.833333333 37 162.666666667 37 206 c 0
 37 248.666666667 44.1666666667 289 58.5 327 c 128
 72.8333333333 365 92.5 398.5 117.5 427.5 c 128
 142.5 456.5 171.5 479.166666667 204.5 495.5 c 128
 237.5 511.833333333 273 520 311 520 c 0
 351 520 386 511.166666667 416 493.5 c 128
 446 475.833333333 469.166666667 451 485.5 419 c 128
 501.833333333 387 510 349.666666667 510 307 c 0
 510 263.666666667 502.666666667 223 488 185 c 128
 473.333333333 147 453.166666667 113.333333333 427.5 84 c 128
 401.833333333 54.6666666667 372.666666667 31.6666666667 340 15 c 128
 307.333333333 -1.66666666667 272.333333333 -10 235 -10 c 0
240 56 m 0
 265.333333333 56 289.5 62.6666666667 312.5 76 c 128
 335.5 89.3333333333 355.833333333 107.666666667 373.5 131 c 128
 391.166666667 154.333333333 405.166666667 181 415.5 211 c 128
 425.833333333 241 431 273 431 307 c 0
 431 352.333333333 419.833333333 388.166666667 397.5 414.5 c 128
 375.166666667 440.833333333 344.666666667 454 306 454 c 0
 280 454 255.5 447.5 232.5 434.5 c 128
 209.5 421.5 189.333333333 403.666666667 172 381 c 128
 154.666666667 358.333333333 141 332 131 302 c 128
 121 272 116 240 116 206 c 0
 116 160 127.166666667 123.5 149.5 96.5 c 128
 171.833333333 69.5 202 56 240 56 c 0
17 -4 m 1
 -15 37 l 1
 529 514 l 1
 561 473 l 1
 17 -4 l 1
EndSplineSet
EndChar

StartChar: oe
Encoding: 339 339 223
Width: 873
GlyphClass: 1
Flags: HW
LayerCount: 3
Fore
SplineSet
225 -10 m 0
 189 -10 156.833333333 -1 128.5 17 c 128
 100.166666667 35 77.8333333333 60.1666666667 61.5 92.5 c 128
 45.1666666667 124.833333333 37 162.666666667 37 206 c 0
 37 248.666666667 44 289 58 327 c 128
 72 365 91.3333333333 398.5 116 427.5 c 128
 140.666666667 456.5 168.833333333 479.166666667 200.5 495.5 c 128
 232.166666667 511.833333333 265.666666667 520 301 520 c 0
 337.666666667 520 370 511.166666667 398 493.5 c 128
 426 475.833333333 447.833333333 451 463.5 419 c 128
 479.166666667 387 487 349.666666667 487 307 c 0
 487 263.666666667 480 223 466 185 c 128
 452 147 432.666666667 113.333333333 408 84 c 128
 383.333333333 54.6666666667 355.333333333 31.6666666667 324 15 c 128
 292.666666667 -1.66666666667 259.666666667 -10 225 -10 c 0
230 56 m 0
 253.333333333 56 275.666666667 62.6666666667 297 76 c 128
 318.333333333 89.3333333333 337.5 107.666666667 354.5 131 c 128
 371.5 154.333333333 385.166666667 181 395.5 211 c 128
 405.833333333 241 411 273 411 307 c 0
 411 352.333333333 400.166666667 388.166666667 378.5 414.5 c 128
 356.833333333 440.833333333 329.333333333 454 296 454 c 0
 271.333333333 454 248.166666667 447.5 226.5 434.5 c 128
 204.833333333 421.5 185.666666667 403.666666667 169 381 c 128
 152.333333333 358.333333333 139.333333333 332 130 302 c 128
 120.666666667 272 116 240 116 206 c 0
 116 160 126.833333333 123.5 148.5 96.5 c 128
 170.166666667 69.5 197.333333333 56 230 56 c 0
592 -10 m 0
 555.333333333 -10 523.166666667 -1.33333333333 495.5 16 c 128
 467.833333333 33.3333333333 446.333333333 57.8333333333 431 89.5 c 128
 415.666666667 121.166666667 408 158.333333333 408 201 c 0
 408 232.333333333 412.166666667 263.333333333 420.5 294 c 128
 428.833333333 324.666666667 440.666666667 353.5 456 380.5 c 128
 471.333333333 407.5 489.833333333 431.5 511.5 452.5 c 128
 533.166666667 473.5 557.166666667 490 583.5 502 c 128
 609.833333333 514 638.333333333 520 669 520 c 0
 703.666666667 520 734.166666667 512.333333333 760.5 497 c 128
 786.833333333 481.666666667 807.333333333 460 822 432 c 128
 836.666666667 404 844 371 844 333 c 0
 844 315.666666667 842.333333333 298.166666667 839 280.5 c 128
 835.666666667 262.833333333 831 247 825 233 c 1
 465 233 l 1
 479 298 l 1
 793 298 l 1
 758 245 l 1
 764 268.333333333 767.333333333 292.166666667 768 316.5 c 128
 768.666666667 340.833333333 765.833333333 363.333333333 759.5 384 c 128
 753.166666667 404.666666667 742.333333333 421.5 727 434.5 c 128
 711.666666667 447.5 691 454 665 454 c 0
 644.333333333 454 625 449 607 439 c 128
 589 429 572.5 415.666666667 557.5 399 c 128
 542.5 382.333333333 529.5 363.166666667 518.5 341.5 c 128
 507.5 319.833333333 499 297 493 273 c 128
 487 249 484 225.333333333 484 202 c 0
 484 156 495 120.166666667 517 94.5 c 128
 539 68.8333333333 567.333333333 56 602 56 c 0
 627.333333333 56 650.5 63.5 671.5 78.5 c 128
 692.5 93.5 709.666666667 116 723 146 c 1
 796 146 l 1
 774.666666667 94 746.333333333 55 711 29 c 128
 675.666666667 3 636 -10 592 -10 c 0
EndSplineSet
EndChar

StartChar: p
Encoding: 112 112 224
Width: 567
GlyphClass: 1
Flags: HW
LayerCount: 3
Fore
SplineSet
267 -9 m 0
 235.666666667 -9 208.333333333 -2.83333333333 185 9.5 c 128
 161.666666667 21.8333333333 143.666666667 39.1666666667 131 61.5 c 128
 118.333333333 83.8333333333 112 109.333333333 112 138 c 1
 128 141 l 1
 59 -155 l 5
 -19 -155 l 5
 135 510 l 1
 207 510 l 1
 183 411 l 1
 180 416 l 1
 198 449.333333333 222.666666667 475 254 493 c 128
 285.333333333 511 319.666666667 520 357 520 c 0
 411 520 453.333333333 502 484 466 c 128
 514.666666667 430 530 381 530 319 c 0
 530 274.333333333 523.166666667 232.166666667 509.5 192.5 c 128
 495.833333333 152.833333333 476.833333333 118 452.5 88 c 128
 428.166666667 58 400.166666667 34.3333333333 368.5 17 c 128
 336.833333333 -0.333333333333 303 -9 267 -9 c 0
263 59 m 0
 289.666666667 59 314.333333333 65.5 337 78.5 c 128
 359.666666667 91.5 379.5 109.5 396.5 132.5 c 128
 413.5 155.5 426.833333333 182.166666667 436.5 212.5 c 128
 446.166666667 242.833333333 451 274.666666667 451 308 c 0
 451 353.333333333 440.666666667 388.666666667 420 414 c 128
 399.333333333 439.333333333 370.333333333 452 333 452 c 0
 310.333333333 452 289.333333333 447.166666667 270 437.5 c 128
 250.666666667 427.833333333 233.166666667 414.666666667 217.5 398 c 128
 201.833333333 381.333333333 188.333333333 362.166666667 177 340.5 c 128
 165.666666667 318.833333333 157 296.166666667 151 272.5 c 128
 145 248.833333333 142 225.666666667 142 203 c 0
 142 157.666666667 153.166666667 122.333333333 175.5 97 c 128
 197.833333333 71.6666666667 227 59 263 59 c 0
EndSplineSet
EndChar

StartChar: thorn
Encoding: 254 254 225
Width: 567
GlyphClass: 1
Flags: HW
LayerCount: 3
Fore
SplineSet
267 -9 m 0
 235.666666667 -9 208.333333333 -2.83333333333 185 9.5 c 128
 161.666666667 21.8333333333 143.666666667 39.1666666667 131 61.5 c 128
 118.333333333 83.8333333333 112 109.333333333 112 138 c 1
 127 141 l 1
 47 -205 l 1
 -30 -205 l 1
 183 720 l 1
 260 720 l 1
 188 411 l 1
 180 416 l 1
 198 449.333333333 222.666666667 475 254 493 c 128
 285.333333333 511 319.666666667 520 357 520 c 0
 411 520 453.333333333 502 484 466 c 128
 514.666666667 430 530 381 530 319 c 0
 530 274.333333333 523.166666667 232.166666667 509.5 192.5 c 128
 495.833333333 152.833333333 476.833333333 118 452.5 88 c 128
 428.166666667 58 400.166666667 34.3333333333 368.5 17 c 128
 336.833333333 -0.333333333333 303 -9 267 -9 c 0
263 59 m 0
 289.666666667 59 314.333333333 65.5 337 78.5 c 128
 359.666666667 91.5 379.5 109.5 396.5 132.5 c 128
 413.5 155.5 426.833333333 182.166666667 436.5 212.5 c 128
 446.166666667 242.833333333 451 274.666666667 451 308 c 0
 451 353.333333333 440.666666667 388.666666667 420 414 c 128
 399.333333333 439.333333333 370.333333333 452 333 452 c 0
 310.333333333 452 289.333333333 447.166666667 270 437.5 c 128
 250.666666667 427.833333333 233.166666667 414.666666667 217.5 398 c 128
 201.833333333 381.333333333 188.333333333 362.166666667 177 340.5 c 128
 165.666666667 318.833333333 157 296.166666667 151 272.5 c 128
 145 248.833333333 142 225.666666667 142 203 c 0
 142 157.666666667 153.166666667 122.333333333 175.5 97 c 128
 197.833333333 71.6666666667 227 59 263 59 c 0
EndSplineSet
EndChar

StartChar: q
Encoding: 113 113 226
Width: 568
GlyphClass: 1
Flags: HW
LayerCount: 3
Fore
SplineSet
311 -156.799804688 m 5
 378 100 l 1
 387 95 l 1
 369 61 344.5 35 313.5 17 c 128
 282.5 -1 248 -10 210 -10 c 0
 156 -10 113.666666667 8.16666666667 83 44.5 c 128
 52.3333333333 80.8333333333 37 129.666666667 37 191 c 0
 37 235.666666667 43.8333333333 277.833333333 57.5 317.5 c 128
 71.1666666667 357.166666667 90.1666666667 392 114.5 422 c 128
 138.833333333 452 166.666666667 475.666666667 198 493 c 128
 229.333333333 510.333333333 263 519 299 519 c 0
 330.333333333 519 357.666666667 512.833333333 381 500.5 c 128
 404.333333333 488.166666667 422.666666667 471 436 449 c 128
 449.333333333 427 455.666666667 401.333333333 455 372 c 1
 444 370 l 1
 479 510 l 1
 551 510 l 1
 388 -156.799804688 l 5
 311 -156.799804688 l 5
234 58 m 0
 256 58 276.833333333 62.8333333333 296.5 72.5 c 128
 316.166666667 82.1666666667 333.666666667 95.3333333333 349 112 c 128
 364.333333333 128.666666667 377.833333333 147.833333333 389.5 169.5 c 128
 401.166666667 191.166666667 409.833333333 213.833333333 415.5 237.5 c 128
 421.166666667 261.166666667 424 284.333333333 424 307 c 0
 424 352.333333333 413.166666667 387.666666667 391.5 413 c 128
 369.833333333 438.333333333 340.333333333 451 303 451 c 0
 267.666666667 451 235.833333333 439.833333333 207.5 417.5 c 128
 179.166666667 395.166666667 156.833333333 365.333333333 140.5 328 c 128
 124.166666667 290.666666667 116 249.333333333 116 204 c 0
 116 159.333333333 126.333333333 123.833333333 147 97.5 c 128
 167.666666667 71.1666666667 196.666666667 58 234 58 c 0
EndSplineSet
EndChar

StartChar: r
Encoding: 114 114 227
Width: 350
GlyphClass: 2
Flags: HW
AnchorPoint: "Anchor-2" 55 0 basechar 0
AnchorPoint: "Anchor-0" 260 510 basechar 0
LayerCount: 3
Fore
SplineSet
17 0 m 1
 135 510 l 1
 207 510 l 1
 178 386 l 1
 183 386 l 1
 94 0 l 1
 17 0 l 1
162 297 m 1
 173 407 l 1
 191.666666667 441.666666667 215.833333333 469.166666667 245.5 489.5 c 128
 275.166666667 509.833333333 307.666666667 520 343 520 c 0
 353 520 361.666666667 519.333333333 369 518 c 128
 376.333333333 516.666666667 382.333333333 515 387 513 c 1
 370 439 l 1
 365.333333333 440.333333333 358.166666667 441.833333333 348.5 443.5 c 128
 338.833333333 445.166666667 329.333333333 446 320 446 c 0
 280.666666667 446 247.166666667 433.333333333 219.5 408 c 128
 191.833333333 382.666666667 172.666666667 345.666666667 162 297 c 1
EndSplineSet
EndChar

StartChar: s
Encoding: 115 115 231
Width: 432
GlyphClass: 2
Flags: HW
AnchorPoint: "Anchor-2" 171 0 basechar 0
AnchorPoint: "Anchor-0" 280 510 basechar 0
LayerCount: 3
Fore
SplineSet
194 -10 m 0
 154.666666667 -10 121.166666667 -2.66666666667 93.5 12 c 128
 65.8333333333 26.6666666667 45 46.6666666667 31 72 c 128
 17 97.3333333333 11 125.333333333 13 156 c 1
 86 156 l 1
 86 136.666666667 90.3333333333 119.333333333 99 104 c 128
 107.666666667 88.6666666667 120.5 76.5 137.5 67.5 c 128
 154.5 58.5 174.666666667 54 198 54 c 0
 229.333333333 54 254.166666667 61.5 272.5 76.5 c 128
 290.833333333 91.5 300 111.333333333 300 136 c 0
 300 152.666666667 295.333333333 166.666666667 286 178 c 128
 276.666666667 189.333333333 262 200 242 210 c 2
 175 245 l 2
 143.666666667 260.333333333 120.166666667 278 104.5 298 c 128
 88.8333333333 318 81 342 81 370 c 0
 81 399.333333333 88.5 425.333333333 103.5 448 c 128
 118.5 470.666666667 139.166666667 488.333333333 165.5 501 c 128
 191.833333333 513.666666667 222 520 256 520 c 0
 290.666666667 520 320.166666667 513.333333333 344.5 500 c 128
 368.833333333 486.666666667 387.333333333 468.833333333 400 446.5 c 128
 412.666666667 424.166666667 419 398.666666667 419 370 c 1
 346 370 l 1
 345.333333333 386.666666667 341.166666667 401.5 333.5 414.5 c 128
 325.833333333 427.5 315 437.666666667 301 445 c 128
 287 452.333333333 269.333333333 456 248 456 c 0
 219.333333333 456 196.833333333 449.166666667 180.5 435.5 c 128
 164.166666667 421.833333333 156 403.333333333 156 380 c 0
 156 364.666666667 160.666666667 351.333333333 170 340 c 128
 179.333333333 328.666666667 194.333333333 317.666666667 215 307 c 2
 280 273 l 2
 312 257 335.666666667 238.5 351 217.5 c 128
 366.333333333 196.5 374 172.333333333 374 145 c 0
 374 114.333333333 366.5 87.1666666667 351.5 63.5 c 128
 336.5 39.8333333333 315.666666667 21.6666666667 289 9 c 128
 262.333333333 -3.66666666667 230.666666667 -10 194 -10 c 0
EndSplineSet
EndChar

StartChar: germandbls
Encoding: 223 223 236
Width: 572
GlyphClass: 1
Flags: HW
LayerCount: 3
Fore
SplineSet
274 -9 m 0
 264.666666667 -9 254 -8.5 242 -7.5 c 128
 230 -6.5 217.833333333 -4.66666666667 205.5 -2 c 128
 193.166666667 0.666666666667 182.666666667 4 174 8 c 1
 188 73 l 1
 206 66.3333333333 222.666666667 62 238 60 c 128
 253.333333333 58 265.666666667 57 275 57 c 0
 311 57 341.166666667 63.8333333333 365.5 77.5 c 128
 389.833333333 91.1666666667 408.333333333 110 421 134 c 128
 433.666666667 158 440 184.666666667 440 214 c 0
 440.666666667 252 430 283.5 408 308.5 c 128
 386 333.5 356.666666667 346 320 346 c 2
 270 346 l 1
 286 413 l 1
 334 413 l 2
 353.333333333 413 372 416.333333333 390 423 c 128
 408 429.666666667 424 439.333333333 438 452 c 128
 452 464.666666667 463 480 471 498 c 128
 479 516 483 536.333333333 483 559 c 0
 483 592.333333333 473.5 618.833333333 454.5 638.5 c 128
 435.5 658.166666667 408 668 372 668 c 0
 333.333333333 668 300.166666667 655.666666667 272.5 631 c 128
 244.833333333 606.333333333 225 568 213 516 c 2
 94 0 l 1
 17 0 l 1
 139 529 l 2
 154.333333333 594.333333333 182.666666667 644.166666667 224 678.5 c 128
 265.333333333 712.833333333 314.666666667 730 372 730 c 0
 396.666666667 730 420.333333333 726.666666667 443 720 c 128
 465.666666667 713.333333333 486 703.333333333 504 690 c 128
 522 676.666666667 536.333333333 659.833333333 547 639.5 c 128
 557.666666667 619.166666667 563 595 563 567 c 0
 563 536.333333333 556.833333333 508 544.5 482 c 128
 532.166666667 456 515.666666667 434 495 416 c 128
 474.333333333 398 451.333333333 384.666666667 426 376 c 128
 400.666666667 367.333333333 375 364.666666667 349 368 c 1
 348 390 l 1
 402.666666667 383.333333333 444.666666667 364.333333333 474 333 c 128
 503.333333333 301.666666667 518 262.333333333 518 215 c 0
 518 171.666666667 507.166666667 133.166666667 485.5 99.5 c 128
 463.833333333 65.8333333333 434.666666667 39.3333333333 398 20 c 128
 361.333333333 0.666666666667 320 -9 274 -9 c 0
EndSplineSet
EndChar

StartChar: t
Encoding: 116 116 237
Width: 350
GlyphClass: 2
Flags: HW
AnchorPoint: "Anchor-2" 170 0 basechar 0
AnchorPoint: "Anchor-1" 405 775 basechar 0
AnchorPoint: "Anchor-0" 231 510 basechar 0
LayerCount: 3
Fore
SplineSet
208 -9 m 0
 155.333333333 -9 119.333333333 4.66666666667 100 32 c 128
 80.6666666667 59.3333333333 76.3333333333 96 87 142 c 2
 197 622 l 1
 281 652 l 1
 161 132 l 2
 155 106 157.5 86.8333333333 168.5 74.5 c 128
 179.5 62.1666666667 200 56 230 56 c 0
 241.333333333 56 251.666666667 56.8333333333 261 58.5 c 128
 270.333333333 60.1666666667 278 62 284 64 c 1
 269 -1 l 1
 262.333333333 -3.66666666667 253.833333333 -5.66666666667 243.5 -7 c 128
 233.166666667 -8.33333333333 221.333333333 -9 208 -9 c 0
60 445 m 1
 75 510 l 1
 387 510 l 1
 372 445 l 1
 60 445 l 1
EndSplineSet
EndChar

StartChar: u
Encoding: 117 117 240
Width: 550
GlyphClass: 2
Flags: HW
AnchorPoint: "Anchor-3" 415 0 basechar 0
AnchorPoint: "Anchor-2" 217 0 basechar 0
AnchorPoint: "Anchor-1" 589 510 basechar 0
AnchorPoint: "Anchor-0" 335 510 basechar 0
LayerCount: 3
Fore
SplineSet
190 -10 m 0
 136.666666667 -10 97.1666666667 7.16666666667 71.5 41.5 c 128
 45.8333333333 75.8333333333 39.6666666667 121.333333333 53 178 c 2
 130 510 l 1
 207 510 l 1
 131 181 l 2
 121.666666667 141 124.5 110.166666667 139.5 88.5 c 128
 154.5 66.8333333333 179.333333333 56 214 56 c 0
 255.333333333 56 291.833333333 70.3333333333 323.5 99 c 128
 355.166666667 127.666666667 377 166.666666667 389 216 c 1
 375 102 l 1
 352.333333333 66 324.666666667 38.3333333333 292 19 c 128
 259.333333333 -0.333333333333 225.333333333 -10 190 -10 c 0
344 0 m 1
 371 114 l 1
 365 114 l 1
 456 510 l 1
 533 510 l 1
 415 0 l 1
 344 0 l 1
EndSplineSet
EndChar

StartChar: v
Encoding: 118 118 250
Width: 489
GlyphClass: 1
Flags: HW
LayerCount: 3
Fore
SplineSet
156 0 m 1
 78 510 l 1
 156 510 l 1
 214 59 l 1
 180 59 l 1
 446 510 l 1
 530 510 l 1
 216 0 l 1
 156 0 l 1
EndSplineSet
EndChar

StartChar: w
Encoding: 119 119 251
Width: 727
GlyphClass: 2
Flags: HW
AnchorPoint: "Anchor-2" 305 0 basechar 0
AnchorPoint: "Anchor-0" 423 510 basechar 0
LayerCount: 3
Fore
SplineSet
118 0 m 1
 88 510 l 1
 163 510 l 1
 176 79 l 1
 156 79 l 1
 392 510 l 1
 452 510 l 1
 488 79 l 1
 466 79 l 1
 678 510 l 1
 757 510 l 1
 491 0 l 1
 431 0 l 1
 394 422 l 1
 416 422 l 1
 181 0 l 1
 118 0 l 1
EndSplineSet
EndChar

StartChar: x
Encoding: 120 120 256
Width: 510
GlyphClass: 1
Flags: HW
LayerCount: 3
Fore
SplineSet
339 0 m 1
 238 238 l 1
 109 510 l 1
 190 510 l 1
 284 290 l 1
 421 0 l 1
 339 0 l 1
246 288 m 1
 443 510 l 1
 532 510 l 1
 279 234 l 1
 246 288 l 1
270 230 m 1
 61 0 l 1
 -29 0 l 1
 240 287 l 1
 270 230 l 1
EndSplineSet
EndChar

StartChar: y
Encoding: 65584 -1 257
Width: 489
GlyphClass: 2
Flags: HW
AnchorPoint: "Anchor-2" 186 0 basechar 0
AnchorPoint: "Anchor-0" 307 510 basechar 0
LayerCount: 3
Fore
SplineSet
3 -215 m 0
 -7.66666666667 -215 -16.8333333333 -214.166666667 -24.5 -212.5 c 128
 -32.1666666667 -210.833333333 -38.6666666667 -209.333333333 -44 -208 c 1
 -29 -147 l 1
 -25 -148.333333333 -19.3333333333 -149.666666667 -12 -151 c 128
 -4.66666666667 -152.333333333 3.66666666667 -153 13 -153 c 0
 35 -153 52.6666666667 -148.333333333 66 -139 c 128
 79.3333333333 -129.666666667 94.3333333333 -110.666666667 111 -82 c 2
 183 47 l 1
 201 79 l 1
 447 510 l 1
 530 510 l 1
 165 -113 l 2
 149 -139 133 -159.5 117 -174.5 c 128
 101 -189.5 83.8333333333 -200 65.5 -206 c 128
 47.1666666667 -212 26.3333333333 -215 3 -215 c 0
170 -2 m 1
 78 510 l 1
 157 510 l 1
 231 57 l 1
 170 -2 l 1
EndSplineSet
Substitution2: "'calt' Contextual Alternates in Latin lookup 24 subtable" y.ss03
Substitution2: "'aalt' Access All Alternates in Latin lookup 0 subtable" y.ss03
EndChar

StartChar: z
Encoding: 122 122 262
Width: 459
GlyphClass: 2
Flags: HW
AnchorPoint: "Anchor-2" 171 0 basechar 0
AnchorPoint: "Anchor-0" 289 510 basechar 0
LayerCount: 3
Fore
SplineSet
-10 0 m 1
 2 56 l 1
 379 479 l 1
 407 445 l 1
 103 445 l 1
 118 510 l 1
 468 510 l 1
 455 455 l 1
 79 31 l 1
 51 66 l 1
 374 66 l 1
 359 0 l 1
 -10 0 l 1
EndSplineSet
EndChar

StartChar: a.ss02
Encoding: 97 97 289
Width: 567
GlyphClass: 2
Flags: HW
AnchorPoint: "Anchor-3" 460 -5 basechar 0
AnchorPoint: "Anchor-2" 225 0 basechar 0
AnchorPoint: "Anchor-0" 343 510 basechar 0
LayerCount: 3
Fore
SplineSet
488 224 m 1048
210 -10 m 0
 156 -10 113.666666667 8.16666666667 83 44.5 c 128
 52.3333333333 80.8333333333 37 129.666666667 37 191 c 0
 37 235.666666667 43.8333333333 277.833333333 57.5 317.5 c 128
 71.1666666667 357.166666667 90.1666666667 392 114.5 422 c 128
 138.833333333 452 166.666666667 475.666666667 198 493 c 128
 229.333333333 510.333333333 263 519 299 519 c 0
 330.333333333 519 357.666666667 512.833333333 381 500.5 c 128
 404.333333333 488.166666667 422.666666667 471 436 449 c 128
 449.333333333 427 455.666666667 401.333333333 455 372 c 1
 444 370 l 1
 480 502 l 1
 562 502 l 1
 544.56097561 452.008130081 520.56097561 359.341463415 490 224 c 4
 471.333333333 142.666666667 461 66.3333333333 459 -5 c 1
 377 -5 l 1
 383 100 l 1
 387 95 l 1
 369 61 344.5 35 313.5 17 c 128
 282.5 -1 248 -10 210 -10 c 0
234 58 m 0
 256 58 276.833333333 62.8333333333 296.5 72.5 c 128
 316.166666667 82.1666666667 333.666666667 95.3333333333 349 112 c 128
 364.333333333 128.666666667 377.833333333 147.833333333 389.5 169.5 c 128
 401.166666667 191.166666667 409.833333333 213.833333333 415.5 237.5 c 128
 421.166666667 261.166666667 424 284.333333333 424 307 c 0
 424 352.333333333 413.166666667 387.666666667 391.5 413 c 128
 369.833333333 438.333333333 340.333333333 451 303 451 c 0
 267.666666667 451 235.833333333 439.833333333 207.5 417.5 c 128
 179.166666667 395.166666667 156.833333333 365.333333333 140.5 328 c 128
 124.166666667 290.666666667 116 249.333333333 116 204 c 0
 116 159.333333333 126.333333333 123.833333333 147 97.5 c 128
 167.666666667 71.1666666667 196.666666667 58 234 58 c 0
EndSplineSet
EndChar

StartChar: y.ss03
Encoding: 121 121 300
Width: 489
GlyphClass: 2
Flags: HW
AnchorPoint: "Anchor-2" 186 0 basechar 0
AnchorPoint: "Anchor-0" 304 510 basechar 0
LayerCount: 3
Fore
SplineSet
33 -156.799804688 m 5
 171 61 l 1
 192 88 l 1
 445 510 l 1
 530 510 l 1
 120 -156.799804688 l 5
 33 -156.799804688 l 5
170 -2 m 1
 78 510 l 1
 157 510 l 1
 231 57 l 1
 170 -2 l 1
EndSplineSet
EndChar

StartChar: k.ss04
Encoding: 65612 -1 305
Width: 501
GlyphClass: 2
Flags: HW
AnchorPoint: "Anchor-2" 212 0 basechar 0
AnchorPoint: "Anchor-0" 363 740 basechar 0
LayerCount: 3
Fore
SplineSet
17 0 m 1
 183 720 l 1
 260 720 l 1
 94 0 l 1
 17 0 l 1
130 232 m 1
 433 510 l 1
 536 510 l 1
 280 277 l 1
 269 275 l 1
 111 136 l 1
 130 232 l 1
301 304 m 1
 430 0 l 1
 349 0 l 1
 235 280 l 1
 301 304 l 1
EndSplineSet
EndChar

StartChar: f_f_i
Encoding: 65617 -1 310
Width: 869
GlyphClass: 3
LigCaretCntFixed: 1
Flags: HW
LayerCount: 3
Fore
SplineSet
53 0 m 1
 192 605 l 2
 200.666666667 643.666666667 218.333333333 674.166666667 245 696.5 c 128
 271.666666667 718.833333333 308.333333333 730 355 730 c 0
 366.333333333 730 377.833333333 729.166666667 389.5 727.5 c 128
 401.166666667 725.833333333 411.333333333 723.333333333 420 720 c 1
 405 659 l 1
 400.333333333 661.666666667 393.666666667 663.666666667 385 665 c 128
 376.333333333 666.333333333 367.333333333 667 358 667 c 0
 330.666666667 667 309.833333333 660.166666667 295.5 646.5 c 128
 281.166666667 632.833333333 271.333333333 614.666666667 266 592 c 2
 130 0 l 1
 53 0 l 1
354 0 m 1
 493 605 l 2
 501.666666667 643.666666667 519.333333333 674.166666667 546 696.5 c 128
 572.666666667 718.833333333 609 730 655 730 c 0
 666.333333333 730 678 729.166666667 690 727.5 c 128
 702 725.833333333 712.333333333 723.333333333 721 720 c 1
 706 659 l 1
 701.333333333 661.666666667 694.5 663.666666667 685.5 665 c 128
 676.5 666.333333333 667.666666667 667 659 667 c 0
 631.666666667 667 610.833333333 660.166666667 596.5 646.5 c 128
 582.166666667 632.833333333 572.333333333 614.666666667 567 592 c 2
 431 0 l 1
 354 0 l 1
655 0 m 1
 773 510 l 1
 850 510 l 1
 732 0 l 1
 655 0 l 1
60 445 m 1
 75 510 l 1
 813 510 l 1
 798 445 l 1
 60 445 l 1
793 628 m 1
 814 720 l 1
 904 720 l 1
 883 628 l 1
 793 628 l 1
EndSplineSet
Substitution2: "'ss01' Style Set 1 in Latin lookup 22 subtable" f_f_i.ss01
Ligature2: "'liga' Standard Ligatures in Latin lookup 21 subtable" f f i
Substitution2: "'aalt' Access All Alternates in Latin lookup 0 subtable" f_f_i.ss01
LCarets2: 2 289 579
EndChar

StartChar: f_f_l
Encoding: 65618 -1 311
Width: 867
GlyphClass: 3
LigCaretCntFixed: 1
Flags: HW
LayerCount: 3
Fore
SplineSet
354 0 m 1
 491 595 l 2
 499.666666667 633.666666667 517.333333333 664.166666667 544 686.5 c 128
 570.666666667 708.833333333 607.333333333 720 654 720 c 2
 849 720 l 1
 834 658 l 1
 657 658 l 2
 629.666666667 658 608.833333333 651 594.5 637 c 128
 580.166666667 623 570.333333333 604.666666667 565 582 c 2
 431 0 l 1
 354 0 l 1
53 0 m 1
 190 595 l 2
 198.666666667 633.666666667 216.333333333 664.166666667 243 686.5 c 128
 269.666666667 708.833333333 306.333333333 720 353 720 c 0
 364.333333333 720 375.833333333 719.166666667 387.5 717.5 c 128
 399.166666667 715.833333333 409.333333333 713.333333333 418 710 c 1
 403 649 l 1
 398.333333333 651.666666667 391.666666667 653.666666667 383 655 c 128
 374.333333333 656.333333333 365.333333333 657 356 657 c 0
 328.666666667 657 307.833333333 650.166666667 293.5 636.5 c 128
 279.166666667 622.833333333 269.333333333 604.666666667 264 582 c 2
 130 0 l 1
 53 0 l 1
60 445 m 1
 75 510 l 1
 656 510 l 1
 642 445 l 1
 60 445 l 1
655 0 m 1
 821 720 l 1
 898 720 l 1
 732 0 l 1
 655 0 l 1
EndSplineSet
Ligature2: "'liga' Standard Ligatures in Latin lookup 21 subtable" f f l
LCarets2: 2 289 578
EndChar

StartChar: f_i
Encoding: 65619 -1 312
Width: 558
GlyphClass: 3
LigCaretCntFixed: 1
Flags: HW
AnchorPoint: "Anchor-5" 82 0 baselig 0
AnchorPoint: "Anchor-4" 253 740 baselig 0
AnchorPoint: "Anchor-5" 362 0 baselig 1
AnchorPoint: "Anchor-4" 533 740 baselig 1
LayerCount: 3
Fore
SplineSet
53 0 m 1
 192 605 l 2
 200.666666667 643.666666667 218.333333333 674.166666667 245 696.5 c 128
 271.666666667 718.833333333 308 730 354 730 c 0
 365.333333333 730 377 729.166666667 389 727.5 c 128
 401 725.833333333 411.333333333 723.333333333 420 720 c 1
 405 659 l 1
 400.333333333 661.666666667 393.5 663.666666667 384.5 665 c 128
 375.5 666.333333333 366.666666667 667 358 667 c 0
 330.666666667 667 309.833333333 660.166666667 295.5 646.5 c 128
 281.166666667 632.833333333 271.333333333 614.666666667 266 592 c 2
 130 0 l 1
 53 0 l 1
354 0 m 1
 472 510 l 1
 549 510 l 1
 431 0 l 1
 354 0 l 1
60 445 m 1
 75 510 l 1
 512 510 l 1
 497 445 l 1
 60 445 l 1
492 628 m 1
 513 720 l 1
 603 720 l 1
 582 628 l 1
 492 628 l 1
EndSplineSet
Substitution2: "'ss01' Style Set 1 in Latin lookup 22 subtable" f_i.ss01
Ligature2: "'liga' Standard Ligatures in Latin lookup 21 subtable" f i
Substitution2: "'aalt' Access All Alternates in Latin lookup 0 subtable" f_i.ss01
LCarets2: 1 281
EndChar

StartChar: f_l
Encoding: 65620 -1 313
Width: 566
GlyphClass: 3
LigCaretCntFixed: 1
Flags: HW
AnchorPoint: "Anchor-5" 83 0 baselig 0
AnchorPoint: "Anchor-4" 254 740 baselig 0
AnchorPoint: "Anchor-5" 365 0 baselig 1
AnchorPoint: "Anchor-4" 536 740 baselig 1
LayerCount: 3
Fore
SplineSet
53 0 m 1
 190 595 l 2
 198.666666667 633.666666667 216.333333333 664.166666667 243 686.5 c 128
 269.666666667 708.833333333 306.333333333 720 353 720 c 2
 548 720 l 1
 533 658 l 1
 356 658 l 2
 328.666666667 658 307.833333333 651 293.5 637 c 128
 279.166666667 623 269.333333333 604.666666667 264 582 c 2
 130 0 l 1
 53 0 l 1
60 445 m 1
 75 510 l 1
 355 510 l 1
 341 445 l 1
 60 445 l 1
354 0 m 1
 520 720 l 1
 597 720 l 1
 431 0 l 1
 354 0 l 1
EndSplineSet
Ligature2: "'liga' Standard Ligatures in Latin lookup 21 subtable" f l
LCarets2: 1 283
EndChar

StartChar: w_w_w.liga
Encoding: 65621 -1 314
Width: 1975
GlyphClass: 3
LigCaretCntFixed: 1
Flags: HW
AnchorPoint: "Anchor-5" 270 0 baselig 0
AnchorPoint: "Anchor-4" 388 510 baselig 0
AnchorPoint: "Anchor-5" 929 0 baselig 1
AnchorPoint: "Anchor-4" 1047 510 baselig 1
AnchorPoint: "Anchor-5" 1587 0 baselig 2
AnchorPoint: "Anchor-4" 1705 510 baselig 2
LayerCount: 3
Fore
SplineSet
118 0 m 1
 88 510 l 1
 163 510 l 1
 176 79 l 1
 156 79 l 1
 391 510 l 1
 451 510 l 1
 488 79 l 1
 468 79 l 1
 702 510 l 1
 763 510 l 1
 799 79 l 1
 779 79 l 1
 1014 510 l 1
 1075 510 l 1
 1112 79 l 1
 1092 79 l 1
 1327 510 l 1
 1387 510 l 1
 1424 79 l 1
 1404 79 l 1
 1639 510 l 1
 1700 510 l 1
 1736 79 l 1
 1716 79 l 1
 1927 510 l 1
 2005 510 l 1
 1739 0 l 1
 1679 0 l 1
 1641 422 l 1
 1661 422 l 1
 1427 0 l 1
 1366 0 l 1
 1329 422 l 1
 1349 422 l 1
 1114 0 l 1
 1054 0 l 1
 1017 422 l 1
 1037 422 l 1
 802 0 l 1
 742 0 l 1
 705 422 l 1
 725 422 l 1
 491 0 l 1
 430 0 l 1
 393 422 l 1
 413 422 l 1
 178 0 l 1
 118 0 l 1
EndSplineSet
Ligature2: "'liga' Standard Ligatures in Latin lookup 21 subtable" w w w
LCarets2: 2 659 1316
EndChar

StartChar: f_f_i.ss01
Encoding: 65622 -1 315
Width: 868
GlyphClass: 3
LigCaretCntFixed: 1
Flags: HW
AnchorPoint: "Anchor-5" 87 0 baselig 0
AnchorPoint: "Anchor-4" 258 740 baselig 0
AnchorPoint: "Anchor-5" 377 0 baselig 1
AnchorPoint: "Anchor-4" 548 740 baselig 1
AnchorPoint: "Anchor-5" 667 0 baselig 2
AnchorPoint: "Anchor-4" 838 740 baselig 2
LayerCount: 3
Fore
SplineSet
354 0 m 1
 493 605 l 2
 501.666666667 643.666666667 519.333333333 674.166666667 546 696.5 c 128
 572.666666667 718.833333333 609 730 655 730 c 0
 666.333333333 730 678 729.166666667 690 727.5 c 128
 702 725.833333333 712.333333333 723.333333333 721 720 c 1
 706 659 l 1
 701.333333333 661.666666667 694.5 663.666666667 685.5 665 c 128
 676.5 666.333333333 667.666666667 667 659 667 c 0
 631.666666667 667 610.833333333 660.166666667 596.5 646.5 c 128
 582.166666667 632.833333333 572.333333333 614.666666667 567 592 c 2
 431 0 l 1
 354 0 l 1
53 0 m 1
 192 605 l 2
 200.666666667 643.666666667 218.333333333 674.166666667 245 696.5 c 128
 271.666666667 718.833333333 308.333333333 730 355 730 c 0
 366.333333333 730 377.833333333 729.166666667 389.5 727.5 c 128
 401.166666667 725.833333333 411.333333333 723.333333333 420 720 c 1
 405 659 l 1
 400.333333333 661.666666667 393.666666667 663.666666667 385 665 c 128
 376.333333333 666.333333333 367.333333333 667 358 667 c 0
 330.666666667 667 309.833333333 660.166666667 295.5 646.5 c 128
 281.166666667 632.833333333 271.333333333 614.666666667 266 592 c 2
 130 0 l 1
 53 0 l 1
60 445 m 1
 75 510 l 1
 813 510 l 1
 798 445 l 1
 60 445 l 1
655 0 m 1
 773 510 l 1
 850 510 l 1
 732 0 l 1
 655 0 l 1
839 606 m 0
 824.333333333 606 812.833333333 611 804.5 621 c 128
 796.166666667 631 792 642.666666667 792 656 c 0
 792 674 798 688.5 810 699.5 c 128
 822 710.5 836.333333333 716 853 716 c 0
 867 716 878.333333333 711.5 887 702.5 c 128
 895.666666667 693.5 900 682 900 668 c 0
 900 650 893.833333333 635.166666667 881.5 623.5 c 128
 869.166666667 611.833333333 855 606 839 606 c 0
EndSplineSet
LCarets2: 2 290 582
EndChar

StartChar: f_i.ss01
Encoding: 65623 -1 316
Width: 577
GlyphClass: 3
LigCaretCntFixed: 1
Flags: HW
AnchorPoint: "Anchor-5" 85 0 baselig 0
AnchorPoint: "Anchor-4" 256 740 baselig 0
AnchorPoint: "Anchor-5" 374 0 baselig 1
AnchorPoint: "Anchor-4" 545 740 baselig 1
LayerCount: 3
Fore
SplineSet
53 0 m 1
 192 605 l 2
 200.666666667 643.666666667 218.333333333 674.166666667 245 696.5 c 128
 271.666666667 718.833333333 308 730 354 730 c 0
 365.333333333 730 377 729.166666667 389 727.5 c 128
 401 725.833333333 411.333333333 723.333333333 420 720 c 1
 405 659 l 1
 400.333333333 661.666666667 393.5 663.666666667 384.5 665 c 128
 375.5 666.333333333 366.666666667 667 358 667 c 0
 330.666666667 667 309.833333333 660.166666667 295.5 646.5 c 128
 281.166666667 632.833333333 271.333333333 614.666666667 266 592 c 2
 130 0 l 1
 53 0 l 1
354 0 m 1
 472 510 l 1
 549 510 l 1
 431 0 l 1
 354 0 l 1
538 606 m 0
 523.333333333 606 511.833333333 611 503.5 621 c 128
 495.166666667 631 491 642.666666667 491 656 c 0
 491 674 497 688.5 509 699.5 c 128
 521 710.5 535.333333333 716 552 716 c 0
 566 716 577.333333333 711.5 586 702.5 c 128
 594.666666667 693.5 599 682 599 668 c 0
 599 650 592.833333333 635.166666667 580.5 623.5 c 128
 568.166666667 611.833333333 554 606 538 606 c 0
60 445 m 1
 75 510 l 1
 512 510 l 1
 497 445 l 1
 60 445 l 1
EndSplineSet
LCarets2: 1 289
EndChar

StartChar: ordfeminine
Encoding: 170 170 317
Width: 349
GlyphClass: 1
Flags: HW
LayerCount: 3
Fore
SplineSet
270 418 m 1
 269.333333333 424 269.5 431.166666667 270.5 439.5 c 128
 271.5 447.833333333 273.333333333 457.333333333 276 468 c 1
 273 469 l 1
 307 620 l 2
 309.666666667 634.666666667 308.333333333 648.333333333 303 661 c 128
 297.666666667 673.666666667 283.666666667 680 261 680 c 0
 243 680 229.5 675.833333333 220.5 667.5 c 128
 211.5 659.166666667 204.333333333 648.333333333 199 635 c 1
 142 635 l 1
 151.333333333 665 166 688.333333333 186 705 c 128
 206 721.666666667 232.666666667 730 266 730 c 0
 293.333333333 730 315.166666667 724.666666667 331.5 714 c 128
 347.833333333 703.333333333 358.833333333 689 364.5 671 c 128
 370.166666667 653 370.333333333 633 365 611 c 2
 331 461 l 2
 329 452.333333333 327.666666667 444.5 327 437.5 c 128
 326.333333333 430.5 326.333333333 424 327 418 c 1
 270 418 l 1
187 412 m 0
 161 412 140.166666667 419 124.5 433 c 128
 108.833333333 447 101 465.333333333 101 488 c 0
 101 513.333333333 110.833333333 534.666666667 130.5 552 c 128
 150.166666667 569.333333333 180.666666667 582.333333333 222 591 c 2
 317 613 l 1
 306 567 l 1
 224 548 l 2
 206.666666667 544 192.166666667 538.333333333 180.5 531 c 128
 168.833333333 523.666666667 163 511.666666667 163 495 c 0
 163 471 179.333333333 459 212 459 c 0
 229.333333333 459 244.666666667 464 258 474 c 128
 271.333333333 484 280.333333333 499.333333333 285 520 c 1
 282 472 l 1
 268.666666667 449.333333333 253.833333333 433.666666667 237.5 425 c 128
 221.166666667 416.333333333 204.333333333 412 187 412 c 0
EndSplineSet
EndChar

StartChar: ordmasculine
Encoding: 186 186 318
Width: 388
GlyphClass: 1
Flags: HW
LayerCount: 3
Fore
SplineSet
247 412 m 0
 207.666666667 412 176.666666667 424.5 154 449.5 c 128
 131.333333333 474.5 120 506.333333333 120 545 c 0
 120 567 123.666666667 588.833333333 131 610.5 c 128
 138.333333333 632.166666667 149.166666667 652.166666667 163.5 670.5 c 128
 177.833333333 688.833333333 195.333333333 703.333333333 216 714 c 128
 236.666666667 724.666666667 259.666666667 730 285 730 c 0
 309.666666667 730 331.666666667 724.666666667 351 714 c 128
 370.333333333 703.333333333 385.666666667 688.333333333 397 669 c 128
 408.333333333 649.666666667 414 626 414 598 c 0
 414 576 410 554.166666667 402 532.5 c 128
 394 510.833333333 382.833333333 490.833333333 368.5 472.5 c 128
 354.166666667 454.166666667 336.833333333 439.5 316.5 428.5 c 128
 296.166666667 417.5 273 412 247 412 c 0
252 464 m 0
 269.333333333 464 284.333333333 468.666666667 297 478 c 128
 309.666666667 487.333333333 320.166666667 499.333333333 328.5 514 c 128
 336.833333333 528.666666667 343 543.666666667 347 559 c 128
 351 574.333333333 353 588.333333333 353 601 c 0
 353 624.333333333 346.5 643 333.5 657 c 128
 320.5 671 303.333333333 678 282 678 c 0
 264 678 248.5 673.333333333 235.5 664 c 128
 222.5 654.666666667 212 642.833333333 204 628.5 c 128
 196 614.166666667 190.166666667 599.333333333 186.5 584 c 128
 182.833333333 568.666666667 181 555.333333333 181 544 c 0
 181 520.666666667 187.5 501.5 200.5 486.5 c 128
 213.5 471.5 230.666666667 464 252 464 c 0
EndSplineSet
EndChar

StartChar: zero
Encoding: 48 48 319
Width: 615
GlyphClass: 1
Flags: HW
LayerCount: 3
Fore
SplineSet
275 -9 m 0
 231 -9 193.166666667 2.16666666667 161.5 24.5 c 128
 129.833333333 46.8333333333 105.5 77.6666666667 88.5 117 c 128
 71.5 156.333333333 63 202.333333333 63 255 c 0
 63 285.666666667 66 318.5 72 353.5 c 128
 78 388.5 87 423.833333333 99 459.5 c 128
 111 495.166666667 126 529 144 561 c 128
 162 593 183 621.666666667 207 647 c 128
 231 672.333333333 258.166666667 692.333333333 288.5 707 c 128
 318.833333333 721.666666667 351.666666667 729 387 729 c 0
 431 729 468.833333333 718.333333333 500.5 697 c 128
 532.166666667 675.666666667 556.833333333 645.5 574.5 606.5 c 128
 592.166666667 567.5 601 521.333333333 601 468 c 0
 601 437.333333333 597.833333333 404.5 591.5 369.5 c 128
 585.166666667 334.5 576 299.166666667 564 263.5 c 128
 552 227.833333333 536.833333333 193.666666667 518.5 161 c 128
 500.166666667 128.333333333 479 99.3333333333 455 74 c 128
 431 48.6666666667 403.833333333 28.5 373.5 13.5 c 128
 343.166666667 -1.5 310.333333333 -9 275 -9 c 0
278 61 m 0
 306 61 331.333333333 68 354 82 c 128
 376.666666667 96 396.833333333 115 414.5 139 c 128
 432.166666667 163 447.5 190 460.5 220 c 128
 473.5 250 484.333333333 280.666666667 493 312 c 128
 501.666666667 343.333333333 508 373.666666667 512 403 c 128
 516 432.333333333 518 458.333333333 518 481 c 0
 518 538.333333333 506 582.5 482 613.5 c 128
 458 644.5 425.333333333 660 384 660 c 0
 356 660 330.666666667 652.833333333 308 638.5 c 128
 285.333333333 624.166666667 265.166666667 605.333333333 247.5 582 c 128
 229.833333333 558.666666667 214.666666667 532.333333333 202 503 c 128
 189.333333333 473.666666667 178.833333333 443.333333333 170.5 412 c 128
 162.166666667 380.666666667 156 350.5 152 321.5 c 128
 148 292.5 146 266.666666667 146 244 c 0
 146 187.333333333 157.5 142.666666667 180.5 110 c 128
 203.5 77.3333333333 236 61 278 61 c 0
EndSplineSet
Substitution2: "'tnum' Tabular Numbers in Latin lookup 19 subtable" zero.tf
Substitution2: "'aalt' Access All Alternates in Latin lookup 0 subtable" zero.tf
EndChar

StartChar: one
Encoding: 49 49 320
Width: 367
GlyphClass: 1
Flags: HW
LayerCount: 3
Fore
SplineSet
149 0 m 1
 295 636 l 1
 313 626 l 1
 313 626 313 626 156 549 c 5
 172 623 l 5
 172 623 172 623 335 720 c 1
 392 720 l 1
 226 0 l 1
 149 0 l 1
EndSplineSet
Substitution2: "'tnum' Tabular Numbers in Latin lookup 19 subtable" one.tf
Substitution2: "'aalt' Access All Alternates in Latin lookup 0 subtable" one.tf
EndChar

StartChar: two
Encoding: 50 50 321
Width: 510
GlyphClass: 1
Flags: HW
LayerCount: 3
Fore
SplineSet
-17 0 m 1
 -1 67 l 1
 79 126.333333333 147.666666667 179.833333333 205 227.5 c 128
 262.333333333 275.166666667 309 318.333333333 345 357 c 128
 381 395.666666667 407.666666667 431.333333333 425 464 c 128
 442.333333333 496.666666667 451 527.666666667 451 557 c 0
 451 589.666666667 441.166666667 615 421.5 633 c 128
 401.833333333 651 374.333333333 660 339 660 c 0
 299 660 265 647.666666667 237 623 c 128
 209 598.333333333 187.666666667 562 173 514 c 1
 94 514 l 1
 112 583.333333333 143 636.5 187 673.5 c 128
 231 710.5 284 729 346 729 c 0
 385.333333333 729 419 722.166666667 447 708.5 c 128
 475 694.833333333 496.666666667 675.666666667 512 651 c 128
 527.333333333 626.333333333 535 597 535 563 c 0
 535 527.666666667 525.666666667 490.833333333 507 452.5 c 128
 488.333333333 414.166666667 460.166666667 373.666666667 422.5 331 c 128
 384.833333333 288.333333333 337 242.666666667 279 194 c 128
 221 145.333333333 152.333333333 92.6666666667 73 36 c 1
 61 69 l 1
 439 69 l 1
 423 0 l 1
 -17 0 l 1
EndSplineSet
Substitution2: "'ss10' Style Set 10 in Latin lookup 31 subtable" two.ss10
Substitution2: "'tnum' Tabular Numbers in Latin lookup 19 subtable" two.tf
AlternateSubs2: "'aalt' Access All Alternates in Latin lookup 1 subtable" two.ss10 two.tf
EndChar

StartChar: three
Encoding: 51 51 322
Width: 533
GlyphClass: 1
Flags: HW
LayerCount: 3
Fore
SplineSet
240 -10 m 0
 203.333333333 -10 170.5 -4 141.5 8 c 128
 112.5 20 88.8333333333 36.5 70.5 57.5 c 128
 52.1666666667 78.5 39.3333333333 102.833333333 32 130.5 c 128
 24.6666666667 158.166666667 23.6666666667 187 29 217 c 1
 107 217 l 1
 104.333333333 195.666666667 105.333333333 175.5 110 156.5 c 128
 114.666666667 137.5 122.833333333 120.666666667 134.5 106 c 128
 146.166666667 91.3333333333 161.166666667 79.8333333333 179.5 71.5 c 128
 197.833333333 63.1666666667 219 59 243 59 c 256
 267 59 288.5 63.5 307.5 72.5 c 128
 326.5 81.5 342.666666667 93.6666666667 356 109 c 128
 369.333333333 124.333333333 379.333333333 141.833333333 386 161.5 c 128
 392.666666667 181.166666667 396 202 396 224 c 0
 396 259.333333333 386.666666667 288 368 310 c 128
 349.333333333 332 323.666666667 343 291 343 c 2
 212 343 l 1
 227 411 l 1
 304 411 l 2
 336 411 363.5 417.333333333 386.5 430 c 128
 409.5 442.666666667 427.333333333 459.666666667 440 481 c 128
 452.666666667 502.333333333 459 526.333333333 459 553 c 0
 459 587 448.833333333 613.166666667 428.5 631.5 c 128
 408.166666667 649.833333333 379.333333333 659 342 659 c 0
 304 659 271.666666667 647.5 245 624.5 c 128
 218.333333333 601.5 199 567 187 521 c 1
 106 521 l 1
 122.666666667 588.333333333 151.833333333 639.833333333 193.5 675.5 c 128
 235.166666667 711.166666667 285.333333333 729 344 729 c 0
 384 729 419 722 449 708 c 128
 479 694 502.333333333 674.5 519 649.5 c 128
 535.666666667 624.5 544 595 544 561 c 0
 544 532.333333333 538.333333333 505.5 527 480.5 c 128
 515.666666667 455.5 500 433.833333333 480 415.5 c 128
 460 397.166666667 437.333333333 383.666666667 412 375 c 128
 386.666666667 366.333333333 359.666666667 364 331 368 c 1
 330 388 l 1
 376.666666667 382 413.166666667 364.166666667 439.5 334.5 c 128
 465.833333333 304.833333333 479 266.333333333 479 219 c 0
 479 188.333333333 473.5 159.333333333 462.5 132 c 128
 451.5 104.666666667 435.666666667 80.1666666667 415 58.5 c 128
 394.333333333 36.8333333333 369.333333333 20 340 8 c 128
 310.666666667 -4 277.333333333 -10 240 -10 c 0
EndSplineSet
Substitution2: "'tnum' Tabular Numbers in Latin lookup 19 subtable" three.tf
Substitution2: "'aalt' Access All Alternates in Latin lookup 0 subtable" three.tf
EndChar

StartChar: four
Encoding: 52 52 323
Width: 553
GlyphClass: 1
Flags: HW
LayerCount: 3
Fore
SplineSet
297 0 m 1
 341 188 l 1
 346 208 l 1
 439 610 l 1
 467 610 l 1
 101 202 l 1
 79 234 l 1
 521 234 l 1
 505 165 l 1
 9 165 l 1
 23 224 l 1
 467 720 l 1
 545 720 l 1
 379 0 l 1
 297 0 l 1
EndSplineSet
Substitution2: "'tnum' Tabular Numbers in Latin lookup 19 subtable" four.tf
Substitution2: "'aalt' Access All Alternates in Latin lookup 0 subtable" four.tf
EndChar

StartChar: five
Encoding: 53 53 324
Width: 537
GlyphClass: 1
Flags: HW
LayerCount: 3
Fore
SplineSet
236 -10 m 0
 198 -10 165.333333333 -3.83333333333 138 8.5 c 128
 110.666666667 20.8333333333 88.3333333333 37.3333333333 71 58 c 128
 53.6666666667 78.6666666667 41.5 101.333333333 34.5 126 c 128
 27.5 150.666666667 26 175.333333333 30 200 c 1
 110 200 l 1
 107.333333333 176 110.333333333 153.166666667 119 131.5 c 128
 127.666666667 109.833333333 142 92.5 162 79.5 c 128
 182 66.5 207.333333333 60 238 60 c 0
 259.333333333 60 278.833333333 64 296.5 72 c 128
 314.166666667 80 329.833333333 91 343.5 105 c 128
 357.166666667 119 368.833333333 135 378.5 153 c 128
 388.166666667 171 395.333333333 190.166666667 400 210.5 c 128
 404.666666667 230.833333333 407 250.666666667 407 270 c 0
 407 314.666666667 395.5 348.166666667 372.5 370.5 c 128
 349.5 392.833333333 318 404 278 404 c 0
 252 404 228.333333333 399 207 389 c 128
 185.666666667 379 168.333333333 364 155 344 c 1
 89 344 l 1
 203 720 l 1
 560 720 l 1
 544 651 l 1
 237 651 l 1
 268 678 l 1
 183 396 l 1
 171 414 l 1
 184.333333333 430 202.333333333 443 225 453 c 128
 247.666666667 463 274 468 304 468 c 0
 341.333333333 468 374 460 402 444 c 128
 430 428 452 405 468 375 c 128
 484 345 492 309 492 267 c 0
 492 239 488 211.5 480 184.5 c 128
 472 157.5 460.833333333 132.166666667 446.5 108.5 c 128
 432.166666667 84.8333333333 414.5 64.1666666667 393.5 46.5 c 128
 372.5 28.8333333333 348.833333333 15 322.5 5 c 128
 296.166666667 -5 267.333333333 -10 236 -10 c 0
EndSplineSet
Substitution2: "'tnum' Tabular Numbers in Latin lookup 19 subtable" five.tf
Substitution2: "'aalt' Access All Alternates in Latin lookup 0 subtable" five.tf
EndChar

StartChar: six
Encoding: 54 54 325
Width: 558
GlyphClass: 1
Flags: HW
LayerCount: 3
Fore
SplineSet
263 -11 m 0
 221 -11 184.666666667 -1.83333333333 154 16.5 c 128
 123.333333333 34.8333333333 99.6666666667 61.6666666667 83 97 c 128
 66.3333333333 132.333333333 58 176 58 228 c 0
 58 256 60.6666666667 287.833333333 66 323.5 c 128
 71.3333333333 359.166666667 79.6666666667 395.666666667 91 433 c 128
 102.333333333 470.333333333 116.833333333 506.5 134.5 541.5 c 128
 152.166666667 576.5 173 608.166666667 197 636.5 c 128
 221 664.833333333 248.5 687.166666667 279.5 703.5 c 128
 310.5 719.833333333 345.333333333 728 384 728 c 0
 426 728 461.333333333 718.333333333 490 699 c 128
 518.666666667 679.666666667 539.5 655.333333333 552.5 626 c 128
 565.5 596.666666667 569.666666667 566 565 534 c 1
 484 534 l 1
 487.333333333 551.333333333 485.833333333 569.666666667 479.5 589 c 128
 473.166666667 608.333333333 461.666666667 624.666666667 445 638 c 128
 428.333333333 651.333333333 405.666666667 658 377 658 c 0
 345 658 315 647.833333333 287 627.5 c 128
 259 607.166666667 234 575.833333333 212 533.5 c 128
 190 491.166666667 171.666666667 437.333333333 157 372 c 2
 145 316 l 1
 131 324 l 1
 147.666666667 363.333333333 174 394.5 210 417.5 c 128
 246 440.5 285.333333333 452 328 452 c 0
 362 452 393 444.333333333 421 429 c 128
 449 413.666666667 471.333333333 391.666666667 488 363 c 128
 504.666666667 334.333333333 513 299 513 257 c 0
 513 224.333333333 507.5 192 496.5 160 c 128
 485.5 128 469.166666667 99.1666666667 447.5 73.5 c 128
 425.833333333 47.8333333333 399.666666667 27.3333333333 369 12 c 128
 338.333333333 -3.33333333333 303 -11 263 -11 c 0
269 60 m 0
 297.666666667 60 322 66.6666666667 342 80 c 128
 362 93.3333333333 378.333333333 110.333333333 391 131 c 128
 403.666666667 151.666666667 412.833333333 173.5 418.5 196.5 c 128
 424.166666667 219.5 427 240 427 258 c 0
 427 286.666666667 421.333333333 310.333333333 410 329 c 128
 398.666666667 347.666666667 383.666666667 361.5 365 370.5 c 128
 346.333333333 379.5 325.666666667 384 303 384 c 0
 276.333333333 384 252.833333333 378.5 232.5 367.5 c 128
 212.166666667 356.5 195 341.833333333 181 323.5 c 128
 167 305.166666667 156.5 285 149.5 263 c 128
 142.5 241 139 219 139 197 c 0
 139 155 151.166666667 121.666666667 175.5 97 c 128
 199.833333333 72.3333333333 231 60 269 60 c 0
EndSplineSet
Substitution2: "'tnum' Tabular Numbers in Latin lookup 19 subtable" six.tf
Substitution2: "'aalt' Access All Alternates in Latin lookup 0 subtable" six.tf
EndChar

StartChar: seven
Encoding: 55 55 326
Width: 495
GlyphClass: 1
Flags: HW
LayerCount: 3
Fore
SplineSet
92 0 m 1
 126.666666667 113.333333333 176.666666667 226 242 338 c 128
 307.333333333 450 391.666666667 564 495 680 c 1
 508 651 l 1
 114 651 l 1
 129 720 l 1
 581 720 l 1
 568 663 l 1
 500 585 441.166666667 509.5 391.5 436.5 c 128
 341.833333333 363.5 300.166666667 291.166666667 266.5 219.5 c 128
 232.833333333 147.833333333 204.666666667 74.6666666667 182 0 c 1
 92 0 l 1
EndSplineSet
Substitution2: "'tnum' Tabular Numbers in Latin lookup 19 subtable" seven.tf
Substitution2: "'aalt' Access All Alternates in Latin lookup 0 subtable" seven.tf
EndChar

StartChar: eight
Encoding: 56 56 327
Width: 542
GlyphClass: 1
Flags: HW
LayerCount: 3
Fore
SplineSet
245 -10 m 0
 204.333333333 -10 167.833333333 -2.33333333333 135.5 13 c 128
 103.166666667 28.3333333333 77.3333333333 50 58 78 c 128
 38.6666666667 106 29 139 29 177 c 0
 29 207 34.8333333333 235 46.5 261 c 128
 58.1666666667 287 74 309.833333333 94 329.5 c 128
 114 349.166666667 137.166666667 364.833333333 163.5 376.5 c 128
 189.833333333 388.166666667 217.666666667 394 247 394 c 1
 250 378 l 1
 226 378 204.333333333 384.666666667 185 398 c 128
 165.666666667 411.333333333 150.666666667 428.833333333 140 450.5 c 128
 129.333333333 472.166666667 124 496.333333333 124 523 c 0
 124 550.333333333 129.333333333 576.5 140 601.5 c 128
 150.666666667 626.5 165.833333333 648.5 185.5 667.5 c 128
 205.166666667 686.5 228.833333333 701.666666667 256.5 713 c 128
 284.166666667 724.333333333 314.666666667 730 348 730 c 0
 386.666666667 730 421.166666667 722.666666667 451.5 708 c 128
 481.833333333 693.333333333 505.666666667 673.166666667 523 647.5 c 128
 540.333333333 621.833333333 549 591.666666667 549 557 c 0
 549 531.666666667 544 507.5 534 484.5 c 128
 524 461.5 510.166666667 441 492.5 423 c 128
 474.833333333 405 454 390.833333333 430 380.5 c 128
 406 370.166666667 379.666666667 365 351 365 c 1
 350 379 l 1
 376 379 399.166666667 371.833333333 419.5 357.5 c 128
 439.833333333 343.166666667 456.166666667 323.833333333 468.5 299.5 c 128
 480.833333333 275.166666667 487 248 487 218 c 0
 487 188.666666667 481.333333333 160.333333333 470 133 c 128
 458.666666667 105.666666667 442.333333333 81.1666666667 421 59.5 c 128
 399.666666667 37.8333333333 374.166666667 20.8333333333 344.5 8.5 c 128
 314.833333333 -3.83333333333 281.666666667 -10 245 -10 c 0
245 60 m 0
 269 60 290.666666667 64.5 310 73.5 c 128
 329.333333333 82.5 345.833333333 94.5 359.5 109.5 c 128
 373.166666667 124.5 383.666666667 141.666666667 391 161 c 128
 398.333333333 180.333333333 402 200.333333333 402 221 c 0
 402 259.666666667 389.5 289.833333333 364.5 311.5 c 128
 339.5 333.166666667 308 344 270 344 c 0
 245.333333333 344 223.333333333 339.5 204 330.5 c 128
 184.666666667 321.5 168.333333333 309.166666667 155 293.5 c 128
 141.666666667 277.833333333 131.5 260.5 124.5 241.5 c 128
 117.5 222.5 114 203.333333333 114 184 c 0
 114 143.333333333 127 112.5 153 91.5 c 128
 179 70.5 209.666666667 60 245 60 c 0
325 411 m 0
 346.333333333 411 365.666666667 414.833333333 383 422.5 c 128
 400.333333333 430.166666667 415.166666667 440.666666667 427.5 454 c 128
 439.833333333 467.333333333 449.166666667 482.333333333 455.5 499 c 128
 461.833333333 515.666666667 465 533 465 551 c 0
 465 585 454 611.833333333 432 631.5 c 128
 410 651.166666667 382.333333333 661 349 661 c 0
 327.666666667 661 308.333333333 657 291 649 c 128
 273.666666667 641 258.666666667 630.166666667 246 616.5 c 128
 233.333333333 602.833333333 223.833333333 587.666666667 217.5 571 c 128
 211.166666667 554.333333333 208 537 208 519 c 0
 208 485.666666667 219 459.333333333 241 440 c 128
 263 420.666666667 291 411 325 411 c 0
EndSplineSet
Substitution2: "'tnum' Tabular Numbers in Latin lookup 19 subtable" eight.tf
Substitution2: "'aalt' Access All Alternates in Latin lookup 0 subtable" eight.tf
EndChar

StartChar: nine
Encoding: 57 57 328
Width: 566
GlyphClass: 1
Flags: HW
LayerCount: 3
Fore
SplineSet
225 -11 m 0
 182.333333333 -11 146.5 -1.16666666667 117.5 18.5 c 128
 88.5 38.1666666667 67.5 64.5 54.5 97.5 c 128
 41.5 130.5 37.3333333333 167 42 207 c 1
 124 207 l 1
 120.666666667 181 121.833333333 156.833333333 127.5 134.5 c 128
 133.166666667 112.166666667 144.5 94 161.5 80 c 128
 178.5 66 202.333333333 59 233 59 c 0
 267.666666667 59 298.666666667 69.6666666667 326 91 c 128
 353.333333333 112.333333333 377.166666667 145 397.5 189 c 128
 417.833333333 233 435 288.333333333 449 355 c 2
 461 411 l 1
 474 403 l 1
 463.333333333 377 448 354.5 428 335.5 c 128
 408 316.5 385.166666667 301.833333333 359.5 291.5 c 128
 333.833333333 281.166666667 307.333333333 276 280 276 c 0
 246.666666667 276 216.166666667 283.333333333 188.5 298 c 128
 160.833333333 312.666666667 138.666666667 334.166666667 122 362.5 c 128
 105.333333333 390.833333333 97 425 97 465 c 0
 97 497 102.5 528.5 113.5 559.5 c 128
 124.5 590.5 140.5 618.666666667 161.5 644 c 128
 182.5 669.333333333 208.5 689.666666667 239.5 705 c 128
 270.5 720.333333333 305.333333333 728 344 728 c 0
 386 728 422.333333333 719 453 701 c 128
 483.666666667 683 507.166666667 656.5 523.5 621.5 c 128
 539.833333333 586.5 548 543.333333333 548 492 c 0
 548 465.333333333 545.5 434.5 540.5 399.5 c 128
 535.5 364.5 527.666666667 328 517 290 c 128
 506.333333333 252 492.5 215.166666667 475.5 179.5 c 128
 458.5 143.833333333 438 111.833333333 414 83.5 c 128
 390 55.1666666667 362.5 32.3333333333 331.5 15 c 128
 300.5 -2.33333333333 265 -11 225 -11 c 0
305 343 m 0
 331 343 354 348.5 374 359.5 c 128
 394 370.5 411 385 425 403 c 128
 439 421 449.5 440.666666667 456.5 462 c 128
 463.5 483.333333333 467 504.333333333 467 525 c 0
 467 564.333333333 455 596.333333333 431 621 c 128
 407 645.666666667 376 658 338 658 c 0
 310 658 286 651.166666667 266 637.5 c 128
 246 623.833333333 229.833333333 606.833333333 217.5 586.5 c 128
 205.166666667 566.166666667 196.166666667 545 190.5 523 c 128
 184.833333333 501 182 481.333333333 182 464 c 0
 182 437.333333333 187.666666667 415 199 397 c 128
 210.333333333 379 225.333333333 365.5 244 356.5 c 128
 262.666666667 347.5 283 343 305 343 c 0
EndSplineSet
Substitution2: "'tnum' Tabular Numbers in Latin lookup 19 subtable" nine.tf
Substitution2: "'aalt' Access All Alternates in Latin lookup 0 subtable" nine.tf
EndChar

StartChar: two.ss10
Encoding: 65624 -1 329
Width: 510
GlyphClass: 1
Flags: HW
LayerCount: 3
Fore
SplineSet
-17 0 m 1
 2 80 l 2
 11.3333333333 118 26.3333333333 151.166666667 47 179.5 c 128
 67.6666666667 207.833333333 91.6666666667 232.833333333 119 254.5 c 128
 146.333333333 276.166666667 175 295.833333333 205 313.5 c 128
 235 331.166666667 264.5 348.333333333 293.5 365 c 128
 322.5 381.666666667 348.666666667 398.833333333 372 416.5 c 128
 395.333333333 434.166666667 414 454.333333333 428 477 c 128
 442 499.666666667 449 525.666666667 449 555 c 0
 449 589 439.5 615.166666667 420.5 633.5 c 128
 401.5 651.833333333 375 661 341 661 c 0
 303 661 269 648.833333333 239 624.5 c 128
 209 600.166666667 187.333333333 563.333333333 174 514 c 1
 94 514 l 1
 112 585.333333333 143.166666667 639.166666667 187.5 675.5 c 128
 231.833333333 711.833333333 284.333333333 730 345 730 c 0
 380.333333333 730 412.333333333 723.666666667 441 711 c 128
 469.666666667 698.333333333 492.333333333 679.166666667 509 653.5 c 128
 525.666666667 627.833333333 534 595 534 555 c 0
 534 517 526.333333333 483.833333333 511 455.5 c 128
 495.666666667 427.166666667 475.666666667 402 451 380 c 128
 426.333333333 358 398.666666667 338 368 320 c 128
 337.333333333 302 306.5 284.166666667 275.5 266.5 c 128
 244.5 248.833333333 215.166666667 230.333333333 187.5 211 c 128
 159.833333333 191.666666667 136.166666667 169.833333333 116.5 145.5 c 128
 96.8333333333 121.166666667 84 92.6666666667 78 60 c 1
 60 69 l 1
 439 69 l 1
 423 0 l 1
 -17 0 l 1
EndSplineSet
EndChar

StartChar: zero.tf
Encoding: 65625 -1 330
Width: 575
GlyphClass: 1
Flags: HW
LayerCount: 3
Fore
SplineSet
253 -10 m 0
 211.666666667 -10 176 0.666666666667 146 22 c 128
 116 43.3333333333 92.8333333333 73.5 76.5 112.5 c 128
 60.1666666667 151.5 52 197 52 249 c 0
 52 280.333333333 55 313.666666667 61 349 c 128
 67 384.333333333 76 420 88 456 c 128
 100 492 114.833333333 526.333333333 132.5 559 c 128
 150.166666667 591.666666667 170.666666667 620.833333333 194 646.5 c 128
 217.333333333 672.166666667 243.833333333 692.5 273.5 707.5 c 128
 303.166666667 722.5 335.333333333 730 370 730 c 0
 412 730 448 719.5 478 698.5 c 128
 508 677.5 531.333333333 647.833333333 548 609.5 c 128
 564.666666667 571.166666667 573 525.666666667 573 473 c 0
 573 443 570 410 564 374 c 128
 558 338 548.833333333 302 536.5 266 c 128
 524.166666667 230 509.166666667 195.5 491.5 162.5 c 128
 473.833333333 129.5 453 100 429 74 c 128
 405 48 378.333333333 27.5 349 12.5 c 128
 319.666666667 -2.5 287.666666667 -10 253 -10 c 0
257 60 m 0
 284.333333333 60 308.666666667 67.3333333333 330 82 c 128
 351.333333333 96.6666666667 370.5 116.5 387.5 141.5 c 128
 404.5 166.5 419.166666667 194.333333333 431.5 225 c 128
 443.833333333 255.666666667 454 287.166666667 462 319.5 c 128
 470 351.833333333 476 382.833333333 480 412.5 c 128
 484 442.166666667 486 468.333333333 486 491 c 0
 486 544.333333333 475.5 586 454.5 616 c 128
 433.5 646 404 661 366 661 c 0
 338.666666667 661 314.166666667 653.666666667 292.5 639 c 128
 270.833333333 624.333333333 251.666666667 604.833333333 235 580.5 c 128
 218.333333333 556.166666667 203.833333333 528.833333333 191.5 498.5 c 128
 179.166666667 468.166666667 169.166666667 437 161.5 405 c 128
 153.833333333 373 148.166666667 342.333333333 144.5 313 c 128
 140.833333333 283.666666667 139 257.666666667 139 235 c 0
 139 181.666666667 148.833333333 139.166666667 168.5 107.5 c 128
 188.166666667 75.8333333333 217.666666667 60 257 60 c 0
EndSplineSet
Substitution2: "'pnum' Proportional Numbers in Latin lookup 18 subtable" zero
Substitution2: "'aalt' Access All Alternates in Latin lookup 0 subtable" zero
EndChar

StartChar: one.tf
Encoding: 65626 -1 331
Width: 575
GlyphClass: 1
Flags: HW
LayerCount: 3
Fore
SplineSet
237 20 m 1
 380 643 l 1
 396 633 l 1
 384.666666667 619 367.833333333 604.666666667 345.5 590 c 128
 323.166666667 575.333333333 297.5 563.166666667 268.5 553.5 c 128
 239.5 543.833333333 209 538.333333333 177 537 c 1
 194 612 l 1
 224.666666667 614 254.166666667 619.833333333 282.5 629.5 c 128
 310.833333333 639.166666667 336.5 651.833333333 359.5 667.5 c 128
 382.5 683.166666667 401.333333333 700.666666667 416 720 c 1
 477 720 l 1
 315 12 l 1
 237 20 l 1
46 0 m 1
 62 69 l 1
 490 69 l 1
 474 0 l 1
 46 0 l 1
EndSplineSet
Substitution2: "'pnum' Proportional Numbers in Latin lookup 18 subtable" one
Substitution2: "'aalt' Access All Alternates in Latin lookup 0 subtable" one
EndChar

StartChar: two.tf
Encoding: 65627 -1 332
Width: 575
GlyphClass: 1
Flags: HW
LayerCount: 3
Fore
SplineSet
22 0 m 1
 37 67 l 1
 114.333333333 126.333333333 180.666666667 179.833333333 236 227.5 c 128
 291.333333333 275.166666667 336.333333333 318.333333333 371 357 c 128
 405.666666667 395.666666667 431.166666667 431.333333333 447.5 464 c 128
 463.833333333 496.666666667 472 527.666666667 472 557 c 0
 472 589.666666667 462.666666667 615.166666667 444 633.5 c 128
 425.333333333 651.833333333 399.333333333 661 366 661 c 0
 329.333333333 661 298.666666667 648.5 274 623.5 c 128
 249.333333333 598.5 230 562 216 514 c 1
 133 514 l 1
 150.333333333 583.333333333 180.333333333 636.666666667 223 674 c 128
 265.666666667 711.333333333 317 730 377 730 c 0
 433 730 477.333333333 714.833333333 510 684.5 c 128
 542.666666667 654.166666667 559 613.666666667 559 563 c 0
 559 527.666666667 549.833333333 490.833333333 531.5 452.5 c 128
 513.166666667 414.166666667 485.5 373.666666667 448.5 331 c 128
 411.5 288.333333333 364.666666667 242.666666667 308 194 c 128
 251.333333333 145.333333333 184.666666667 92.6666666667 108 36 c 1
 97 69 l 1
 462 69 l 1
 446 0 l 1
 22 0 l 1
EndSplineSet
Substitution2: "'ss10' Style Set 10 in Latin lookup 31 subtable" two.tf.ss10
Substitution2: "'pnum' Proportional Numbers in Latin lookup 18 subtable" two
AlternateSubs2: "'aalt' Access All Alternates in Latin lookup 1 subtable" two two.tf.ss10
EndChar

StartChar: three.tf
Encoding: 65628 -1 333
Width: 575
GlyphClass: 1
Flags: HW
LayerCount: 3
Fore
SplineSet
263 -10 m 0
 226.333333333 -10 194.333333333 -4 167 8 c 128
 139.666666667 20 117 36.5 99 57.5 c 128
 81 78.5 68.6666666667 102.833333333 62 130.5 c 128
 55.3333333333 158.166666667 54 187 58 217 c 1
 142 217 l 1
 139.333333333 195.666666667 139.833333333 175.5 143.5 156.5 c 128
 147.166666667 137.5 154 120.666666667 164 106 c 128
 174 91.3333333333 187.166666667 79.8333333333 203.5 71.5 c 128
 219.833333333 63.1666666667 239.333333333 59 262 59 c 0
 284 59 304 63.3333333333 322 72 c 128
 340 80.6666666667 355.166666667 92.3333333333 367.5 107 c 128
 379.833333333 121.666666667 389.333333333 139.166666667 396 159.5 c 128
 402.666666667 179.833333333 406 201.333333333 406 224 c 0
 406 259.333333333 397.833333333 288 381.5 310 c 128
 365.166666667 332 340.666666667 343 308 343 c 2
 235 343 l 1
 250 411 l 1
 321 411 l 2
 351 411 377 417.333333333 399 430 c 128
 421 442.666666667 438.166666667 459.666666667 450.5 481 c 128
 462.833333333 502.333333333 469 526.333333333 469 553 c 0
 469 587 459.833333333 613.166666667 441.5 631.5 c 128
 423.166666667 649.833333333 396.666666667 659 362 659 c 0
 326 659 295.666666667 647.5 271 624.5 c 128
 246.333333333 601.5 228 567 216 521 c 1
 133 521 l 1
 149 588.333333333 177.833333333 639.833333333 219.5 675.5 c 128
 261.166666667 711.166666667 310.333333333 729 367 729 c 0
 405 729 438 722 466 708 c 128
 494 694 515.833333333 674.5 531.5 649.5 c 128
 547.166666667 624.5 555 595 555 561 c 0
 555 532.333333333 549.5 505.5 538.5 480.5 c 128
 527.5 455.5 512.5 433.833333333 493.5 415.5 c 128
 474.5 397.166666667 452.666666667 383.666666667 428 375 c 128
 403.333333333 366.333333333 377 364 349 368 c 1
 348 388 l 1
 393.333333333 382 428.833333333 364.166666667 454.5 334.5 c 128
 480.166666667 304.833333333 493 266.333333333 493 219 c 0
 493 188.333333333 487.666666667 159.333333333 477 132 c 128
 466.333333333 104.666666667 451 80.1666666667 431 58.5 c 128
 411 36.8333333333 386.833333333 20 358.5 8 c 128
 330.166666667 -4 298.333333333 -10 263 -10 c 0
EndSplineSet
Substitution2: "'pnum' Proportional Numbers in Latin lookup 18 subtable" three
Substitution2: "'aalt' Access All Alternates in Latin lookup 0 subtable" three
EndChar

StartChar: four.tf
Encoding: 65629 -1 334
Width: 575
GlyphClass: 1
Flags: HW
LayerCount: 3
Fore
SplineSet
302 0 m 1
 346 188 l 1
 351 208 l 1
 444 610 l 1
 472 610 l 1
 120 202 l 1
 97 234 l 1
 521 234 l 1
 505 165 l 1
 28 165 l 1
 42 224 l 1
 472 720 l 1
 550 720 l 1
 384 0 l 1
 302 0 l 1
EndSplineSet
Substitution2: "'pnum' Proportional Numbers in Latin lookup 18 subtable" four
Substitution2: "'aalt' Access All Alternates in Latin lookup 0 subtable" four
EndChar

StartChar: five.tf
Encoding: 65630 -1 335
Width: 575
GlyphClass: 1
Flags: HW
LayerCount: 3
Fore
SplineSet
254 -10 m 0
 218.666666667 -10 188 -3.83333333333 162 8.5 c 128
 136 20.8333333333 114.666666667 37.3333333333 98 58 c 128
 81.3333333333 78.6666666667 69.6666666667 101.333333333 63 126 c 128
 56.3333333333 150.666666667 55 175.333333333 59 200 c 1
 138 200 l 1
 136 176 139.166666667 153.333333333 147.5 132 c 128
 155.833333333 110.666666667 169.166666667 93.3333333333 187.5 80 c 128
 205.833333333 66.6666666667 228.666666667 60 256 60 c 0
 276.666666667 60 295.333333333 64 312 72 c 128
 328.666666667 80 343.5 91 356.5 105 c 128
 369.5 119 380.5 135 389.5 153 c 128
 398.5 171 405.333333333 190.166666667 410 210.5 c 128
 414.666666667 230.833333333 417 250.666666667 417 270 c 0
 417 314.666666667 406.333333333 348.166666667 385 370.5 c 128
 363.666666667 392.833333333 336 404 302 404 c 0
 278 404 256.666666667 399 238 389 c 128
 219.333333333 379 203.333333333 364 190 344 c 1
 124 344 l 1
 238 720 l 1
 581 720 l 1
 566 651 l 1
 272 651 l 1
 302 678 l 1
 218 396 l 1
 205 414 l 1
 219 430 236 443 256 453 c 128
 276 463 299.666666667 468 327 468 c 0
 361 468 391.166666667 460 417.5 444 c 128
 443.833333333 428 464.833333333 405 480.5 375 c 128
 496.166666667 345 504 309 504 267 c 0
 504 239 500.166666667 211.5 492.5 184.5 c 128
 484.833333333 157.5 473.833333333 132.166666667 459.5 108.5 c 128
 445.166666667 84.8333333333 427.833333333 64.1666666667 407.5 46.5 c 128
 387.166666667 28.8333333333 364 15 338 5 c 128
 312 -5 284 -10 254 -10 c 0
EndSplineSet
Substitution2: "'pnum' Proportional Numbers in Latin lookup 18 subtable" five
Substitution2: "'aalt' Access All Alternates in Latin lookup 0 subtable" five
EndChar

StartChar: six.tf
Encoding: 65631 -1 336
Width: 575
GlyphClass: 1
Flags: HW
LayerCount: 3
Fore
SplineSet
272 -11 m 0
 232.666666667 -11 198.166666667 -1.83333333333 168.5 16.5 c 128
 138.833333333 34.8333333333 116 61.5 100 96.5 c 128
 84 131.5 76 175 76 227 c 0
 76 255.666666667 78.5 287.666666667 83.5 323 c 128
 88.5 358.333333333 96.1666666667 394.833333333 106.5 432.5 c 128
 116.833333333 470.166666667 130.5 506.5 147.5 541.5 c 128
 164.5 576.5 184.5 608.166666667 207.5 636.5 c 128
 230.5 664.833333333 257.333333333 687.166666667 288 703.5 c 128
 318.666666667 719.833333333 353 728 391 728 c 0
 421 728 447.5 722.5 470.5 711.5 c 128
 493.5 700.5 512.666666667 685.833333333 528 667.5 c 128
 543.333333333 649.166666667 554.333333333 628.333333333 561 605 c 128
 567.666666667 581.666666667 569.333333333 558 566 534 c 1
 485 534 l 1
 487.666666667 552.666666667 486 571.666666667 480 591 c 128
 474 610.333333333 463 626.333333333 447 639 c 128
 431 651.666666667 408.666666667 658 380 658 c 0
 348 658 319 647.833333333 293 627.5 c 128
 267 607.166666667 244.166666667 575.833333333 224.5 533.5 c 128
 204.833333333 491.166666667 188 437.333333333 174 372 c 2
 162 316 l 1
 148 324 l 1
 159.333333333 350.666666667 174.833333333 373.333333333 194.5 392 c 128
 214.166666667 410.666666667 236.333333333 425.333333333 261 436 c 128
 285.666666667 446.666666667 311 452 337 452 c 0
 368.333333333 452 397.333333333 444.333333333 424 429 c 128
 450.666666667 413.666666667 472.166666667 391.666666667 488.5 363 c 128
 504.833333333 334.333333333 513 299 513 257 c 0
 513 224.333333333 507.5 192 496.5 160 c 128
 485.5 128 469.666666667 99.1666666667 449 73.5 c 128
 428.333333333 47.8333333333 403.166666667 27.3333333333 373.5 12 c 128
 343.833333333 -3.33333333333 310 -11 272 -11 c 0
278 60 m 0
 304.666666667 60 327.5 66.6666666667 346.5 80 c 128
 365.5 93.3333333333 381 110.333333333 393 131 c 128
 405 151.666666667 413.833333333 173.5 419.5 196.5 c 128
 425.166666667 219.5 428 240 428 258 c 0
 428 286.666666667 422.333333333 310.166666667 411 328.5 c 128
 399.666666667 346.833333333 385 360.666666667 367 370 c 128
 349 379.333333333 329.666666667 384 309 384 c 0
 285.666666667 384 264.5 378.5 245.5 367.5 c 128
 226.5 356.5 210.166666667 341.833333333 196.5 323.5 c 128
 182.833333333 305.166666667 172.5 285 165.5 263 c 128
 158.5 241 155 219 155 197 c 0
 155 155 166.833333333 121.666666667 190.5 97 c 128
 214.166666667 72.3333333333 243.333333333 60 278 60 c 0
EndSplineSet
Substitution2: "'pnum' Proportional Numbers in Latin lookup 18 subtable" six
Substitution2: "'aalt' Access All Alternates in Latin lookup 0 subtable" six
EndChar

StartChar: seven.tf
Encoding: 65632 -1 337
Width: 575
GlyphClass: 1
Flags: HW
LayerCount: 3
Fore
SplineSet
133 0 m 1
 157 76 186 151.333333333 220 226 c 128
 254 300.666666667 295.833333333 375.666666667 345.5 451 c 128
 395.166666667 526.333333333 454.666666667 602.666666667 524 680 c 1
 536 651 l 1
 162 651 l 1
 177 720 l 1
 613 720 l 1
 599 663 l 1
 502.333333333 546.333333333 424 434.5 364 327.5 c 128
 304 220.5 258 111.333333333 226 0 c 1
 133 0 l 1
EndSplineSet
Substitution2: "'pnum' Proportional Numbers in Latin lookup 18 subtable" seven
Substitution2: "'aalt' Access All Alternates in Latin lookup 0 subtable" seven
EndChar

StartChar: eight.tf
Encoding: 65633 -1 338
Width: 575
GlyphClass: 1
Flags: HW
LayerCount: 3
Fore
SplineSet
257 -10 m 0
 219.666666667 -10 185.5 -2.33333333333 154.5 13 c 128
 123.5 28.3333333333 99 50 81 78 c 128
 63 106 54 139 54 177 c 0
 54 207 59.8333333333 235 71.5 261 c 128
 83.1666666667 287 99 309.833333333 119 329.5 c 128
 139 349.166666667 162 364.833333333 188 376.5 c 128
 214 388.166666667 241.666666667 394 271 394 c 1
 275 378 l 1
 250.333333333 378 228.5 384.666666667 209.5 398 c 128
 190.5 411.333333333 175.666666667 428.833333333 165 450.5 c 128
 154.333333333 472.166666667 149 496.666666667 149 524 c 0
 149 550.666666667 154.333333333 576.5 165 601.5 c 128
 175.666666667 626.5 190.833333333 648.5 210.5 667.5 c 128
 230.166666667 686.5 253.333333333 701.666666667 280 713 c 128
 306.666666667 724.333333333 335.666666667 730 367 730 c 0
 403 730 435.333333333 722.666666667 464 708 c 128
 492.666666667 693.333333333 515.333333333 673.166666667 532 647.5 c 128
 548.666666667 621.833333333 557 591.666666667 557 557 c 0
 557 531.666666667 552 507.5 542 484.5 c 128
 532 461.5 518.166666667 441 500.5 423 c 128
 482.833333333 405 462 390.833333333 438 380.5 c 128
 414 370.166666667 387.666666667 365 359 365 c 1
 358 379 l 1
 384 379 407.333333333 371.833333333 428 357.5 c 128
 448.666666667 343.166666667 465 323.833333333 477 299.5 c 128
 489 275.166666667 495 247.666666667 495 217 c 0
 495 187.666666667 489.166666667 159.5 477.5 132.5 c 128
 465.833333333 105.5 449.5 81.1666666667 428.5 59.5 c 128
 407.5 37.8333333333 382.333333333 20.8333333333 353 8.5 c 128
 323.666666667 -3.83333333333 291.666666667 -10 257 -10 c 0
263 60 m 256
 284.333333333 60 304 64.5 322 73.5 c 128
 340 82.5 355.666666667 94.5 369 109.5 c 128
 382.333333333 124.5 392.5 141.666666667 399.5 161 c 128
 406.5 180.333333333 410 200.333333333 410 221 c 0
 410 247 404.5 269.166666667 393.5 287.5 c 128
 382.5 305.833333333 367.666666667 319.833333333 349 329.5 c 128
 330.333333333 339.166666667 309.666666667 344 287 344 c 256
 264.333333333 344 243.833333333 339.5 225.5 330.5 c 128
 207.166666667 321.5 191.5 309.166666667 178.5 293.5 c 128
 165.5 277.833333333 155.5 260.5 148.5 241.5 c 128
 141.5 222.5 138 203.333333333 138 184 c 0
 138 157.333333333 144 134.666666667 156 116 c 128
 168 97.3333333333 183.5 83.3333333333 202.5 74 c 128
 221.5 64.6666666667 241.666666667 60 263 60 c 256
342 411 m 0
 361.333333333 411 379 414.833333333 395 422.5 c 128
 411 430.166666667 424.833333333 440.666666667 436.5 454 c 128
 448.166666667 467.333333333 457.333333333 482.333333333 464 499 c 128
 470.666666667 515.666666667 474 533 474 551 c 0
 474 583 463.833333333 609.333333333 443.5 630 c 128
 423.166666667 650.666666667 395.333333333 661 360 661 c 0
 339.333333333 661 321 657 305 649 c 128
 289 641 275.5 630.333333333 264.5 617 c 128
 253.5 603.666666667 245.333333333 589 240 573 c 128
 234.666666667 557 232 540.333333333 232 523 c 0
 232 487 242.833333333 459.333333333 264.5 440 c 128
 286.166666667 420.666666667 312 411 342 411 c 0
EndSplineSet
Substitution2: "'pnum' Proportional Numbers in Latin lookup 18 subtable" eight
Substitution2: "'aalt' Access All Alternates in Latin lookup 0 subtable" eight
EndChar

StartChar: nine.tf
Encoding: 65634 -1 339
Width: 575
GlyphClass: 1
Flags: HW
LayerCount: 3
Fore
SplineSet
232 -11 m 0
 202 -11 175.166666667 -5.16666666667 151.5 6.5 c 128
 127.833333333 18.1666666667 108.333333333 33.8333333333 93 53.5 c 128
 77.6666666667 73.1666666667 66.8333333333 96.1666666667 60.5 122.5 c 128
 54.1666666667 148.833333333 53 177 57 207 c 1
 138 207 l 1
 134.666666667 181 135.833333333 156.833333333 141.5 134.5 c 128
 147.166666667 112.166666667 158 94 174 80 c 128
 190 66 212 59 240 59 c 0
 272 59 301.166666667 69.6666666667 327.5 91 c 128
 353.833333333 112.333333333 377 145 397 189 c 128
 417 233 434 288.333333333 448 355 c 2
 459 411 l 1
 473 403 l 1
 462.333333333 377 447 354.5 427 335.5 c 128
 407 316.5 384.833333333 301.833333333 360.5 291.5 c 128
 336.166666667 281.166666667 311.333333333 276 286 276 c 0
 263.333333333 276 241.333333333 280.166666667 220 288.5 c 128
 198.666666667 296.833333333 179.833333333 309.166666667 163.5 325.5 c 128
 147.166666667 341.833333333 134.333333333 361.666666667 125 385 c 128
 115.666666667 408.333333333 111 435 111 465 c 0
 111 497 116.5 528.5 127.5 559.5 c 128
 138.5 590.5 154.333333333 618.666666667 175 644 c 128
 195.666666667 669.333333333 220.833333333 689.666666667 250.5 705 c 128
 280.166666667 720.333333333 313.666666667 728 351 728 c 0
 389.666666667 728 423.833333333 719 453.5 701 c 128
 483.166666667 683 506.166666667 656.5 522.5 621.5 c 128
 538.833333333 586.5 547 543.333333333 547 492 c 0
 547 465.333333333 544.5 434.5 539.5 399.5 c 128
 534.5 364.5 526.666666667 328 516 290 c 128
 505.333333333 252 491.666666667 215.166666667 475 179.5 c 128
 458.333333333 143.833333333 438.333333333 111.833333333 415 83.5 c 128
 391.666666667 55.1666666667 364.833333333 32.3333333333 334.5 15 c 128
 304.166666667 -2.33333333333 270 -11 232 -11 c 0
313 343 m 0
 336.333333333 343 357.5 348.5 376.5 359.5 c 128
 395.5 370.5 411.5 385 424.5 403 c 128
 437.5 421 447.666666667 440.666666667 455 462 c 128
 462.333333333 483.333333333 466 504.333333333 466 525 c 0
 466 564.333333333 454.333333333 596.333333333 431 621 c 128
 407.666666667 645.666666667 378.333333333 658 343 658 c 0
 317.666666667 658 295.833333333 651.666666667 277.5 639 c 128
 259.166666667 626.333333333 244 610.166666667 232 590.5 c 128
 220 570.833333333 211 550 205 528 c 128
 199 506 196 485.666666667 196 467 c 0
 196 439 201.666666667 415.666666667 213 397 c 128
 224.333333333 378.333333333 239 364.666666667 257 356 c 128
 275 347.333333333 293.666666667 343 313 343 c 0
EndSplineSet
Substitution2: "'pnum' Proportional Numbers in Latin lookup 18 subtable" nine
Substitution2: "'aalt' Access All Alternates in Latin lookup 0 subtable" nine
EndChar

StartChar: two.tf.ss10
Encoding: 65635 -1 340
Width: 575
GlyphClass: 1
Flags: HW
LayerCount: 3
Fore
SplineSet
23 0 m 1
 42 80 l 2
 50.6666666667 118 65 151.166666667 85 179.5 c 128
 105 207.833333333 128.333333333 232.833333333 155 254.5 c 128
 181.666666667 276.166666667 209.333333333 295.833333333 238 313.5 c 128
 266.666666667 331.166666667 295 348.333333333 323 365 c 128
 351 381.666666667 376.166666667 398.833333333 398.5 416.5 c 128
 420.833333333 434.166666667 438.833333333 454.166666667 452.5 476.5 c 128
 466.166666667 498.833333333 473 525 473 555 c 0
 473 589 463.666666667 615.166666667 445 633.5 c 128
 426.333333333 651.833333333 401.333333333 661 370 661 c 0
 334 661 302.166666667 648.833333333 274.5 624.5 c 128
 246.833333333 600.166666667 226.333333333 563.333333333 213 514 c 1
 133 514 l 1
 151 585.333333333 181 639.166666667 223 675.5 c 128
 265 711.833333333 315.333333333 730 374 730 c 0
 408 730 438.833333333 723.666666667 466.5 711 c 128
 494.166666667 698.333333333 516.166666667 679.166666667 532.5 653.5 c 128
 548.833333333 627.833333333 557 595 557 555 c 0
 557 517 549.833333333 483.833333333 535.5 455.5 c 128
 521.166666667 427.166666667 502 402.166666667 478 380.5 c 128
 454 358.833333333 427.333333333 338.833333333 398 320.5 c 128
 368.666666667 302.166666667 338.833333333 284.333333333 308.5 267 c 128
 278.166666667 249.666666667 249.666666667 231.166666667 223 211.5 c 128
 196.333333333 191.833333333 173.666666667 169.833333333 155 145.5 c 128
 136.333333333 121.166666667 123.666666667 92.6666666667 117 60 c 1
 100 69 l 1
 462 69 l 1
 446 0 l 1
 23 0 l 1
EndSplineSet
EndChar

StartChar: hyphen_greater.liga
Encoding: 65636 -1 343
Width: 809
GlyphClass: 3
LigCaretCntFixed: 1
Flags: HW
LayerCount: 3
Fore
SplineSet
118 366 m 1
 735 366 l 1
 705 339 l 1
 385 661 l 1
 481 661 l 1
 808 331 l 1
 480 1 l 1
 384 1 l 1
 705 323 l 1
 735 297 l 1
 118 297 l 1
 118 366 l 1
EndSplineSet
Ligature2: "'liga' Standard Ligatures in Latin lookup 21 subtable" hyphen greater
LCarets2: 1 405
EndChar

StartChar: period
Encoding: 46 46 344
Width: 245
GlyphClass: 1
Flags: HW
LayerCount: 3
Fore
SplineSet
13 0 m 1
 37 100 l 1
 137 100 l 1
 113 0 l 1
 13 0 l 1
EndSplineSet
Substitution2: "'ss01' Style Set 1 in Latin lookup 22 subtable" period.ss01
Substitution2: "'aalt' Access All Alternates in Latin lookup 0 subtable" period.ss01
EndChar

StartChar: comma
Encoding: 44 44 345
Width: 156
GlyphClass: 1
InSpiro: 1
Flags: HW
LayerCount: 3
Fore
SplineSet
156 99 m 1
 51 -115 l 1
 -10 -116 l 1
 46 98 l 1
 156 99 l 1
EndSplineSet
Substitution2: "'ss01' Style Set 1 in Latin lookup 22 subtable" comma.ss01
Substitution2: "'aalt' Access All Alternates in Latin lookup 0 subtable" comma.ss01
EndChar

StartChar: exclam
Encoding: 33 33 349
Width: 263
GlyphClass: 1
Flags: HW
LayerCount: 3
Fore
SplineSet
90 208 m 1
 201 740 l 1
 285 740 l 1
 149 208 l 1
 90 208 l 1
22 0 m 1
 46 100 l 1
 146 100 l 1
 122 0 l 1
 22 0 l 1
EndSplineSet
Substitution2: "'ss01' Style Set 1 in Latin lookup 22 subtable" exclam.ss01
Substitution2: "'case' Case-Sensitive Forms in Latin lookup 20 subtable" exclam.case
AlternateSubs2: "'aalt' Access All Alternates in Latin lookup 1 subtable" exclam.case exclam.ss01
EndChar

StartChar: exclamdown
Encoding: 161 161 350
Width: 263
GlyphClass: 1
Flags: HW
LayerCount: 3
Fore
SplineSet
-11 -205 m 1
 117 303 l 1
 177 303 l 1
 72 -205 l 1
 -11 -205 l 1
240 510 m 1
 217 410 l 1
 117 410 l 1
 140 510 l 1
 240 510 l 1
EndSplineSet
Substitution2: "'ss01' Style Set 1 in Latin lookup 22 subtable" exclamdown.ss01
Substitution2: "'case' Case-Sensitive Forms in Latin lookup 20 subtable" exclamdown.case
AlternateSubs2: "'aalt' Access All Alternates in Latin lookup 1 subtable" exclamdown.case exclamdown.ss01
EndChar

StartChar: question
Encoding: 63 63 351
Width: 524
GlyphClass: 1
Flags: HW
LayerCount: 3
Fore
SplineSet
219 207 m 5
 228.333333333 250.333333333 241.5 286.5 258.5 315.5 c 132
 275.5 344.5 294.166666667 368.833333333 314.5 388.5 c 132
 334.833333333 408.166666667 355 425.166666667 375 439.5 c 132
 395 453.833333333 413.5 467.5 430.5 480.5 c 132
 447.5 493.5 461.166666667 507.833333333 471.5 523.5 c 4
 482.5 539.833333333 487.666666667 559 487 581 c 4
 482.333333333 667.666666667 408.666666667 697.666666667 266 671 c 5
 280 733 l 5
 282.666666667 743.666666667 312.333333333 749 369 749 c 4
 405.666666667 749 438.833333333 743.166666667 468.5 731.5 c 132
 498.166666667 719.833333333 521.666666667 702 539 678 c 132
 556.333333333 654 565 623.333333333 565 586 c 4
 565 556 559.666666667 530.5 549 509.5 c 132
 538.333333333 488.5 524 470.333333333 506 455 c 132
 488 439.666666667 468.333333333 424.666666667 447 410 c 132
 425.666666667 395.333333333 404.666666667 379.333333333 384 362 c 132
 363.333333333 344.666666667 344.666666667 323.666666667 328 299 c 132
 311.333333333 274.333333333 298.666666667 243.666666667 290 207 c 5
 219 207 l 5
164 0 m 5
 187 100 l 5
 287 100 l 5
 264 0 l 5
 164 0 l 5
EndSplineSet
Substitution2: "'ss01' Style Set 1 in Latin lookup 22 subtable" question.ss01
Substitution2: "'case' Case-Sensitive Forms in Latin lookup 20 subtable" question.case
AlternateSubs2: "'aalt' Access All Alternates in Latin lookup 1 subtable" question.case question.ss01
EndChar

StartChar: questiondown
Encoding: 191 191 352
Width: 523
GlyphClass: 1
Flags: HW
LayerCount: 3
Fore
SplineSet
336 396.5 m 5
 326.666666667 353.166666667 313.5 317 296.5 288 c 132
 279.5 259 260.833333333 234.666666667 240.5 215 c 132
 220.166666667 195.333333333 200 178.333333333 180 164 c 132
 160 149.666666667 141.5 136 124.5 123 c 132
 107.5 110 93.8333333333 95.6666666667 83.5 80 c 4
 72.5 63.6666666667 67.3333333333 44.5 68 22.5 c 4
 72.6666666667 -64.1666666667 146.333333333 -94.1666666667 289 -67.5 c 5
 275 -129.5 l 6
 272.333333333 -140.166666667 242.666666667 -145.5 186 -145.5 c 4
 149.333333333 -145.5 116.166666667 -139.666666667 86.5 -128 c 132
 56.8333333333 -116.333333333 33.3333333333 -98.5 16 -74.5 c 132
 -1.33333333333 -50.5 -10 -19.8333333333 -10 17.5 c 4
 -10 47.5 -4.66666666667 73 6 94 c 132
 16.6666666667 115 31 133.166666667 49 148.5 c 132
 67 163.833333333 86.6666666667 178.833333333 108 193.5 c 132
 129.333333333 208.166666667 150.333333333 224.166666667 171 241.5 c 132
 191.666666667 258.833333333 210.333333333 279.833333333 227 304.5 c 132
 243.666666667 329.166666667 256.333333333 359.833333333 265 396.5 c 5
 336 396.5 l 5
391 603.5 m 5
 368 503.5 l 5
 268 503.5 l 5
 291 603.5 l 5
 391 603.5 l 5
EndSplineSet
Substitution2: "'ss01' Style Set 1 in Latin lookup 22 subtable" questiondown.ss01
Substitution2: "'case' Case-Sensitive Forms in Latin lookup 20 subtable" questiondown.case
AlternateSubs2: "'aalt' Access All Alternates in Latin lookup 1 subtable" questiondown.case questiondown.ss01
EndChar

StartChar: bullet
Encoding: 8226 8226 354
Width: 295
GlyphClass: 1
Flags: HW
LayerCount: 3
Fore
SplineSet
83 298 m 1
 118 449 l 1
 267 449 l 1
 233 298 l 1
 83 298 l 1
EndSplineSet
Substitution2: "'ss01' Style Set 1 in Latin lookup 22 subtable" bullet.ss01
Substitution2: "'case' Case-Sensitive Forms in Latin lookup 20 subtable" bullet.case
AlternateSubs2: "'aalt' Access All Alternates in Latin lookup 1 subtable" bullet.case bullet.ss01
EndChar

StartChar: asterisk
Encoding: 42 42 355
Width: 402
GlyphClass: 1
Flags: HW
LayerCount: 3
Fore
SplineSet
210 441 m 1
 258 566 l 1
 140 499 l 1
 119 563 l 1
 249 593 l 1
 140 654 l 1
 188 709 l 1
 270 617 l 1
 279 740 l 1
 347 740 l 1
 299 614 l 1
 417 681 l 1
 438 617 l 1
 308 586 l 1
 417 526 l 1
 370 471 l 1
 287 563 l 1
 279 441 l 1
 210 441 l 1
EndSplineSet
EndChar

StartChar: numbersign
Encoding: 35 35 356
Width: 652
GlyphClass: 1
Flags: HW
LayerCount: 3
Fore
SplineSet
73 0 m 1
 339 720 l 1
 410 720 l 1
 144 0 l 1
 73 0 l 1
290 0 m 1
 556 720 l 1
 627 720 l 1
 361 0 l 1
 290 0 l 1
120 503 m 1
 673 503 l 1
 657 437 l 1
 104 437 l 1
 120 503 l 1
46 293 m 1
 599 293 l 1
 584 227 l 1
 31 227 l 1
 46 293 l 1
EndSplineSet
EndChar

StartChar: slash
Encoding: 47 47 357
Width: 398
GlyphClass: 1
Flags: HW
LayerCount: 3
Fore
SplineSet
-17 -60 m 1
 384 750 l 1
 456 750 l 1
 55 -60 l 1
 -17 -60 l 1
EndSplineSet
EndChar

StartChar: backslash
Encoding: 92 92 358
Width: 398
GlyphClass: 1
Flags: HW
LayerCount: 3
Fore
SplineSet
170 750 m 1
 235 750 l 1
 269 -60 l 1
 204 -60 l 1
 170 750 l 1
EndSplineSet
EndChar

StartChar: exclam.case
Encoding: 65639 -1 361
Width: 265
GlyphClass: 1
Flags: HW
LayerCount: 3
Fore
SplineSet
91 208 m 1
 197 720 l 1
 281 720 l 1
 150 208 l 1
 91 208 l 1
23 0 m 1
 47 100 l 1
 147 100 l 1
 123 0 l 1
 23 0 l 1
EndSplineSet
EndChar

StartChar: exclamdown.case
Encoding: 65640 -1 362
Width: 263
GlyphClass: 1
Flags: HW
LayerCount: 3
Fore
SplineSet
32 0 m 1
 162 513 l 1
 222 513 l 1
 115 0 l 1
 32 0 l 1
289 720 m 1
 266 620 l 1
 166 620 l 1
 189 720 l 1
 289 720 l 1
EndSplineSet
EndChar

StartChar: question.case
Encoding: 65641 -1 363
Width: 524
GlyphClass: 1
Flags: HW
LayerCount: 3
Fore
SplineSet
221 207 m 1
 229.666666667 245 241.833333333 277 257.5 303 c 128
 273.166666667 329 291 351.166666667 311 369.5 c 128
 331 387.833333333 351 404 371 418 c 128
 391 432 409.333333333 445.666666667 426 459 c 128
 442.666666667 472.333333333 456.333333333 487 467 503 c 128
 477.666666667 519 483 538 483 560 c 0
 483 591.333333333 471.833333333 616 449.5 634 c 128
 427.166666667 652 396.666666667 661 358 661 c 0
 314 661 277.166666667 648.833333333 247.5 624.5 c 128
 217.833333333 600.166666667 195.333333333 564 180 516 c 1
 103 516 l 1
 116.333333333 562.666666667 135 601.833333333 159 633.5 c 128
 183 665.166666667 212.5 689.166666667 247.5 705.5 c 128
 282.5 721.833333333 322 730 366 730 c 0
 406.666666667 730 441.5 723.333333333 470.5 710 c 128
 499.5 696.666666667 521.666666667 677.666666667 537 653 c 128
 552.333333333 628.333333333 560 598.666666667 560 564 c 0
 560 534 554.666666667 508.5 544 487.5 c 128
 533.333333333 466.5 519.166666667 448.333333333 501.5 433 c 128
 483.833333333 417.666666667 464.5 403 443.5 389 c 128
 422.5 375 401.833333333 360 381.5 344 c 128
 361.166666667 328 343.166666667 309.166666667 327.5 287.5 c 128
 311.833333333 265.833333333 300.333333333 239 293 207 c 1
 221 207 l 1
159 0 m 1
 182 100 l 1
 282 100 l 1
 259 0 l 1
 159 0 l 1
EndSplineSet
EndChar

StartChar: questiondown.case
Encoding: 65642 -1 364
Width: 524
GlyphClass: 1
Flags: HW
LayerCount: 3
Fore
SplineSet
207 -10 m 0
 166.333333333 -10 131.5 -3.33333333333 102.5 10 c 128
 73.5 23.3333333333 51.1666666667 42.5 35.5 67.5 c 128
 19.8333333333 92.5 12 122 12 156 c 0
 12 186.666666667 17.5 212.333333333 28.5 233 c 128
 39.5 253.666666667 53.8333333333 271.666666667 71.5 287 c 128
 89.1666666667 302.333333333 108.5 317.166666667 129.5 331.5 c 128
 150.5 345.833333333 171 360.833333333 191 376.5 c 128
 211 392.166666667 229 411 245 433 c 128
 261 455 272.666666667 481.666666667 280 513 c 1
 352 513 l 1
 344 475.666666667 331.833333333 444 315.5 418 c 128
 299.166666667 392 281.166666667 369.833333333 261.5 351.5 c 128
 241.833333333 333.166666667 222 316.833333333 202 302.5 c 128
 182 288.166666667 163.5 274.333333333 146.5 261 c 128
 129.5 247.666666667 115.833333333 233.166666667 105.5 217.5 c 128
 95.1666666667 201.833333333 90 182.666666667 90 160 c 0
 90 129.333333333 101.166666667 105 123.5 87 c 128
 145.833333333 69 176.333333333 60 215 60 c 0
 258.333333333 60 295.166666667 72.1666666667 325.5 96.5 c 128
 355.833333333 120.833333333 378.333333333 156.666666667 393 204 c 1
 470 204 l 1
 457.333333333 158 438.666666667 119 414 87 c 128
 389.333333333 55 359.666666667 30.8333333333 325 14.5 c 128
 290.333333333 -1.83333333333 251 -10 207 -10 c 0
414 720 m 1
 390 620 l 1
 290 620 l 1
 314 720 l 1
 414 720 l 1
EndSplineSet
EndChar

StartChar: bullet.case
Encoding: 65643 -1 365
Width: 673
GlyphClass: 1
Flags: HW
LayerCount: 3
Fore
SplineSet
43 127 m 1
 166 655 l 1
 693 655 l 1
 570 127 l 1
 43 127 l 1
EndSplineSet
Substitution2: "'ss01' Style Set 1 in Latin lookup 22 subtable" bullet.case.ss01
Substitution2: "'aalt' Access All Alternates in Latin lookup 0 subtable" bullet.case.ss01
EndChar

StartChar: period.ss01
Encoding: 65645 -1 367
Width: 245
GlyphClass: 1
Flags: HW
LayerCount: 3
Fore
SplineSet
68 -10 m 0
 54 -10 42.1666666667 -5.33333333333 32.5 4 c 128
 22.8333333333 13.3333333333 18 25.3333333333 18 40 c 0
 18 52.6666666667 20.8333333333 63.6666666667 26.5 73 c 128
 32.1666666667 82.3333333333 39.8333333333 89.8333333333 49.5 95.5 c 128
 59.1666666667 101.166666667 69 104 79 104 c 0
 94.3333333333 104 106.833333333 99.1666666667 116.5 89.5 c 128
 126.166666667 79.8333333333 131 67.3333333333 131 52 c 0
 131 35.3333333333 124.833333333 20.8333333333 112.5 8.5 c 128
 100.166666667 -3.83333333333 85.3333333333 -10 68 -10 c 0
EndSplineSet
EndChar

StartChar: comma.ss01
Encoding: 65646 -1 368
Width: 245
GlyphClass: 1
Flags: HW
LayerCount: 3
Fore
SplineSet
-14 -138 m 1
 -5 -99 l 1
 14.3333333333 -92.3333333333 30.5 -81.6666666667 43.5 -67 c 128
 56.5 -52.3333333333 66.6666666667 -29.6666666667 74 1 c 1
 97 1 l 1
 92.3333333333 -1 87.3333333333 -2.83333333333 82 -4.5 c 128
 76.6666666667 -6.16666666667 71.3333333333 -7 66 -7 c 0
 52 -7 40.6666666667 -2.5 32 6.5 c 128
 23.3333333333 15.5 19 27 19 41 c 0
 19 51.6666666667 21.3333333333 61.6666666667 26 71 c 128
 30.6666666667 80.3333333333 37.3333333333 88 46 94 c 128
 54.6666666667 100 65 103 77 103 c 0
 90.3333333333 103 101.833333333 98.5 111.5 89.5 c 128
 121.166666667 80.5 126 65 126 43 c 0
 126 19.6666666667 120.166666667 -4.83333333333 108.5 -30.5 c 128
 96.8333333333 -56.1666666667 80.6666666667 -79 60 -99 c 128
 39.3333333333 -119 14.6666666667 -132 -14 -138 c 1
EndSplineSet
EndChar

StartChar: exclam.ss01
Encoding: 65650 -1 372
Width: 265
GlyphClass: 1
Flags: HW
LayerCount: 3
Fore
SplineSet
91 208 m 1
 202 740 l 1
 286 740 l 1
 150 208 l 1
 91 208 l 1
78 -10 m 0
 64 -10 52.1666666667 -5.33333333333 42.5 4 c 128
 32.8333333333 13.3333333333 28 25.3333333333 28 40 c 0
 28 52.6666666667 30.8333333333 63.6666666667 36.5 73 c 128
 42.1666666667 82.3333333333 49.8333333333 89.8333333333 59.5 95.5 c 128
 69.1666666667 101.166666667 79 104 89 104 c 0
 104.333333333 104 116.833333333 99.1666666667 126.5 89.5 c 128
 136.166666667 79.8333333333 141 67.3333333333 141 52 c 0
 141 35.3333333333 134.833333333 20.8333333333 122.5 8.5 c 128
 110.166666667 -3.83333333333 95.3333333333 -10 78 -10 c 0
EndSplineSet
EndChar

StartChar: exclamdown.ss01
Encoding: 65651 -1 373
Width: 276
GlyphClass: 1
Flags: HW
LayerCount: 3
Fore
SplineSet
-10 -205 m 1
 118 303 l 1
 178 303 l 1
 73 -205 l 1
 -10 -205 l 1
192 520 m 0
 207.333333333 520 219.666666667 515.333333333 229 506 c 128
 238.333333333 496.666666667 243 485 243 471 c 0
 243 458.333333333 240 447.166666667 234 437.5 c 128
 228 427.833333333 220.5 420.333333333 211.5 415 c 128
 202.5 409.666666667 192.333333333 407 181 407 c 0
 167 407 155 411.833333333 145 421.5 c 128
 135 431.166666667 130 443.333333333 130 458 c 0
 130 475.333333333 136.166666667 490 148.5 502 c 128
 160.833333333 514 175.333333333 520 192 520 c 0
EndSplineSet
EndChar

StartChar: question.ss01
Encoding: 65652 -1 374
Width: 524
GlyphClass: 1
Flags: HW
LayerCount: 3
Fore
SplineSet
219 207 m 1
 228.333333333 250.333333333 241.5 286.5 258.5 315.5 c 128
 275.5 344.5 294.166666667 368.833333333 314.5 388.5 c 128
 334.833333333 408.166666667 355 425.166666667 375 439.5 c 128
 395 453.833333333 413.5 467.5 430.5 480.5 c 128
 447.5 493.5 461.166666667 507.833333333 471.5 523.5 c 128
 481.833333333 539.166666667 487 558.333333333 487 581 c 0
 487 615 475.166666667 640 451.5 656 c 128
 427.833333333 672 398 680 362 680 c 0
 320 680 283.666666667 668.5 253 645.5 c 128
 222.333333333 622.5 199.333333333 586 184 536 c 1
 108 536 l 1
 120 582.666666667 138.166666667 621.833333333 162.5 653.5 c 128
 186.833333333 685.166666667 216.666666667 709 252 725 c 128
 287.333333333 741 326.333333333 749 369 749 c 0
 405.666666667 749 438.833333333 743.166666667 468.5 731.5 c 128
 498.166666667 719.833333333 521.666666667 702 539 678 c 128
 556.333333333 654 565 623.333333333 565 586 c 0
 565 556 559.666666667 530.5 549 509.5 c 128
 538.333333333 488.5 524 470.333333333 506 455 c 128
 488 439.666666667 468.333333333 424.666666667 447 410 c 128
 425.666666667 395.333333333 404.666666667 379.333333333 384 362 c 128
 363.333333333 344.666666667 344.666666667 323.666666667 328 299 c 128
 311.333333333 274.333333333 298.666666667 243.666666667 290 207 c 1
 219 207 l 1
214 -10 m 0
 200 -10 188.166666667 -5.33333333333 178.5 4 c 128
 168.833333333 13.3333333333 164 25.3333333333 164 40 c 0
 164 52.6666666667 166.833333333 63.6666666667 172.5 73 c 128
 178.166666667 82.3333333333 185.833333333 89.8333333333 195.5 95.5 c 128
 205.166666667 101.166666667 215 104 225 104 c 0
 240.333333333 104 252.833333333 99.1666666667 262.5 89.5 c 128
 272.166666667 79.8333333333 277 67.3333333333 277 52 c 0
 277 35.3333333333 270.666666667 20.8333333333 258 8.5 c 128
 245.333333333 -3.83333333333 230.666666667 -10 214 -10 c 0
EndSplineSet
EndChar

StartChar: questiondown.ss01
Encoding: 65653 -1 375
Width: 523
GlyphClass: 1
Flags: HW
LayerCount: 3
Fore
SplineSet
157 -215 m 0
 121.666666667 -215 89.5 -209.166666667 60.5 -197.5 c 128
 31.5 -185.833333333 8.16666666667 -168.166666667 -9.5 -144.5 c 128
 -27.1666666667 -120.833333333 -36 -90.6666666667 -36 -54 c 0
 -36 -23.3333333333 -30.6666666667 2.66666666667 -20 24 c 128
 -9.33333333333 45.3333333333 4.66666666667 64.1666666667 22 80.5 c 128
 39.3333333333 96.8333333333 58.5 112 79.5 126 c 128
 100.5 140 121 155 141 171 c 128
 161 187 179.166666667 205.5 195.5 226.5 c 128
 211.833333333 247.5 223.666666667 273 231 303 c 1
 303 303 l 1
 294.333333333 266.333333333 282 235.333333333 266 210 c 128
 250 184.666666667 232.166666667 163 212.5 145 c 128
 192.833333333 127 173 111 153 97 c 128
 133 83 114.5 69.1666666667 97.5 55.5 c 128
 80.5 41.8333333333 67 26.6666666667 57 10 c 128
 47 -6.66666666667 42 -26.3333333333 42 -49 c 0
 42 -82.3333333333 53.6666666667 -106.833333333 77 -122.5 c 128
 100.333333333 -138.166666667 129 -146 163 -146 c 0
 205.666666667 -146 242.333333333 -134.833333333 273 -112.5 c 128
 303.666666667 -90.1666666667 326.333333333 -58 341 -16 c 1
 418 -16 l 1
 406.666666667 -57.3333333333 388.666666667 -92.8333333333 364 -122.5 c 128
 339.333333333 -152.166666667 309.5 -175 274.5 -191 c 128
 239.5 -207 200.333333333 -215 157 -215 c 0
305 520 m 0
 319.666666667 520 331.666666667 515.5 341 506.5 c 128
 350.333333333 497.5 355 485.666666667 355 471 c 0
 355 458.333333333 352 447.166666667 346 437.5 c 128
 340 427.833333333 332.5 420.333333333 323.5 415 c 128
 314.5 409.666666667 304.333333333 407 293 407 c 0
 279 407 267 411.833333333 257 421.5 c 128
 247 431.166666667 242 443.333333333 242 458 c 0
 242 475.333333333 248.333333333 490 261 502 c 128
 273.666666667 514 288.333333333 520 305 520 c 0
EndSplineSet
EndChar

StartChar: bullet.ss01
Encoding: 65655 -1 377
Width: 315
GlyphClass: 1
Flags: HW
LayerCount: 3
Fore
SplineSet
175 284 m 0
 152.333333333 284 134 290.833333333 120 304.5 c 128
 106 318.166666667 99 335.666666667 99 357 c 0
 99 376.333333333 103.333333333 393.166666667 112 407.5 c 128
 120.666666667 421.833333333 132.166666667 433 146.5 441 c 128
 160.833333333 449 176 453 192 453 c 0
 213.333333333 453 231.333333333 445.833333333 246 431.5 c 128
 260.666666667 417.166666667 268 399 268 377 c 0
 268 351 258.666666667 329 240 311 c 128
 221.333333333 293 199.666666667 284 175 284 c 0
EndSplineSet
EndChar

StartChar: bullet.case.ss01
Encoding: 65657 -1 379
Width: 743
GlyphClass: 1
Flags: HW
LayerCount: 3
Fore
SplineSet
367 76 m 0
 289.666666667 76 226 100.166666667 176 148.5 c 128
 126 196.833333333 101 259 101 335 c 0
 101 401 116.333333333 459.333333333 147 510 c 128
 177.666666667 560.666666667 217.833333333 600.333333333 267.5 629 c 128
 317.166666667 657.666666667 370 672 426 672 c 0
 502 672 566 646.666666667 618 596 c 128
 670 545.333333333 696 481 696 403 c 0
 696 311.666666667 663.333333333 234.333333333 598 171 c 128
 532.666666667 107.666666667 455.666666667 76 367 76 c 0
EndSplineSet
EndChar

StartChar: hyphen
Encoding: 45 45 381
Width: 471
GlyphClass: 1
Flags: HW
LayerCount: 3
Fore
SplineSet
71 235 m 1
 89 309 l 1
 407 309 l 1
 390 235 l 1
 71 235 l 1
EndSplineSet
Substitution2: "'case' Case-Sensitive Forms in Latin lookup 20 subtable" hyphen.case
Substitution2: "'aalt' Access All Alternates in Latin lookup 0 subtable" hyphen.case
EndChar

StartChar: endash
Encoding: 8211 8211 382
Width: 551
GlyphClass: 1
Flags: HW
LayerCount: 3
Fore
SplineSet
72 239 m 1
 88 305 l 1
 486 305 l 1
 471 239 l 1
 72 239 l 1
EndSplineSet
Substitution2: "'case' Case-Sensitive Forms in Latin lookup 20 subtable" endash.case
Substitution2: "'aalt' Access All Alternates in Latin lookup 0 subtable" endash.case
EndChar

StartChar: emdash
Encoding: 8212 8212 383
Width: 826
GlyphClass: 1
Flags: HW
LayerCount: 3
Fore
SplineSet
72 239 m 1
 88 305 l 1
 761 305 l 1
 746 239 l 1
 72 239 l 1
EndSplineSet
Substitution2: "'case' Case-Sensitive Forms in Latin lookup 20 subtable" emdash.case
Substitution2: "'aalt' Access All Alternates in Latin lookup 0 subtable" emdash.case
EndChar

StartChar: hyphen.case
Encoding: 65659 -1 385
Width: 471
GlyphClass: 1
Flags: HW
LayerCount: 3
Fore
SplineSet
91 323 m 1
 109 397 l 1
 427 397 l 1
 410 323 l 1
 91 323 l 1
EndSplineSet
EndChar

StartChar: endash.case
Encoding: 65660 -1 386
Width: 551
GlyphClass: 1
Flags: HW
LayerCount: 3
Fore
SplineSet
92 327 m 1
 108 393 l 1
 506 393 l 1
 491 327 l 1
 92 327 l 1
EndSplineSet
EndChar

StartChar: emdash.case
Encoding: 65661 -1 387
Width: 826
GlyphClass: 1
Flags: HW
LayerCount: 3
Fore
SplineSet
92 327 m 1
 108 393 l 1
 781 393 l 1
 766 327 l 1
 92 327 l 1
EndSplineSet
EndChar

StartChar: parenleft
Encoding: 40 40 388
Width: 389
GlyphClass: 1
Flags: HW
LayerCount: 3
Fore
SplineSet
187 -110 m 1
 151 -58.6666666667 124.666666667 -5.83333333333 108 48.5 c 128
 91.3333333333 102.833333333 83 157.333333333 83 212 c 0
 83 278.666666667 94.3333333333 344.333333333 117 409 c 128
 139.666666667 473.666666667 173.166666667 535.166666667 217.5 593.5 c 128
 261.833333333 651.833333333 316.333333333 704 381 750 c 1
 452 750 l 1
 384.666666667 698.666666667 328.833333333 642.833333333 284.5 582.5 c 128
 240.166666667 522.166666667 207.166666667 460 185.5 396 c 128
 163.833333333 332 153 267.666666667 153 203 c 0
 153 147 161.833333333 92.6666666667 179.5 40 c 128
 197.166666667 -12.6666666667 223 -62.6666666667 257 -110 c 1
 187 -110 l 1
EndSplineSet
Substitution2: "'case' Case-Sensitive Forms in Latin lookup 20 subtable" parenleft.case
Substitution2: "'aalt' Access All Alternates in Latin lookup 0 subtable" parenleft.case
EndChar

StartChar: parenright
Encoding: 41 41 389
Width: 389
GlyphClass: 1
Flags: HW
LayerCount: 3
Fore
SplineSet
233 753 m 1
 268.333333333 702.333333333 294.5 649.833333333 311.5 595.5 c 128
 328.5 541.166666667 337 486.333333333 337 431 c 0
 337 365 325.666666667 299.5 303 234.5 c 128
 280.333333333 169.5 246.833333333 107.833333333 202.5 49.5 c 128
 158.166666667 -8.83333333333 103.666666667 -61 39 -107 c 1
 -33 -107 l 1
 35 -55.6666666667 91.1666666667 0.166666666667 135.5 60.5 c 128
 179.833333333 120.833333333 212.666666667 183.166666667 234 247.5 c 128
 255.333333333 311.833333333 266 376 266 440 c 0
 266 496 257.5 550.5 240.5 603.5 c 128
 223.5 656.5 197.333333333 706.333333333 162 753 c 1
 233 753 l 1
EndSplineSet
Substitution2: "'case' Case-Sensitive Forms in Latin lookup 20 subtable" parenright.case
Substitution2: "'aalt' Access All Alternates in Latin lookup 0 subtable" parenright.case
EndChar

StartChar: braceleft
Encoding: 123 123 390
Width: 389
GlyphClass: 1
Flags: HW
LayerCount: 3
Fore
SplineSet
162 -108 m 2
 129.333333333 -108 104 -100.333333333 86 -85 c 128
 68 -69.6666666667 57.6666666667 -50 55 -26 c 128
 52.3333333333 -2 56.6666666667 23 68 49 c 2
 135 201 l 2
 148.333333333 231.666666667 151.333333333 254.166666667 144 268.5 c 128
 136.666666667 282.833333333 119 290 91 290 c 2
 47 290 l 1
 60 352 l 1
 105 352 l 2
 123.666666667 352 138.833333333 354.5 150.5 359.5 c 128
 162.166666667 364.5 171.166666667 373.166666667 177.5 385.5 c 128
 183.833333333 397.833333333 187.666666667 415 189 437 c 2
 196 612 l 2
 198 653.333333333 212.666666667 686.666666667 240 712 c 128
 267.333333333 737.333333333 305.666666667 750 355 750 c 2
 445 750 l 1
 431 689 l 1
 347 689 l 2
 322.333333333 689 303.333333333 682.166666667 290 668.5 c 128
 276.666666667 654.833333333 269.333333333 634.333333333 268 607 c 2
 262 449 l 2
 260.666666667 408.333333333 252.333333333 378 237 358 c 128
 221.666666667 338 200.333333333 324.333333333 173 317 c 1
 195.666666667 304.333333333 210 286.5 216 263.5 c 128
 222 240.5 216.333333333 209.666666667 199 171 c 2
 138 37 l 2
 126.666666667 11 124.666666667 -9.33333333333 132 -24 c 128
 139.333333333 -38.6666666667 155.333333333 -46 180 -46 c 2
 262 -46 l 1
 247 -108 l 1
 162 -108 l 2
EndSplineSet
Substitution2: "'case' Case-Sensitive Forms in Latin lookup 20 subtable" braceleft.case
Substitution2: "'aalt' Access All Alternates in Latin lookup 0 subtable" braceleft.case
EndChar

StartChar: braceright
Encoding: 125 125 391
Width: 389
GlyphClass: 1
Flags: HW
LayerCount: 3
Fore
SplineSet
257 750 m 2
 291 750 316.833333333 742.333333333 334.5 727 c 128
 352.166666667 711.666666667 362.333333333 692 365 668 c 128
 367.666666667 644 363.333333333 619.333333333 352 594 c 2
 285 441 l 2
 271.666666667 410.333333333 268.666666667 387.833333333 276 373.5 c 128
 283.333333333 359.166666667 301 352 329 352 c 2
 373 352 l 1
 359 290 l 1
 315 290 l 2
 296.333333333 290 281 287.666666667 269 283 c 128
 257 278.333333333 248 269.833333333 242 257.5 c 128
 236 245.166666667 232.333333333 228 231 206 c 2
 223 30 l 2
 222.333333333 -11.3333333333 208 -44.6666666667 180 -70 c 128
 152 -95.3333333333 113.666666667 -108 65 -108 c 2
 -25 -108 l 1
 -11 -46 l 1
 73 -46 l 2
 97.6666666667 -46 116.666666667 -39.1666666667 130 -25.5 c 128
 143.333333333 -11.8333333333 150.333333333 8.66666666667 151 36 c 2
 158 193 l 2
 160 234.333333333 168.5 265 183.5 285 c 128
 198.5 305 219.666666667 318.333333333 247 325 c 1
 224.333333333 338.333333333 210 356.333333333 204 379 c 128
 198 401.666666667 203.666666667 432.333333333 221 471 c 2
 281 605 l 2
 293 631 295.333333333 651.5 288 666.5 c 128
 280.666666667 681.5 264.666666667 689 240 689 c 2
 158 689 l 1
 173 750 l 1
 257 750 l 2
EndSplineSet
Substitution2: "'case' Case-Sensitive Forms in Latin lookup 20 subtable" braceright.case
Substitution2: "'aalt' Access All Alternates in Latin lookup 0 subtable" braceright.case
EndChar

StartChar: bracketleft
Encoding: 91 91 392
Width: 389
GlyphClass: 1
Flags: HW
LayerCount: 3
Fore
SplineSet
4 -108 m 1
 202 750 l 1
 445 750 l 1
 431 689 l 1
 259 689 l 1
 90 -46 l 1
 262 -46 l 1
 247 -108 l 1
 4 -108 l 1
EndSplineSet
Substitution2: "'case' Case-Sensitive Forms in Latin lookup 20 subtable" bracketleft.case
Substitution2: "'aalt' Access All Alternates in Latin lookup 0 subtable" bracketleft.case
EndChar

StartChar: bracketright
Encoding: 93 93 393
Width: 390
GlyphClass: 1
Flags: HW
LayerCount: 3
Fore
SplineSet
416 750 m 1
 218 -108 l 1
 -25 -108 l 1
 -11 -46 l 1
 161 -46 l 1
 330 689 l 1
 158 689 l 1
 173 750 l 1
 416 750 l 1
EndSplineSet
Substitution2: "'case' Case-Sensitive Forms in Latin lookup 20 subtable" bracketright.case
Substitution2: "'aalt' Access All Alternates in Latin lookup 0 subtable" bracketright.case
EndChar

StartChar: parenleft.case
Encoding: 65662 -1 394
Width: 389
GlyphClass: 1
Flags: HW
LayerCount: 3
Fore
SplineSet
202 -40 m 1
 164.666666667 9.33333333333 137.333333333 59.8333333333 120 111.5 c 128
 102.666666667 163.166666667 94 215.333333333 94 268 c 0
 94 329.333333333 105 389.666666667 127 449 c 128
 149 508.333333333 181.666666667 564.666666667 225 618 c 128
 268.333333333 671.333333333 321.333333333 718.666666667 384 760 c 1
 455 760 l 1
 389.666666667 713.333333333 335.5 662.5 292.5 607.5 c 128
 249.5 552.5 217.333333333 495.666666667 196 437 c 128
 174.666666667 378.333333333 164 319.333333333 164 260 c 0
 164 206 173.166666667 153.833333333 191.5 103.5 c 128
 209.833333333 53.1666666667 237 5.33333333333 273 -40 c 1
 202 -40 l 1
EndSplineSet
EndChar

StartChar: parenright.case
Encoding: 65663 -1 395
Width: 389
GlyphClass: 1
Flags: HW
LayerCount: 3
Fore
SplineSet
234 760 m 1
 271.333333333 711.333333333 298.833333333 661 316.5 609 c 128
 334.166666667 557 343 504.666666667 343 452 c 0
 343 391.333333333 332 331.333333333 310 272 c 128
 288 212.666666667 255.333333333 156.333333333 212 103 c 128
 168.666666667 49.6666666667 115.666666667 2 53 -40 c 1
 -18 -40 l 1
 48 7.33333333333 102.333333333 58.3333333333 145 113 c 128
 187.666666667 167.666666667 219.666666667 224.666666667 241 284 c 128
 262.333333333 343.333333333 273 402.333333333 273 461 c 0
 273 514.333333333 263.833333333 566.333333333 245.5 617 c 128
 227.166666667 667.666666667 200 715.333333333 164 760 c 1
 234 760 l 1
EndSplineSet
EndChar

StartChar: braceleft.case
Encoding: 65664 -1 396
Width: 389
GlyphClass: 1
Flags: HW
LayerCount: 3
Fore
SplineSet
177 -40 m 2
 144.333333333 -40 118.666666667 -32.3333333333 100 -17 c 128
 81.3333333333 -1.66666666667 70.5 17.8333333333 67.5 41.5 c 128
 64.5 65.1666666667 69.3333333333 90 82 116 c 2
 143 242 l 2
 158.333333333 272.666666667 161.833333333 294.833333333 153.5 308.5 c 128
 145.166666667 322.166666667 127 329 99 329 c 2
 55 329 l 1
 69 391 l 1
 113 391 l 2
 141 391 161.833333333 397 175.5 409 c 128
 189.166666667 421 196 443.666666667 196 477 c 2
 197 621 l 2
 197 662.333333333 211.166666667 695.833333333 239.5 721.5 c 128
 267.833333333 747.166666667 306.333333333 760 355 760 c 2
 447 760 l 1
 434 699 l 1
 348 699 l 2
 324 699 304.666666667 691.833333333 290 677.5 c 128
 275.333333333 663.166666667 268 642 268 614 c 2
 269 490 l 2
 269.666666667 462.666666667 266.333333333 440.166666667 259 422.5 c 128
 251.666666667 404.833333333 241.333333333 390.833333333 228 380.5 c 128
 214.666666667 370.166666667 199 362.666666667 181 358 c 1
 203.666666667 345.333333333 218.666666667 327.5 226 304.5 c 128
 233.333333333 281.5 227 250.666666667 207 212 c 2
 152 104 l 2
 138 78 135.333333333 57.8333333333 144 43.5 c 128
 152.666666667 29.1666666667 169.333333333 22 194 22 c 2
 277 22 l 1
 263 -40 l 1
 177 -40 l 2
EndSplineSet
EndChar

StartChar: braceright.case
Encoding: 65665 -1 397
Width: 389
GlyphClass: 1
Flags: HW
LayerCount: 3
Fore
SplineSet
260 760 m 2
 292.666666667 760 318.166666667 752.333333333 336.5 737 c 128
 354.833333333 721.666666667 365.666666667 702.166666667 369 678.5 c 128
 372.333333333 654.833333333 367.666666667 630 355 604 c 2
 294 479 l 2
 279.333333333 447.666666667 276 425.166666667 284 411.5 c 128
 292 397.833333333 310 391 338 391 c 2
 382 391 l 1
 368 329 l 1
 324 329 l 2
 296 329 275.166666667 323 261.5 311 c 128
 247.833333333 299 241 276.333333333 241 243 c 2
 240 99 l 2
 240 58.3333333333 226 25 198 -1 c 128
 170 -27 131.333333333 -40 82 -40 c 2
 -10 -40 l 1
 3 22 l 1
 88 22 l 2
 112.666666667 22 132.5 29 147.5 43 c 128
 162.5 57 169.666666667 78 169 106 c 2
 167 230 l 2
 167 257.333333333 170.666666667 280 178 298 c 128
 185.333333333 316 195.666666667 330.166666667 209 340.5 c 128
 222.333333333 350.833333333 238 358.333333333 256 363 c 1
 233.333333333 376.333333333 218.333333333 394.333333333 211 417 c 128
 203.666666667 439.666666667 210 470 230 508 c 2
 285 616 l 2
 298.333333333 642 300.833333333 662.333333333 292.5 677 c 128
 284.166666667 691.666666667 267.666666667 699 243 699 c 2
 159 699 l 1
 174 760 l 1
 260 760 l 2
EndSplineSet
EndChar

StartChar: bracketleft.case
Encoding: 65666 -1 398
Width: 390
GlyphClass: 1
Flags: HW
LayerCount: 3
Fore
SplineSet
21 -40 m 1
 205 760 l 1
 448 760 l 1
 435 699 l 1
 263 699 l 1
 106 22 l 1
 278 22 l 1
 264 -40 l 1
 21 -40 l 1
EndSplineSet
EndChar

StartChar: bracketright.case
Encoding: 65667 -1 399
Width: 390
GlyphClass: 1
Flags: HW
LayerCount: 3
Fore
SplineSet
417 760 m 1
 233 -40 l 1
 -10 -40 l 1
 3 22 l 1
 175 22 l 1
 331 699 l 1
 159 699 l 1
 174 760 l 1
 417 760 l 1
EndSplineSet
EndChar

StartChar: quoteleft
Encoding: 8216 8216 404
Width: 246
GlyphClass: 1
Flags: HW
LayerCount: 3
Fore
SplineSet
132 511 m 1
 154 606 l 2
 163.333333333 647.333333333 178.666666667 678.5 200 699.5 c 128
 221.333333333 720.5 250.333333333 733.666666667 287 739 c 1
 278 699 l 1
 258 695.666666667 241.666666667 687 229 673 c 128
 216.333333333 659 206.333333333 636.333333333 199 605 c 1
 169 609 l 1
 258 609 l 1
 236 511 l 1
 132 511 l 1
EndSplineSet
Substitution2: "'ss01' Style Set 1 in Latin lookup 22 subtable" quoteleft.ss01
Substitution2: "'aalt' Access All Alternates in Latin lookup 0 subtable" quoteleft.ss01
EndChar

StartChar: quoteright
Encoding: 8217 8217 405
Width: 245
GlyphClass: 1
Flags: HW
LayerCount: 3
Fore
SplineSet
130 515 m 1
 139 555 l 1
 159.666666667 559 176.333333333 567.833333333 189 581.5 c 128
 201.666666667 595.166666667 211.333333333 617.666666667 218 649 c 1
 248 645 l 1
 159 645 l 1
 181 744 l 1
 286 744 l 1
 263 649 l 2
 253.666666667 607.666666667 238.5 576.5 217.5 555.5 c 128
 196.5 534.5 167.333333333 521 130 515 c 1
EndSplineSet
Substitution2: "'ss01' Style Set 1 in Latin lookup 22 subtable" quoteright.ss01
Substitution2: "'aalt' Access All Alternates in Latin lookup 0 subtable" quoteright.ss01
EndChar

StartChar: guillemotright
Encoding: 187 187 407
Width: 474
GlyphClass: 1
Flags: HW
LayerCount: 3
Fore
SplineSet
338 434 m 1
 418 239 l 1
 261 68 l 1
 177 68 l 1
 343 252 l 1
 271 434 l 1
 338 434 l 1
180 434 m 1
 260 239 l 1
 104 68 l 1
 20 68 l 1
 185 252 l 1
 113 434 l 1
 180 434 l 1
EndSplineSet
EndChar

StartChar: guilsinglleft
Encoding: 8249 8249 408
Width: 317
GlyphClass: 1
Flags: HW
LayerCount: 3
Fore
SplineSet
134 68 m 1
 54 263 l 1
 211 434 l 1
 295 434 l 1
 130 250 l 1
 201 68 l 1
 134 68 l 1
EndSplineSet
EndChar

StartChar: guilsinglright
Encoding: 8250 8250 409
Width: 317
GlyphClass: 1
Flags: HW
LayerCount: 3
Fore
SplineSet
97 68 m 1
 20 68 l 1
 185 254 l 1
 109 434 l 1
 181 434 l 1
 263 251 l 1
 97 68 l 1
EndSplineSet
EndChar

StartChar: quotesingle
Encoding: 39 39 411
Width: 223
GlyphClass: 1
Flags: HW
LayerCount: 3
Fore
SplineSet
154 496 m 1
 159 623 l 2
 159.666666667 640.333333333 160.5 655.666666667 161.5 669 c 128
 162.5 682.333333333 164 693.666666667 166 703 c 0
 168.666666667 712.333333333 172.666666667 720.666666667 178 728 c 128
 183.333333333 735.333333333 189.5 740.833333333 196.5 744.5 c 128
 203.5 748.166666667 211.333333333 750 220 750 c 0
 229.333333333 750 237.166666667 748.166666667 243.5 744.5 c 128
 249.833333333 740.833333333 254.5 735.666666667 257.5 729 c 128
 260.5 722.333333333 262 715 262 707 c 0
 262 700.333333333 260.5 691.5 257.5 680.5 c 128
 254.5 669.5 250.833333333 658.166666667 246.5 646.5 c 128
 242.166666667 634.833333333 237.666666667 624 233 614 c 2
 184 496 l 1
 154 496 l 1
EndSplineSet
EndChar

StartChar: quoteleft.ss01
Encoding: 65672 -1 416
Width: 255
GlyphClass: 1
Flags: HW
LayerCount: 3
Fore
SplineSet
195 497 m 0
 180.333333333 497 168.5 501.333333333 159.5 510 c 128
 150.5 518.666666667 146 533.666666667 146 555 c 0
 146 572.333333333 149.166666667 590.833333333 155.5 610.5 c 128
 161.833333333 630.166666667 171.333333333 648.833333333 184 666.5 c 128
 196.666666667 684.166666667 212.333333333 698.833333333 231 710.5 c 128
 249.666666667 722.166666667 270.666666667 729.333333333 294 732 c 1
 286 693 l 1
 265.333333333 689.666666667 247.166666667 681 231.5 667 c 128
 215.833333333 653 204.333333333 630 197 598 c 1
 173 598 l 1
 177 600.666666667 181.666666667 602.833333333 187 604.5 c 128
 192.333333333 606.166666667 198 607 204 607 c 0
 220.666666667 607 233.666666667 602.333333333 243 593 c 128
 252.333333333 583.666666667 257 572 257 558 c 0
 257 541.333333333 251.166666667 527 239.5 515 c 128
 227.833333333 503 213 497 195 497 c 0
EndSplineSet
EndChar

StartChar: quoteright.ss01
Encoding: 65673 -1 417
Width: 245
GlyphClass: 1
Flags: HW
LayerCount: 3
Fore
SplineSet
127 514 m 1
 136 554 l 1
 156.666666667 557.333333333 174.833333333 566 190.5 580 c 128
 206.166666667 594 217.333333333 617 224 649 c 1
 248 649 l 1
 244 646.333333333 239.5 644.166666667 234.5 642.5 c 128
 229.5 640.833333333 223.666666667 640 217 640 c 0
 201 640 188.333333333 644.5 179 653.5 c 128
 169.666666667 662.5 165 674.333333333 165 689 c 0
 165 705 170.666666667 719.166666667 182 731.5 c 128
 193.333333333 743.833333333 208 750 226 750 c 0
 240.666666667 750 252.5 745.5 261.5 736.5 c 128
 270.5 727.5 275 712.666666667 275 692 c 0
 275 674 271.833333333 655.333333333 265.5 636 c 128
 259.166666667 616.666666667 249.666666667 598.166666667 237 580.5 c 128
 224.333333333 562.833333333 208.833333333 548 190.5 536 c 128
 172.166666667 524 151 516.666666667 127 514 c 1
EndSplineSet
EndChar

StartChar: less_hyphen.liga
Encoding: 65674 -1 418
Width: 800
GlyphClass: 3
LigCaretCntFixed: 1
Flags: HW
LayerCount: 3
Fore
SplineSet
781 355 m 1
 164 355 l 1
 195 381 l 1
 515 59 l 1
 418 59 l 1
 91 389 l 1
 419 719 l 1
 515 719 l 1
 195 397 l 1
 164 424 l 1
 781 424 l 1
 781 355 l 1
EndSplineSet
Ligature2: "'liga' Standard Ligatures in Latin lookup 21 subtable" less hyphen
LCarets2: 1 400
EndChar

StartChar: at
Encoding: 64 64 419
Width: 826
GlyphClass: 1
Flags: HW
LayerCount: 3
Fore
SplineSet
419 -11 m 0
 374.333333333 -11 331 -4.5 289 8.5 c 128
 247 21.5 209.333333333 41 176 67 c 128
 142.666666667 93 116.333333333 125.166666667 97 163.5 c 128
 77.6666666667 201.833333333 68 246.666666667 68 298 c 0
 68 342 75.1666666667 385 89.5 427 c 128
 103.833333333 469 124.333333333 508.333333333 151 545 c 128
 177.666666667 581.666666667 209.166666667 613.833333333 245.5 641.5 c 128
 281.833333333 669.166666667 322.5 690.833333333 367.5 706.5 c 128
 412.5 722.166666667 460.666666667 730 512 730 c 0
 552.666666667 730 591.333333333 724 628 712 c 128
 664.666666667 700 697.166666667 682.333333333 725.5 659 c 128
 753.833333333 635.666666667 776.166666667 607.166666667 792.5 573.5 c 128
 808.833333333 539.833333333 817 501.666666667 817 459 c 0
 817 419.666666667 810.666666667 381.666666667 798 345 c 128
 785.333333333 308.333333333 767.666666667 275.5 745 246.5 c 128
 722.333333333 217.5 695.833333333 194.5 665.5 177.5 c 128
 635.166666667 160.5 602.666666667 152 568 152 c 0
 540.666666667 152 520 157.833333333 506 169.5 c 128
 492 181.166666667 484.5 197 483.5 217 c 128
 482.5 237 488 259 500 283 c 1
 492 234 l 1
 471.333333333 209.333333333 449.166666667 189.5 425.5 174.5 c 128
 401.833333333 159.5 375.333333333 152 346 152 c 0
 309.333333333 152 280.166666667 165.166666667 258.5 191.5 c 128
 236.833333333 217.833333333 226 250.333333333 226 289 c 0
 226 313.666666667 230 339.166666667 238 365.5 c 128
 246 391.833333333 257.333333333 417.166666667 272 441.5 c 128
 286.666666667 465.833333333 304.166666667 487.666666667 324.5 507 c 128
 344.833333333 526.333333333 367.5 541.666666667 392.5 553 c 128
 417.5 564.333333333 443.666666667 570 471 570 c 0
 501 570 524.833333333 563.333333333 542.5 550 c 128
 560.166666667 536.666666667 572 519.666666667 578 499 c 128
 584 478.333333333 583.666666667 456.666666667 577 434 c 1
 561 436 l 1
 621 555 l 1
 697 555 l 1
 563 286 l 2
 556.333333333 271.333333333 552.333333333 258.166666667 551 246.5 c 128
 549.666666667 234.833333333 551.666666667 225.666666667 557 219 c 128
 562.333333333 212.333333333 571 209 583 209 c 0
 604.333333333 209 625 215.666666667 645 229 c 128
 665 242.333333333 683.333333333 260.666666667 700 284 c 128
 716.666666667 307.333333333 729.833333333 333.666666667 739.5 363 c 128
 749.166666667 392.333333333 754 423 754 455 c 0
 754 499.666666667 742.5 538.166666667 719.5 570.5 c 128
 696.5 602.833333333 666 627.833333333 628 645.5 c 128
 590 663.166666667 548.666666667 672 504 672 c 0
 450.666666667 672 401.333333333 661.666666667 356 641 c 128
 310.666666667 620.333333333 271.166666667 592.666666667 237.5 558 c 128
 203.833333333 523.333333333 177.666666667 484 159 440 c 128
 140.333333333 396 131 350.333333333 131 303 c 0
 131 260.333333333 139 222.833333333 155 190.5 c 128
 171 158.166666667 192.666666667 131.5 220 110.5 c 128
 247.333333333 89.5 278.666666667 73.6666666667 314 63 c 128
 349.333333333 52.3333333333 385.666666667 47 423 47 c 0
 449 47 475.166666667 49.3333333333 501.5 54 c 128
 527.833333333 58.6666666667 553 65.6666666667 577 75 c 1
 590 22 l 1
 566.666666667 11.3333333333 540.166666667 3.16666666667 510.5 -2.5 c 128
 480.833333333 -8.16666666667 450.333333333 -11 419 -11 c 0
370 214 m 0
 387.333333333 214 404.5 218.666666667 421.5 228 c 128
 438.5 237.333333333 454.333333333 249.5 469 264.5 c 128
 483.666666667 279.5 496.666666667 296.166666667 508 314.5 c 128
 519.333333333 332.833333333 528 351.333333333 534 370 c 128
 540 388.666666667 543 406.333333333 543 423 c 0
 543 448.333333333 536.333333333 468.833333333 523 484.5 c 128
 509.666666667 500.166666667 490.666666667 508 466 508 c 0
 444 508 423.166666667 501.333333333 403.5 488 c 128
 383.833333333 474.666666667 366.333333333 457.5 351 436.5 c 128
 335.666666667 415.5 323.666666667 393 315 369 c 128
 306.333333333 345 302 322.333333333 302 301 c 0
 302 275 308 254 320 238 c 128
 332 222 348.666666667 214 370 214 c 0
EndSplineSet
EndChar

StartChar: ampersand
Encoding: 65675 -1 420
Width: 704
GlyphClass: 1
Flags: HW
LayerCount: 3
Fore
SplineSet
524 0 m 1
 256 416 l 2
 239.333333333 441.333333333 227 465.5 219 488.5 c 128
 211 511.5 207 533.666666667 207 555 c 0
 207 589 215 619.166666667 231 645.5 c 128
 247 671.833333333 269.333333333 692.5 298 707.5 c 128
 326.666666667 722.5 359 730 395 730 c 0
 427.666666667 730 456.666666667 723.833333333 482 711.5 c 128
 507.333333333 699.166666667 527.166666667 682.333333333 541.5 661 c 128
 555.833333333 639.666666667 563 615 563 587 c 0
 563 556.333333333 554 528 536 502 c 128
 518 476 491.833333333 453.166666667 457.5 433.5 c 128
 423.166666667 413.833333333 382 398.333333333 334 387 c 1
 309 442 l 1
 345.666666667 449.333333333 377.333333333 459.5 404 472.5 c 128
 430.666666667 485.5 451.166666667 501.166666667 465.5 519.5 c 128
 479.833333333 537.833333333 487 557.666666667 487 579 c 0
 487 604.333333333 478 624.833333333 460 640.5 c 128
 442 656.166666667 418.333333333 664 389 664 c 0
 358.333333333 664 333.166666667 654.166666667 313.5 634.5 c 128
 293.833333333 614.833333333 284 589.333333333 284 558 c 0
 284 540.666666667 288.166666667 522.166666667 296.5 502.5 c 128
 304.833333333 482.833333333 318.666666667 458.333333333 338 429 c 2
 623 0 l 1
 524 0 l 1
268 -10 m 0
 233.333333333 -10 201.666666667 -5.33333333333 173 4 c 128
 144.333333333 13.3333333333 119.666666667 26.5 99 43.5 c 128
 78.3333333333 60.5 62.3333333333 80.8333333333 51 104.5 c 128
 39.6666666667 128.166666667 34 154.333333333 34 183 c 0
 34 225 44.6666666667 263 66 297 c 128
 87.3333333333 331 117 359.666666667 155 383 c 128
 193 406.333333333 236.666666667 423 286 433 c 1
 314 380 l 1
 270.666666667 370.666666667 234 357.333333333 204 340 c 128
 174 322.666666667 151.333333333 301.833333333 136 277.5 c 128
 120.666666667 253.166666667 113 225.666666667 113 195 c 0
 113 165 119.833333333 139.833333333 133.5 119.5 c 128
 147.166666667 99.1666666667 166.166666667 83.8333333333 190.5 73.5 c 128
 214.833333333 63.1666666667 243.333333333 58 276 58 c 0
 313.333333333 58 348.166666667 65.1666666667 380.5 79.5 c 128
 412.833333333 93.8333333333 442 115 468 143 c 128
 494 171 516.333333333 205.5 535 246.5 c 128
 553.666666667 287.5 568.333333333 334.666666667 579 388 c 1
 655 388 l 1
 642.333333333 326 624.166666667 270.5 600.5 221.5 c 128
 576.833333333 172.5 548.166666667 130.833333333 514.5 96.5 c 128
 480.833333333 62.1666666667 443.166666667 35.8333333333 401.5 17.5 c 128
 359.833333333 -0.833333333333 315.333333333 -10 268 -10 c 0
EndSplineSet
Substitution2: "'calt' Contextual Alternates in Latin lookup 32 subtable" ampersand.ss11
Substitution2: "'aalt' Access All Alternates in Latin lookup 0 subtable" ampersand.ss11
EndChar

StartChar: paragraph
Encoding: 182 182 421
Width: 659
GlyphClass: 1
Flags: HW
LayerCount: 3
Fore
SplineSet
242 -130 m 1
 347 326 l 1
 262 326 l 2
 227.333333333 326 198 333.833333333 174 349.5 c 128
 150 365.166666667 131.666666667 386 119 412 c 128
 106.333333333 438 100 465.666666667 100 495 c 0
 100 533.666666667 109.333333333 570 128 604 c 128
 146.666666667 638 173 665.833333333 207 687.5 c 128
 241 709.166666667 281 720 327 720 c 2
 684 720 l 1
 488 -130 l 1
 424 -130 l 1
 605 659 l 1
 488 659 l 1
 306 -130 l 1
 242 -130 l 1
EndSplineSet
EndChar

StartChar: section
Encoding: 167 167 422
Width: 457
GlyphClass: 1
Flags: HW
LayerCount: 3
Fore
SplineSet
231 183 m 1
 235 234 l 1
 262.333333333 234 285 237.5 303 244.5 c 128
 321 251.5 334.666666667 261.666666667 344 275 c 128
 353.333333333 288.333333333 358 304.666666667 358 324 c 256
 358 343.333333333 352.666666667 359.333333333 342 372 c 128
 331.333333333 384.666666667 317 395.666666667 299 405 c 2
 232 439 l 2
 202 454.333333333 178.833333333 473.666666667 162.5 497 c 128
 146.166666667 520.333333333 138 546.666666667 138 576 c 0
 138 606.666666667 145.5 633.5 160.5 656.5 c 128
 175.5 679.5 196.333333333 697.5 223 710.5 c 128
 249.666666667 723.5 280 730 314 730 c 0
 346.666666667 730 375.333333333 723.833333333 400 711.5 c 128
 424.666666667 699.166666667 443.666666667 681.666666667 457 659 c 128
 470.333333333 636.333333333 476.666666667 610 476 580 c 1
 404 580 l 1
 403.333333333 608 394.333333333 629.333333333 377 644 c 128
 359.666666667 658.666666667 336.333333333 666 307 666 c 0
 277 666 253.833333333 658.666666667 237.5 644 c 128
 221.166666667 629.333333333 213 608.666666667 213 582 c 0
 213 564 218.666666667 548.666666667 230 536 c 128
 241.333333333 523.333333333 257.666666667 511.333333333 279 500 c 2
 337 468 l 2
 368.333333333 452.666666667 391.833333333 433.666666667 407.5 411 c 128
 423.166666667 388.333333333 431 362 431 332 c 0
 431 285.333333333 413.333333333 248.833333333 378 222.5 c 128
 342.666666667 196.166666667 293.666666667 183 231 183 c 1
179 -64 m 0
 146.333333333 -64 117.666666667 -57.8333333333 93 -45.5 c 128
 68.3333333333 -33.1666666667 49.3333333333 -15.6666666667 36 7 c 128
 22.6666666667 29.6666666667 16.3333333333 56 17 86 c 1
 89 86 l 1
 90.3333333333 58.6666666667 99.5 37.5 116.5 22.5 c 128
 133.5 7.5 157 0 187 0 c 0
 216.333333333 0 239.166666667 7.33333333333 255.5 22 c 128
 271.833333333 36.6666666667 280 57 280 83 c 0
 280 101 275.666666667 116.166666667 267 128.5 c 128
 258.333333333 140.833333333 243 152.333333333 221 163 c 2
 156 198 l 2
 124.666666667 213.333333333 101.166666667 232.333333333 85.5 255 c 128
 69.8333333333 277.666666667 62 303.666666667 62 333 c 0
 62 380.333333333 79.6666666667 417.166666667 115 443.5 c 128
 150.333333333 469.833333333 199.333333333 483 262 483 c 1
 258 431 l 1
 231.333333333 431 208.833333333 427.666666667 190.5 421 c 128
 172.166666667 414.333333333 158.333333333 404.333333333 149 391 c 128
 139.666666667 377.666666667 135 361.333333333 135 342 c 256
 135 322.666666667 139.5 307 148.5 295 c 128
 157.5 283 172.666666667 271.666666667 194 261 c 2
 261 227 l 2
 291.666666667 211.666666667 315 192.333333333 331 169 c 128
 347 145.666666667 355 119 355 89 c 0
 355 59.6666666667 347.5 33.3333333333 332.5 10 c 128
 317.5 -13.3333333333 296.833333333 -31.5 270.5 -44.5 c 128
 244.166666667 -57.5 213.666666667 -64 179 -64 c 0
EndSplineSet
EndChar

StartChar: copyright
Encoding: 169 169 423
Width: 865
GlyphClass: 1
Flags: HW
LayerCount: 3
Fore
SplineSet
457 -15 m 256
 405 -15 356.333333333 -5.33333333333 311 14 c 128
 265.666666667 33.3333333333 225.833333333 60.1666666667 191.5 94.5 c 128
 157.166666667 128.833333333 130.333333333 168.666666667 111 214 c 128
 91.6666666667 259.333333333 82 308 82 360 c 256
 82 412 91.6666666667 460.666666667 111 506 c 128
 130.333333333 551.333333333 157.166666667 591.166666667 191.5 625.5 c 128
 225.833333333 659.833333333 265.666666667 686.666666667 311 706 c 128
 356.333333333 725.333333333 405 735 457 735 c 256
 509 735 557.666666667 725.333333333 603 706 c 128
 648.333333333 686.666666667 688.166666667 659.833333333 722.5 625.5 c 128
 756.833333333 591.166666667 783.666666667 551.333333333 803 506 c 128
 822.333333333 460.666666667 832 412 832 360 c 256
 832 308 822.333333333 259.333333333 803 214 c 128
 783.666666667 168.666666667 756.833333333 128.833333333 722.5 94.5 c 128
 688.166666667 60.1666666667 648.333333333 33.3333333333 603 14 c 128
 557.666666667 -5.33333333333 509 -15 457 -15 c 256
457 23 m 256
 503 23 546.333333333 31.8333333333 587 49.5 c 128
 627.666666667 67.1666666667 663.333333333 91.5 694 122.5 c 128
 724.666666667 153.5 748.666666667 189.333333333 766 230 c 128
 783.333333333 270.666666667 792 314 792 360 c 256
 792 406 783.333333333 449.333333333 766 490 c 128
 748.666666667 530.666666667 724.666666667 566.5 694 597.5 c 128
 663.333333333 628.5 627.666666667 652.833333333 587 670.5 c 128
 546.333333333 688.166666667 503 697 457 697 c 256
 411 697 367.666666667 688.166666667 327 670.5 c 128
 286.333333333 652.833333333 250.666666667 628.5 220 597.5 c 128
 189.333333333 566.5 165.333333333 530.666666667 148 490 c 128
 130.666666667 449.333333333 122 406 122 360 c 256
 122 314 130.666666667 270.666666667 148 230 c 128
 165.333333333 189.333333333 189.333333333 153.5 220 122.5 c 128
 250.666666667 91.5 286.333333333 67.1666666667 327 49.5 c 128
 367.666666667 31.8333333333 411 23 457 23 c 256
459 140 m 0
 419.666666667 140 384.666666667 149.5 354 168.5 c 128
 323.333333333 187.5 299.333333333 213.5 282 246.5 c 128
 264.666666667 279.5 256 317.333333333 256 360 c 256
 256 402.666666667 264.666666667 440.5 282 473.5 c 128
 299.333333333 506.5 323.333333333 532.5 354 551.5 c 128
 384.666666667 570.5 419.333333333 580 458 580 c 0
 506 580 546.5 565.5 579.5 536.5 c 128
 612.5 507.5 632.333333333 469.333333333 639 422 c 1
 590 422 l 1
 585.333333333 457.333333333 571.333333333 485.166666667 548 505.5 c 128
 524.666666667 525.833333333 495 536 459 536 c 0
 413 536 376 519.666666667 348 487 c 128
 320 454.333333333 306 412 306 360 c 0
 306 307.333333333 320 264.833333333 348 232.5 c 128
 376 200.166666667 412.666666667 184 458 184 c 0
 495.333333333 184 525.666666667 194.333333333 549 215 c 128
 572.333333333 235.666666667 586.333333333 263.333333333 591 298 c 1
 640 298 l 1
 633.333333333 250 613.666666667 211.666666667 581 183 c 128
 548.333333333 154.333333333 507.666666667 140 459 140 c 0
EndSplineSet
EndChar

StartChar: registered
Encoding: 174 174 424
Width: 865
GlyphClass: 1
Flags: HW
LayerCount: 3
Fore
SplineSet
457 -15 m 256
 405 -15 356.333333333 -5.33333333333 311 14 c 128
 265.666666667 33.3333333333 225.833333333 60.1666666667 191.5 94.5 c 128
 157.166666667 128.833333333 130.333333333 168.666666667 111 214 c 128
 91.6666666667 259.333333333 82 308 82 360 c 256
 82 412 91.6666666667 460.666666667 111 506 c 128
 130.333333333 551.333333333 157.166666667 591.166666667 191.5 625.5 c 128
 225.833333333 659.833333333 265.666666667 686.666666667 311 706 c 128
 356.333333333 725.333333333 405 735 457 735 c 256
 509 735 557.666666667 725.333333333 603 706 c 128
 648.333333333 686.666666667 688.166666667 659.833333333 722.5 625.5 c 128
 756.833333333 591.166666667 783.666666667 551.333333333 803 506 c 128
 822.333333333 460.666666667 832 412 832 360 c 256
 832 308 822.333333333 259.333333333 803 214 c 128
 783.666666667 168.666666667 756.833333333 128.833333333 722.5 94.5 c 128
 688.166666667 60.1666666667 648.333333333 33.3333333333 603 14 c 128
 557.666666667 -5.33333333333 509 -15 457 -15 c 256
457 23 m 256
 503 23 546.333333333 31.8333333333 587 49.5 c 128
 627.666666667 67.1666666667 663.333333333 91.5 694 122.5 c 128
 724.666666667 153.5 748.666666667 189.333333333 766 230 c 128
 783.333333333 270.666666667 792 314 792 360 c 256
 792 406 783.333333333 449.333333333 766 490 c 128
 748.666666667 530.666666667 724.666666667 566.5 694 597.5 c 128
 663.333333333 628.5 627.666666667 652.833333333 587 670.5 c 128
 546.333333333 688.166666667 503 697 457 697 c 256
 411 697 367.666666667 688.166666667 327 670.5 c 128
 286.333333333 652.833333333 250.666666667 628.5 220 597.5 c 128
 189.333333333 566.5 165.333333333 530.666666667 148 490 c 128
 130.666666667 449.333333333 122 406 122 360 c 256
 122 314 130.666666667 270.666666667 148 230 c 128
 165.333333333 189.333333333 189.333333333 153.5 220 122.5 c 128
 250.666666667 91.5 286.333333333 67.1666666667 327 49.5 c 128
 367.666666667 31.8333333333 411 23 457 23 c 256
317 145 m 1
 317 575 l 1
 476 575 l 2
 520.666666667 575 556 564.5 582 543.5 c 128
 608 522.5 621 494 621 458 c 0
 621 399.333333333 582.666666667 361.666666667 506 345 c 1
 512 361 l 1
 543.333333333 362.333333333 568.166666667 354.5 586.5 337.5 c 128
 604.833333333 320.5 614 297 614 267 c 2
 614 196 l 2
 614 188.666666667 614.333333333 180.833333333 615 172.5 c 128
 615.666666667 164.166666667 617 155 619 145 c 1
 569 145 l 1
 567.666666667 151 566.666666667 158.333333333 566 167 c 128
 565.333333333 175.666666667 565 185.333333333 565 196 c 2
 565 257 l 2
 565 283 557.5 302.833333333 542.5 316.5 c 128
 527.5 330.166666667 506.333333333 337 479 337 c 2
 353 337 l 1
 353 377 l 1
 474 377 l 2
 505.333333333 377 529.5 384 546.5 398 c 128
 563.5 412 572 431.333333333 572 456 c 256
 572 480.666666667 563.5 499.5 546.5 512.5 c 128
 529.5 525.5 505.333333333 532 474 532 c 2
 366 532 l 1
 366 145 l 1
 317 145 l 1
EndSplineSet
EndChar

StartChar: trademark
Encoding: 8482 8482 425
Width: 790
GlyphClass: 1
Flags: HW
LayerCount: 3
Fore
SplineSet
231 360 m 1
 231 707 l 1
 294 707 l 1
 294 360 l 1
 231 360 l 1
124 667 m 1
 124 720 l 1
 401 720 l 1
 401 667 l 1
 124 667 l 1
437 360 m 1
 437 720 l 1
 530 720 l 1
 635 375 l 1
 600 375 l 1
 704 720 l 1
 799 720 l 1
 799 360 l 1
 736 360 l 1
 736 692 l 1
 746 692 l 1
 648 360 l 1
 584 360 l 1
 487 690 l 1
 496 690 l 1
 496 360 l 1
 437 360 l 1
EndSplineSet
EndChar

StartChar: degree
Encoding: 176 176 426
Width: 386
GlyphClass: 1
Flags: HW
LayerCount: 3
Fore
SplineSet
256 449 m 0
 231.333333333 449 209.333333333 454.666666667 190 466 c 128
 170.666666667 477.333333333 155.666666667 493 145 513 c 128
 134.333333333 533 129 554.666666667 129 578 c 0
 129 606 136 631.833333333 150 655.5 c 128
 164 679.166666667 183 698.333333333 207 713 c 128
 231 727.666666667 258 735 288 735 c 0
 326 735 356.333333333 723 379 699 c 128
 401.666666667 675 413 644.666666667 413 608 c 0
 413 580 406 553.833333333 392 529.5 c 128
 378 505.166666667 359.166666667 485.666666667 335.5 471 c 128
 311.833333333 456.333333333 285.333333333 449 256 449 c 0
261 496 m 0
 280.333333333 496 297.833333333 501 313.5 511 c 128
 329.166666667 521 341.666666667 534 351 550 c 128
 360.333333333 566 365 583.333333333 365 602 c 0
 365 626.666666667 357.833333333 647.166666667 343.5 663.5 c 128
 329.166666667 679.833333333 308.333333333 688 281 688 c 0
 261.666666667 688 244.166666667 683.166666667 228.5 673.5 c 128
 212.833333333 663.833333333 200.333333333 651 191 635 c 128
 181.666666667 619 177 601.333333333 177 582 c 0
 177 557.333333333 184.5 536.833333333 199.5 520.5 c 128
 214.5 504.166666667 235 496 261 496 c 0
EndSplineSet
EndChar

StartChar: bar
Encoding: 124 124 427
Width: 233
GlyphClass: 1
Flags: HW
LayerCount: 3
Fore
SplineSet
-6 -130 m 1
 206 790 l 1
 274 790 l 1
 62 -130 l 1
 -6 -130 l 1
EndSplineSet
EndChar

StartChar: ampersand.ss11
Encoding: 38 38 428
Width: 681
GlyphClass: 1
Flags: HW
LayerCount: 3
Fore
SplineSet
213 0 m 2
 173 0 139.166666667 8.83333333333 111.5 26.5 c 128
 83.8333333333 44.1666666667 63 67.1666666667 49 95.5 c 128
 35 123.833333333 28 154.333333333 28 187 c 0
 28 217 33.8333333333 244.833333333 45.5 270.5 c 128
 57.1666666667 296.166666667 73.6666666667 318.833333333 95 338.5 c 128
 116.333333333 358.166666667 141.333333333 373.5 170 384.5 c 128
 198.666666667 395.5 230 401 264 401 c 1
 263 380 l 1
 237.666666667 380 215.333333333 387 196 401 c 128
 176.666666667 415 161.833333333 433.666666667 151.5 457 c 128
 141.166666667 480.333333333 136 505.333333333 136 532 c 0
 136 570.666666667 146.166666667 604.833333333 166.5 634.5 c 128
 186.833333333 664.166666667 215.666666667 687.5 253 704.5 c 128
 290.333333333 721.5 334.333333333 730 385 730 c 0
 409 730 435.166666667 727.666666667 463.5 723 c 128
 491.833333333 718.333333333 516.333333333 710.333333333 537 699 c 1
 522 635 l 1
 504.666666667 645 483.333333333 652.333333333 458 657 c 128
 432.666666667 661.666666667 408.666666667 664 386 664 c 0
 344 664 310.333333333 656.833333333 285 642.5 c 128
 259.666666667 628.166666667 241.333333333 610.333333333 230 589 c 128
 218.666666667 567.666666667 213 545.666666667 213 523 c 0
 213 503 217.166666667 484.333333333 225.5 467 c 128
 233.833333333 449.666666667 246.166666667 435.666666667 262.5 425 c 128
 278.833333333 414.333333333 298.666666667 409 322 409 c 2
 695 409 l 1
 680 345 l 1
 288 345 l 2
 254.666666667 345 224.5 338.833333333 197.5 326.5 c 128
 170.5 314.166666667 149.166666667 296.5 133.5 273.5 c 128
 117.833333333 250.5 110 222 110 188 c 0
 110 153.333333333 120 124.333333333 140 101 c 128
 160 77.6666666667 191 66 233 66 c 2
 445 66 l 1
 430 0 l 1
 213 0 l 2
389 0 m 1
 516 551 l 1
 595 551 l 1
 468 0 l 1
 389 0 l 1
EndSplineSet
EndChar

